<?xml version="1.0" standalone="no"?>
<!DOCTYPE svg PUBLIC "-//W3C//DTD SVG 20010904//EN"
 "http://www.w3.org/TR/2001/REC-SVG-20010904/DTD/svg10.dtd">
<svg version="1.0" xmlns="http://www.w3.org/2000/svg"
 width="512.000000pt" height="512.000000pt" viewBox="0 0 512.000000 512.000000"
 preserveAspectRatio="xMidYMid meet">
<metadata>
Created by potrace 1.16, written by Peter Selinger 2001-2019
</metadata>
<g transform="translate(0.000000,512.000000) scale(0.100000,-0.100000)"
fill="purple" stroke="none">
<path d="M2506 5058 c-32 -4 -83 -19 -114 -33 -30 -14 -57 -23 -60 -21 -5 6
-62 -22 -62 -30 0 -2 15 3 33 12 111 56 -88 -61 -883 -521 -492 -284 -902
-523 -911 -531 -19 -17 -33 -18 -23 -1 4 6 -9 -4 -29 -22 -36 -34 -47 -48 -27
-36 18 11 10 -10 -17 -40 l-26 -30 17 30 17 30 -20 -23 c-11 -13 -17 -30 -14
-39 4 -11 2 -14 -5 -9 -8 5 -10 1 -5 -10 5 -13 3 -15 -7 -9 -8 5 -11 4 -6 -3
3 -6 -1 -39 -9 -74 -13 -54 -15 -220 -15 -1138 0 -918 2 -1084 15 -1138 8 -35
12 -68 9 -74 -5 -7 -2 -8 6 -3 10 6 12 4 7 -9 -5 -11 -3 -15 5 -10 7 5 9 2 5
-9 -3 -9 3 -26 14 -39 l20 -23 -17 30 -17 30 26 -30 c28 -32 35 -51 14 -39 -6
4 4 -9 22 -29 34 -36 48 -47 36 -27 -10 17 2 12 47 -19 105 -72 1859 -1077
1907 -1094 61 -21 165 -24 233 -7 72 18 1908 1084 1980 1149 39 35 68 75 90
119 l33 67 0 1155 0 1155 -33 67 c-22 44 -51 83 -90 119 -42 38 -297 191 -972
581 -503 292 -934 539 -956 549 -55 25 -145 36 -218 27z m309 -1109 c50 -6
140 -24 200 -39 123 -31 291 -100 288 -118 -2 -6 3 -9 11 -6 20 8 153 -87 233
-166 155 -154 256 -350 288 -557 l7 -43 -391 0 c-304 0 -393 3 -396 13 -52
148 -87 204 -168 263 -90 66 -173 89 -327 89 -95 0 -137 -4 -177 -18 -29 -10
-58 -15 -64 -11 -8 5 -9 3 -4 -6 6 -10 4 -12 -9 -7 -9 4 -15 3 -12 -2 4 -5
-14 -21 -38 -35 -63 -37 -137 -122 -185 -215 -141 -271 -143 -781 -5 -1069 27
-55 56 -95 107 -146 39 -39 71 -74 71 -78 1 -3 5 -10 10 -15 5 -5 6 -3 2 5 -9
16 0 15 27 -2 97 -63 322 -82 448 -38 36 12 75 29 85 37 24 18 38 19 28 3 -4
-8 -3 -10 2 -5 5 5 9 14 9 19 0 6 6 13 14 16 8 3 11 0 7 -7 -12 -19 0 -12 20
11 19 22 19 23 -1 8 -11 -8 7 14 40 50 37 41 72 91 90 132 l30 67 392 1 392 0
-19 -68 c-26 -92 -94 -248 -108 -245 -6 2 -9 -3 -7 -10 16 -39 -185 -270 -308
-355 -206 -142 -418 -209 -738 -232 -392 -28 -756 62 -1009 251 -296 222 -463
562 -489 1001 -50 811 396 1404 1144 1523 101 16 392 18 510 4z m1284 -1086
c-10 -43 -18 -81 -19 -85 0 -5 29 -8 65 -8 l64 0 10 38 c6 20 15 58 22 85 l11
47 44 0 c24 0 44 -3 44 -7 0 -5 -7 -41 -17 -81 -13 -55 -19 -69 -25 -55 -7 16
-8 16 -5 -2 2 -16 11 -21 45 -23 l42 -3 0 -55 0 -54 -53 0 -54 0 -12 -52 c-6
-29 -14 -63 -17 -75 -6 -21 -3 -23 40 -23 l46 0 0 -50 0 -49 -57 -3 -57 -3
-24 -95 -23 -95 -45 3 c-24 2 -44 7 -44 11 0 3 9 40 20 81 11 41 20 81 20 88
0 8 -19 12 -64 12 l-63 0 -25 -92 -25 -93 -46 -3 c-26 -2 -47 1 -47 5 0 4 9
42 20 83 26 101 27 100 -20 100 l-40 0 0 55 0 54 57 3 58 3 12 50 c19 84 19
85 -32 85 l-45 0 0 55 0 55 60 0 59 0 10 38 c6 20 15 58 22 85 l11 47 48 0 47
0 -18 -77z"/>
<path d="M4036 2595 c-9 -35 -16 -67 -16 -70 0 -3 29 -5 64 -5 l64 0 16 65 c9
35 16 67 16 70 0 3 -29 5 -64 5 l-64 0 -16 -65z"/>
<path d="M4795 2560 c0 -619 1 -872 2 -563 2 310 2 816 0 1125 -1 310 -2 57
-2 -562z"/>
<path d="M325 2560 c0 -580 1 -818 2 -527 2 290 2 764 0 1055 -1 290 -2 52 -2
-528z"/>
</g>
</svg>
