<svg width="0" height="0" class="hidden">
  <symbol version="1.1" id="website" xmlns="http://www.w3.org/2000/svg" xmlns:xlink="http://www.w3.org/1999/xlink" x="0px" y="0px" xml:space="preserve" viewBox="0 0 512 512">
    <g>
      <g>
        <g>
          <path d="M255.999,40.928c-118.778,0-215.071,96.294-215.071,215.074c0,118.776,96.292,215.068,215.071,215.068
				S471.07,374.778,471.07,256.002C471.07,137.222,374.777,40.928,255.999,40.928z"></path>
        </g>
      </g>
      <g>
        <g>
          <path d="M255.999,1C115.391,1,1,115.392,1,256.002C1,396.609,115.391,511,255.999,511S511,396.609,511,256.002
				C511,115.392,396.607,1,255.999,1z M255.999,502.832c-136.103,0-246.83-110.728-246.83-246.83
				c0-136.104,110.727-246.833,246.83-246.833c136.102,0,246.832,110.729,246.832,246.833
				C502.831,392.104,392.101,502.832,255.999,502.832z"></path>
        </g>
      </g>
      <path d="M172.596,380.142l2.343,0.583l-2.343,0.584c-13.683,3.428-24.366,14.116-27.803,27.803l-0.585,2.336
		l-0.582-2.336c-3.433-13.687-14.121-24.375-27.81-27.803l-2.33-0.584l2.33-0.583c13.689-3.43,24.377-14.123,27.81-27.806
		l0.582-2.337l0.585,2.337C148.229,366.019,158.912,376.712,172.596,380.142L172.596,380.142z"></path>
      <path d="M347.895,91.741l2.042,0.508l-2.042,0.51c-11.93,2.989-21.244,12.308-24.24,24.241l-0.51,2.037L322.637,117
		c-2.993-11.933-12.311-21.252-24.246-24.241l-2.031-0.51l2.031-0.508c11.935-2.991,21.253-12.314,24.246-24.243l0.508-2.037
		l0.51,2.037C326.651,79.428,335.965,88.75,347.895,91.741L347.895,91.741z"></path>
      <path d="M208.797,408.444l1.203,0.299l-1.203,0.3c-7.027,1.761-12.514,7.25-14.279,14.279l-0.3,1.2l-0.299-1.2
		c-1.763-7.029-7.252-12.518-14.283-14.279l-1.197-0.3l1.197-0.299c7.03-1.762,12.519-7.253,14.283-14.28l0.299-1.2l0.3,1.2
		C196.283,401.191,201.77,406.682,208.797,408.444L208.797,408.444z"></path>
      <path d="M436.956,218.078l1.203,0.299l-1.203,0.3c-7.027,1.761-12.514,7.25-14.279,14.279l-0.3,1.2l-0.299-1.2
		c-1.763-7.029-7.252-12.518-14.283-14.279l-1.197-0.3l1.197-0.299c7.03-1.762,12.519-7.253,14.283-14.28l0.299-1.2l0.3,1.2
		C424.442,210.824,429.928,216.316,436.956,218.078L436.956,218.078z"></path>
      <path d="M305.765,365.453h-4.978c-6.079,0-11.36-4.178-12.759-10.096l-3.304-13.988h-57.449l-3.305,13.988
		c-1.397,5.918-6.68,10.096-12.757,10.096h-4.978c-5.722,0-10.361,4.638-10.361,10.36v5.989h120.251v-5.989
		C316.126,370.09,311.487,365.453,305.765,365.453z"></path>
      <path d="M379.03,341.369H132.97c-10.762,0-19.484-8.722-19.484-19.487V149.679c0-10.756,8.722-19.481,19.484-19.481
		h246.06c10.762,0,19.484,8.725,19.484,19.481v172.202C398.514,332.646,389.792,341.369,379.03,341.369L379.03,341.369z"></path>
      <path d="M113.486,302.103V149.679c0-10.756,8.722-19.481,19.484-19.481h246.06c10.762,0,19.484,8.725,19.484,19.481
		v152.424H113.486z"></path>
      <rect x="128.52" y="146.517" width="254.96" height="143.719"></rect>
      <path d="M264.438,318.06c0,4.661-3.778,8.439-8.438,8.439c-4.66,0-8.438-3.777-8.438-8.439
		c0-4.66,3.778-8.438,8.438-8.438C260.66,309.622,264.438,313.4,264.438,318.06z"></path>
      <path d="M364.682,290.236V177.357c0-8.542-6.925-15.469-15.469-15.469H162.791c-8.545,0-15.473,6.927-15.473,15.469
		v112.879H364.682L364.682,290.236z"></path>
      <path d="M313.649,175.193c0,2.548-2.065,4.613-4.613,4.613c-2.548,0-4.613-2.065-4.613-4.613
		c0-2.547,2.065-4.613,4.613-4.613C311.584,170.579,313.649,172.645,313.649,175.193z"></path>
      <path d="M332.376,175.193c0,2.548-2.065,4.613-4.613,4.613c-2.551,0-4.614-2.065-4.614-4.613
		c0-2.547,2.063-4.613,4.614-4.613C330.31,170.579,332.376,172.645,332.376,175.193z"></path>
      <path d="M351.102,175.193c0,2.548-2.064,4.613-4.614,4.613c-2.548,0-4.613-2.065-4.613-4.613
		c0-2.547,2.065-4.613,4.613-4.613C349.037,170.579,351.102,172.645,351.102,175.193z"></path>
      <rect x="147.318" y="189.351" width="217.364" height="100.886"></rect>
      <g>
        <path d="M195.139,209.28l4.955,16.979l4.509-15.782c0.482-1.651,0.84-2.779,1.072-3.382
			c0.231-0.603,0.668-1.178,1.308-1.726c0.641-0.547,1.518-0.821,2.631-0.821c1.132,0,2.018,0.274,2.658,0.821
			c0.64,0.547,1.09,1.141,1.35,1.781s0.622,1.749,1.086,3.326l4.509,15.782l5.011-16.979c0.334-1.225,0.603-2.111,0.807-2.658
			s0.548-1.03,1.03-1.447c0.482-0.418,1.178-0.626,2.088-0.626c0.909,0,1.697,0.316,2.365,0.946
			c0.669,0.631,1.003,1.374,1.003,2.227c0,0.779-0.288,1.958-0.863,3.535l-6.207,18.204c-0.539,1.541-0.956,2.654-1.253,3.34
			s-0.766,1.299-1.405,1.837c-0.641,0.538-1.518,0.807-2.631,0.807c-1.15,0-2.055-0.288-2.714-0.863
			c-0.658-0.575-1.146-1.28-1.461-2.115c-0.315-0.835-0.659-1.921-1.03-3.257l-4.342-14.808l-4.203,14.808
			c-0.557,2.06-1.16,3.614-1.81,4.662c-0.649,1.048-1.791,1.573-3.424,1.573c-0.835,0-1.545-0.163-2.129-0.487
			c-0.585-0.325-1.071-0.789-1.461-1.392c-0.391-0.603-0.733-1.317-1.03-2.143s-0.529-1.479-0.696-1.962l-6.151-18.204
			c-0.612-1.707-0.918-2.885-0.918-3.535c0-0.816,0.324-1.549,0.974-2.199c0.649-0.649,1.447-0.974,2.394-0.974
			c1.262,0,2.116,0.357,2.562,1.072S194.638,207.554,195.139,209.28z"></path>
        <path d="M241.483,209.28l4.955,16.979l4.509-15.782c0.482-1.651,0.84-2.779,1.072-3.382
			c0.231-0.603,0.668-1.178,1.308-1.726c0.641-0.547,1.518-0.821,2.631-0.821c1.132,0,2.018,0.274,2.658,0.821
			c0.64,0.547,1.09,1.141,1.35,1.781s0.622,1.749,1.086,3.326l4.509,15.782l5.011-16.979c0.334-1.225,0.603-2.111,0.807-2.658
			s0.548-1.03,1.03-1.447c0.482-0.418,1.178-0.626,2.088-0.626c0.909,0,1.697,0.316,2.365,0.946
			c0.669,0.631,1.003,1.374,1.003,2.227c0,0.779-0.288,1.958-0.863,3.535l-6.207,18.204c-0.539,1.541-0.956,2.654-1.253,3.34
			s-0.766,1.299-1.405,1.837c-0.641,0.538-1.518,0.807-2.631,0.807c-1.15,0-2.055-0.288-2.714-0.863
			c-0.658-0.575-1.146-1.28-1.461-2.115c-0.315-0.835-0.659-1.921-1.03-3.257l-4.342-14.808l-4.203,14.808
			c-0.557,2.06-1.16,3.614-1.81,4.662c-0.649,1.048-1.791,1.573-3.424,1.573c-0.835,0-1.545-0.163-2.129-0.487
			c-0.585-0.325-1.071-0.789-1.461-1.392c-0.391-0.603-0.733-1.317-1.03-2.143s-0.529-1.479-0.696-1.962l-6.151-18.204
			c-0.612-1.707-0.918-2.885-0.918-3.535c0-0.816,0.324-1.549,0.974-2.199c0.649-0.649,1.447-0.974,2.394-0.974
			c1.262,0,2.116,0.357,2.562,1.072S240.982,207.554,241.483,209.28z"></path>
        <path d="M287.828,209.28l4.955,16.979l4.509-15.782c0.482-1.651,0.84-2.779,1.072-3.382
			c0.231-0.603,0.668-1.178,1.308-1.726c0.641-0.547,1.518-0.821,2.631-0.821c1.132,0,2.018,0.274,2.658,0.821
			c0.64,0.547,1.09,1.141,1.35,1.781s0.622,1.749,1.086,3.326l4.509,15.782l5.011-16.979c0.334-1.225,0.603-2.111,0.807-2.658
			s0.548-1.03,1.03-1.447c0.482-0.418,1.178-0.626,2.088-0.626c0.909,0,1.697,0.316,2.365,0.946
			c0.669,0.631,1.003,1.374,1.003,2.227c0,0.779-0.288,1.958-0.863,3.535l-6.207,18.204c-0.539,1.541-0.956,2.654-1.253,3.34
			s-0.766,1.299-1.405,1.837c-0.641,0.538-1.518,0.807-2.631,0.807c-1.15,0-2.055-0.288-2.714-0.863
			c-0.658-0.575-1.146-1.28-1.461-2.115c-0.315-0.835-0.659-1.921-1.03-3.257l-4.342-14.808l-4.203,14.808
			c-0.557,2.06-1.16,3.614-1.81,4.662c-0.649,1.048-1.791,1.573-3.424,1.573c-0.835,0-1.545-0.163-2.129-0.487
			c-0.585-0.325-1.071-0.789-1.461-1.392c-0.391-0.603-0.733-1.317-1.03-2.143s-0.529-1.479-0.696-1.962l-6.151-18.204
			c-0.612-1.707-0.918-2.885-0.918-3.535c0-0.816,0.324-1.549,0.974-2.199c0.649-0.649,1.447-0.974,2.394-0.974
			c1.262,0,2.116,0.357,2.562,1.072S287.327,207.554,287.828,209.28z"></path>
      </g>
      <rect x="165.602" y="244.74" width="180.796" height="11.542"></rect>
      <rect x="165.602" y="266.708" width="180.796" height="11.542"></rect>
    </g>
  </symbol>
</svg>