<?xml version="1.0" standalone="no"?>
<!DOCTYPE svg PUBLIC "-//W3C//DTD SVG 20010904//EN"
 "http://www.w3.org/TR/2001/REC-SVG-20010904/DTD/svg10.dtd">
<svg version="1.0" xmlns="http://www.w3.org/2000/svg"
 width="256.000000pt" height="256.000000pt" viewBox="0 0 256.000000 256.000000"
 preserveAspectRatio="xMidYMid meet">
<metadata>
Created by potrace 1.16, written by Peter Selinger 2001-2019
</metadata>
<g transform="translate(0.000000,256.000000) scale(0.100000,-0.100000)"
fill="#000000" stroke="none">
<path d="M800 2245 l0 -155 130 0 130 0 0 55 0 55 -70 0 -70 0 0 45 0 45 70 0
70 0 0 55 0 55 -130 0 -130 0 0 -155z"/>
<path d="M1150 2344 c0 -54 2 -57 48 -99 l47 -44 -47 -1 -48 0 0 -55 0 -55
130 0 130 0 0 52 c0 49 -3 55 -47 100 l-47 48 47 0 47 0 0 55 0 55 -130 0
-130 0 0 -56z"/>
<path d="M1500 2343 c0 -54 3 -60 42 -100 l42 -43 -42 0 -42 0 0 -55 0 -55
130 0 130 0 0 52 c0 49 -3 55 -47 100 l-47 48 47 0 47 0 0 55 0 55 -130 0
-130 0 0 -57z"/>
<path d="M480 1943 c1 -40 147 -1604 151 -1608 2 -2 149 -43 327 -90 l322 -87
322 87 c178 47 325 88 327 90 4 4 150 1568 151 1608 0 16 -45 17 -800 17 -755
0 -800 -1 -800 -17z m1440 -140 c0 -28 -110 -1294 -115 -1328 l-5 -31 -253
-67 c-138 -37 -255 -68 -259 -67 -4 0 -9 43 -10 96 l-3 96 -199 59 c-110 33
-201 60 -202 62 -2 2 -8 57 -14 122 -6 66 -12 135 -15 153 l-4 32 104 0 104 0
7 -79 6 -79 104 -26 c57 -14 106 -26 109 -26 3 0 5 70 5 155 l0 155 -224 0
-224 0 -6 68 c-4 37 -8 81 -10 98 -4 25 0 34 17 41 12 6 119 50 237 99 l215
89 -245 5 -245 5 -7 60 c-4 33 -10 77 -13 98 l-5 37 255 0 255 0 0 95 0 95
320 0 c298 0 320 -1 320 -17z"/>
</g>
</svg>
