<?xml version="1.0" encoding="UTF-8" standalone="no"?>
<svg
   enable-background="new 0 0 24 24"
   viewBox="0 0 16 24"
   version="1.1"
   id="svg12"
   sodipodi:docname="c205f326b2a49dd3454c8258abd24c5c.svg"
   width="16"
   height="24"
   xmlns:inkscape="http://www.inkscape.org/namespaces/inkscape"
   xmlns:sodipodi="http://sodipodi.sourceforge.net/DTD/sodipodi-0.dtd"
   xmlns="http://www.w3.org/2000/svg"
   xmlns:svg="http://www.w3.org/2000/svg">
  <defs
     id="defs16" />
  <sodipodi:namedview
     id="namedview14"
     pagecolor="#ffffff"
     bordercolor="#666666"
     borderopacity="1.0"
     inkscape:pageshadow="2"
     inkscape:pageopacity="0.0"
     inkscape:pagecheckerboard="0" />
  <path
     fill="#0acf83"
     d="m 4,24 c 2.208,0 4,-1.792 4,-4 V 16 H 4 c -2.208,0 -4,1.792 -4,4 0,2.208 1.792,4 4,4 z"
     id="path2" />
  <path
     fill="#a259ff"
     d="M 0,12 C 0,9.792 1.792,8 4,8 h 4 v 8 H 4 C 1.792,16 0,14.208 0,12 Z"
     id="path4" />
  <path
     fill="#f24e1e"
     d="M 0,4 C 0,1.792 1.792,0 4,0 H 8 V 8 H 4 C 1.792,8 0,6.208 0,4 Z"
     id="path6" />
  <path
     fill="#ff7262"
     d="m 8,0 h 4 c 2.208,0 4,1.792 4,4 0,2.208 -1.792,4 -4,4 H 8 Z"
     id="path8" />
  <path
     fill="#1abcfe"
     d="m 16,12 c 0,2.208 -1.792,4 -4,4 -2.208,0 -4,-1.792 -4,-4 0,-2.208 1.792,-4 4,-4 2.208,0 4,1.792 4,4 z"
     id="path10" />
</svg>
