<?xml version="1.0" standalone="no"?>
<!DOCTYPE svg PUBLIC "-//W3C//DTD SVG 20010904//EN"
 "http://www.w3.org/TR/2001/REC-SVG-20010904/DTD/svg10.dtd">
<svg version="1.0" xmlns="http://www.w3.org/2000/svg"
 width="512.000000pt" height="512.000000pt" viewBox="0 0 512.000000 512.000000"
 preserveAspectRatio="xMidYMid meet">
<metadata>
Created by potrace 1.16, written by Peter Selinger 2001-2019
</metadata>
<g transform="translate(0.000000,512.000000) scale(0.100000,-0.100000)"
fill="#000000" stroke="none">
<path d="M187 4932 c-147 -147 -188 -194 -185 -211 2 -18 40 15 213 189 175
175 206 210 185 210 -19 0 -69 -44 -213 -188z"/>
<path d="M287 4832 c-227 -227 -288 -294 -285 -311 2 -17 59 35 313 289 255
255 305 310 285 310 -20 0 -89 -64 -313 -288z"/>
<path d="M387 4732 c-307 -307 -388 -393 -385 -411 2 -17 79 55 413 389 335
335 405 410 385 410 -20 0 -109 -84 -413 -388z"/>
<path d="M487 4632 c-388 -388 -488 -493 -485 -511 2 -17 99 74 513 489 415
415 505 510 485 510 -20 0 -129 -104 -513 -488z"/>
<path d="M587 4532 c-468 -468 -588 -593 -585 -611 2 -17 118 94 613 589 495
495 605 610 585 610 -20 0 -149 -124 -613 -588z"/>
<path d="M687 4432 c-548 -548 -688 -693 -685 -711 2 -17 138 114 713 689 575
575 705 710 685 710 -20 0 -169 -144 -713 -688z"/>
<path d="M787 4332 c-629 -629 -788 -793 -785 -811 2 -17 158 133 813 789 655
655 805 810 785 810 -20 0 -189 -164 -813 -788z"/>
<path d="M887 4232 c-709 -709 -888 -893 -885 -911 2 -17 177 153 913 889 735
735 905 910 885 910 -20 0 -209 -184 -913 -888z"/>
<path d="M987 4132 c-789 -789 -988 -993 -985 -1011 2 -17 197 173 1013 989
815 815 1005 1010 985 1010 -20 0 -229 -204 -1013 -988z"/>
<path d="M1087 4032 c-870 -870 -1088 -1093 -1085 -1111 2 -17 217 193 1113
1089 895 895 1105 1110 1085 1110 -20 0 -249 -224 -1113 -1088z"/>
<path d="M1187 3932 c-950 -950 -1188 -1193 -1185 -1211 2 -17 237 212 1213
1189 975 975 1205 1210 1185 1210 -20 0 -269 -244 -1213 -1188z"/>
<path d="M1287 3832 c-1030 -1030 -1288 -1293 -1285 -1311 2 -17 256 232 1313
1289 1055 1055 1305 1310 1285 1310 -20 0 -289 -264 -1313 -1288z"/>
<path d="M1387 3732 c-1110 -1110 -1388 -1393 -1385 -1411 2 -17 276 252 1413
1389 1135 1135 1405 1410 1385 1410 -20 0 -309 -284 -1413 -1388z"/>
<path d="M1487 3632 c-1191 -1191 -1488 -1493 -1485 -1511 2 -17 296 271 1513
1489 1215 1215 1505 1510 1485 1510 -20 0 -329 -304 -1513 -1488z"/>
<path d="M1587 3532 c-1271 -1271 -1588 -1593 -1585 -1611 2 -17 315 291 1613
1589 1295 1295 1605 1610 1585 1610 -20 0 -349 -324 -1613 -1588z"/>
<path d="M1687 3432 c-1351 -1351 -1688 -1693 -1685 -1711 2 -17 335 311 1713
1689 1375 1375 1705 1710 1685 1710 -20 0 -369 -344 -1713 -1688z"/>
<path d="M2655 4200 l-920 -920 -68 0 c-65 0 -71 -2 -103 -34 -37 -37 -44 -74
-22 -121 12 -26 -5 -43 -765 -803 -614 -614 -777 -782 -777 -802 0 -20 152
127 793 765 l792 790 68 -5 67 -5 -860 -860 c-681 -681 -860 -865 -860 -885 0
-20 171 146 888 863 l887 887 75 0 75 0 -963 -963 c-762 -762 -962 -967 -962
-987 0 -20 192 167 988 963 l987 987 75 0 75 0 -200 -200 -200 -200 -56 0
c-99 0 -157 -63 -132 -144 l10 -34 -773 -773 c-613 -613 -774 -779 -774 -799
0 -20 151 126 789 764 719 719 790 787 809 777 11 -6 40 -11 64 -11 l43 0
-853 -853 c-674 -674 -852 -857 -852 -877 0 -20 170 145 878 853 l877 877 75
0 75 0 -953 -953 c-754 -754 -952 -957 -952 -977 0 -20 190 165 978 953 l977
977 75 0 75 0 -200 -200 -200 -200 -53 0 c-87 0 -131 -48 -118 -128 l6 -38
-770 -769 c-609 -609 -770 -775 -770 -795 0 -20 150 125 784 759 714 714 785
782 804 772 11 -6 40 -11 64 -11 l43 0 -848 -848 c-670 -670 -847 -852 -847
-872 0 -20 169 144 873 848 l872 872 75 0 75 0 -920 -920 c-743 -743 -915
-920 -895 -920 20 0 216 191 945 920 l920 920 75 0 75 0 -920 -920 c-743 -743
-915 -920 -895 -920 20 0 216 191 945 920 l920 920 75 0 75 0 -920 -920 c-743
-743 -915 -920 -895 -920 20 0 216 191 945 920 l920 920 75 0 75 0 -920 -920
c-743 -743 -915 -920 -895 -920 20 0 216 191 945 920 l920 920 75 0 75 0 -920
-920 c-743 -743 -915 -920 -895 -920 20 0 216 191 945 920 l920 920 75 0 75 0
-920 -920 c-743 -743 -915 -920 -895 -920 20 0 216 191 945 920 l920 920 75 0
75 0 -920 -920 c-743 -743 -915 -920 -895 -920 20 0 216 191 945 920 l920 920
75 0 75 0 -920 -920 c-743 -743 -915 -920 -895 -920 20 0 216 191 945 920
l920 920 75 0 75 0 -920 -920 c-742 -742 -915 -920 -895 -920 37 0 3440 3403
3440 3440 0 20 -146 -121 -764 -739 -746 -746 -763 -762 -769 -732 -4 17 -15
39 -25 49 -19 19 -7 32 769 808 625 625 789 794 789 814 0 20 -155 -130 -808
-783 l-807 -807 -75 0 -75 0 883 883 c698 698 882 887 882 907 0 20 -176 -151
-908 -883 l-907 -907 -75 0 -75 0 983 983 c778 778 982 987 982 1007 0 20
-147 -122 -764 -739 l-763 -763 -6 37 c-3 21 -13 45 -21 54 -14 15 53 85 769
801 621 621 785 790 785 810 0 20 -153 -128 -802 -775 l-803 -800 -68 5 -67 5
870 870 c689 689 870 875 870 895 0 20 -173 -148 -898 -873 l-897 -897 -75 0
-75 0 973 973 c770 770 972 977 972 997 0 20 -148 -123 -768 -743 -707 -707
-768 -765 -764 -732 3 22 -2 45 -13 61 l-17 27 781 781 c617 617 781 786 781
806 0 20 -153 -128 -797 -770 l-798 -795 -68 5 -67 5 865 865 c685 685 865
870 865 890 0 20 -172 -147 -893 -868 l-892 -892 -75 0 -75 0 920 920 c743
743 915 920 895 920 -20 0 -216 -191 -945 -920 l-920 -920 -75 0 -75 0 920
920 c743 743 915 920 895 920 -20 0 -216 -191 -945 -920 l-920 -920 -75 0 -75
0 920 920 c743 743 915 920 895 920 -20 0 -216 -191 -945 -920 l-920 -920 -75
0 -75 0 920 920 c743 743 915 920 895 920 -20 0 -216 -191 -945 -920 l-920
-920 -75 0 -75 0 920 920 c743 743 915 920 895 920 -20 0 -216 -191 -945 -920
l-920 -920 -75 0 -75 0 920 920 c743 743 915 920 895 920 -20 0 -216 -191
-945 -920 l-920 -920 -75 0 -75 0 920 920 c743 743 915 920 895 920 -20 0
-216 -191 -945 -920 l-920 -920 -75 0 -75 0 920 920 c743 743 915 920 895 920
-20 0 -216 -191 -945 -920z m675 -1325 l-205 -205 -75 0 -75 0 200 200 199
199 76 4 c41 1 77 4 80 5 3 1 -87 -90 -200 -203z m-1205 -5 l-200 -200 -75 0
-75 0 200 200 200 200 75 0 75 0 -200 -200z m200 0 l-200 -200 -75 0 -75 0
200 200 200 200 75 0 75 0 -200 -200z m200 0 l-200 -200 -75 0 -75 0 200 200
200 200 75 0 75 0 -200 -200z m200 0 l-200 -200 -75 0 -75 0 200 200 200 200
75 0 75 0 -200 -200z m200 0 l-200 -200 -75 0 -75 0 200 200 200 200 75 0 75
0 -200 -200z m200 0 l-200 -200 -75 0 -75 0 200 200 200 200 75 0 75 0 -200
-200z m-1020 -620 l-200 -200 -75 0 -75 0 200 200 200 200 75 0 75 0 -200
-200z m200 0 l-200 -200 -75 0 -75 0 200 200 200 200 75 0 75 0 -200 -200z
m200 0 l-200 -200 -75 0 -75 0 200 200 200 200 75 0 75 0 -200 -200z m200 0
l-200 -200 -75 0 -75 0 200 200 200 200 75 0 75 0 -200 -200z m200 0 l-200
-200 -75 0 -75 0 200 200 200 200 75 0 75 0 -200 -200z m200 0 l-200 -200 -75
0 -75 0 200 200 200 200 75 0 75 0 -200 -200z m200 0 l-200 -200 -75 0 -75 0
200 200 200 200 75 0 75 0 -200 -200z"/>
<path d="M3485 1630 c-1311 -1311 -1625 -1630 -1605 -1630 37 0 3243 3207
3238 3239 -2 17 -319 -295 -1633 -1609z"/>
<path d="M3585 1530 c-1231 -1231 -1525 -1530 -1505 -1530 37 0 3043 3007
3038 3039 -2 17 -300 -275 -1533 -1509z"/>
<path d="M3685 1430 c-1151 -1151 -1425 -1430 -1405 -1430 37 0 2843 2807
2838 2839 -2 17 -280 -256 -1433 -1409z"/>
<path d="M3785 1330 c-1071 -1071 -1325 -1330 -1305 -1330 37 0 2643 2607
2638 2639 -2 17 -260 -236 -1333 -1309z"/>
<path d="M3885 1230 c-991 -991 -1225 -1230 -1205 -1230 37 0 2443 2407 2438
2439 -2 17 -240 -216 -1233 -1209z"/>
<path d="M3985 1130 c-911 -911 -1125 -1130 -1105 -1130 37 0 2243 2207 2238
2239 -2 17 -221 -196 -1133 -1109z"/>
<path d="M4085 1030 c-831 -831 -1025 -1030 -1005 -1030 37 0 2043 2007 2038
2039 -2 17 -201 -177 -1033 -1009z"/>
<path d="M4185 930 c-751 -751 -925 -930 -905 -930 37 0 1843 1807 1838 1839
-2 17 -181 -157 -933 -909z"/>
<path d="M4285 830 c-671 -671 -825 -830 -805 -830 37 0 1643 1607 1638 1639
-2 17 -162 -137 -833 -809z"/>
<path d="M4385 730 c-591 -591 -725 -730 -705 -730 37 0 1443 1407 1438 1439
-2 17 -142 -118 -733 -709z"/>
<path d="M4485 630 c-511 -511 -625 -630 -605 -630 37 0 1243 1207 1238 1239
-2 17 -122 -98 -633 -609z"/>
<path d="M4585 530 c-431 -431 -525 -530 -505 -530 37 0 1043 1007 1038 1039
-2 17 -103 -78 -533 -509z"/>
<path d="M4685 430 c-351 -351 -425 -430 -405 -430 37 0 843 807 838 839 -2
17 -83 -59 -433 -409z"/>
<path d="M4785 330 c-271 -271 -325 -330 -305 -330 37 0 643 607 638 639 -2
17 -63 -39 -333 -309z"/>
<path d="M4885 230 c-191 -191 -226 -230 -205 -230 37 0 443 407 438 439 -2
18 -44 -19 -233 -209z"/>
</g>
</svg>
