<?xml version="1.0" standalone="no"?>
<!DOCTYPE svg PUBLIC "-//W3C//DTD SVG 20010904//EN"
 "http://www.w3.org/TR/2001/REC-SVG-20010904/DTD/svg10.dtd">
<svg version="1.0" xmlns="http://www.w3.org/2000/svg"
 width="256.000000pt" height="256.000000pt" viewBox="0 0 256.000000 256.000000"
 preserveAspectRatio="xMidYMid meet">
<metadata>
Created by potrace 1.16, written by Peter Selinger 2001-2019
</metadata>
<g transform="translate(0.000000,256.000000) scale(0.100000,-0.100000)"
fill="#000000" stroke="none">
<path d="M540 2385 l0 -175 65 0 65 0 0 55 0 55 45 0 45 0 0 -55 0 -55 65 0
65 0 0 175 0 175 -65 0 -65 0 0 -55 0 -55 -45 0 -45 0 0 55 0 55 -65 0 -65 0
0 -175z"/>
<path d="M920 2500 l0 -60 55 0 55 0 0 -115 0 -115 60 0 60 0 0 115 0 115 50
0 50 0 0 60 0 60 -165 0 -165 0 0 -60z"/>
<path d="M1290 2385 l0 -175 65 0 64 0 3 73 3 72 30 -47 c17 -27 33 -48 36
-48 4 0 22 24 40 52 l34 53 3 -78 3 -77 59 0 60 0 0 175 0 175 -65 0 -66 0
-31 -50 c-17 -27 -35 -47 -39 -44 -5 3 -20 25 -35 50 l-26 44 -69 0 -69 0 0
-175z"/>
<path d="M1740 2385 l0 -175 145 0 146 0 -3 63 -3 62 -77 3 -78 3 0 109 0 110
-65 0 -65 0 0 -175z"/>
<path d="M374 2003 c4 -32 29 -314 57 -628 28 -313 62 -705 77 -869 l27 -299
370 -104 370 -104 370 102 c204 56 373 104 376 108 7 6 10 35 84 866 25 281
54 608 65 727 11 119 20 226 20 237 l0 21 -911 0 -911 0 6 -57z m1472 -415
c-4 -57 -9 -111 -12 -120 -5 -17 -35 -18 -437 -18 l-432 0 9 -110 9 -110 413
0 414 0 0 -23 c0 -36 -59 -679 -62 -683 -8 -7 -444 -126 -463 -126 -25 0 -457
121 -467 130 -10 11 -38 346 -29 355 4 4 57 6 117 5 88 -2 109 -6 111 -18 1
-8 5 -49 8 -90 l6 -76 123 -33 122 -33 125 34 124 35 6 44 c4 24 10 88 14 142
l7 97 -391 0 c-215 0 -391 4 -391 8 0 4 -13 157 -30 340 -16 183 -30 335 -30
337 0 4 186 7 859 13 l284 2 -7 -102z"/>
</g>
</svg>
