<svg width="0" height="0" class="hidden">
  <symbol version="1.0" xmlns="http://www.w3.org/2000/svg" preserveAspectRatio="xMidYMid meet" viewBox="0 0 512.000000 512.000000" id="csharp">
    <metadata>Created by potrace 1.16, written by Peter Selinger 2001-2019</metadata>
    <g transform="translate(0.000000,512.000000) scale(0.100000,-0.100000)"  stroke="none">
      <path d="M2506 5058 c-32 -4 -83 -19 -114 -33 -30 -14 -57 -23 -60 -21 -5 6
-62 -22 -62 -30 0 -2 15 3 33 12 111 56 -88 -61 -883 -521 -492 -284 -902
-523 -911 -531 -19 -17 -33 -18 -23 -1 4 6 -9 -4 -29 -22 -36 -34 -47 -48 -27
-36 18 11 10 -10 -17 -40 l-26 -30 17 30 17 30 -20 -23 c-11 -13 -17 -30 -14
-39 4 -11 2 -14 -5 -9 -8 5 -10 1 -5 -10 5 -13 3 -15 -7 -9 -8 5 -11 4 -6 -3
3 -6 -1 -39 -9 -74 -13 -54 -15 -220 -15 -1138 0 -918 2 -1084 15 -1138 8 -35
12 -68 9 -74 -5 -7 -2 -8 6 -3 10 6 12 4 7 -9 -5 -11 -3 -15 5 -10 7 5 9 2 5
-9 -3 -9 3 -26 14 -39 l20 -23 -17 30 -17 30 26 -30 c28 -32 35 -51 14 -39 -6
4 4 -9 22 -29 34 -36 48 -47 36 -27 -10 17 2 12 47 -19 105 -72 1859 -1077
1907 -1094 61 -21 165 -24 233 -7 72 18 1908 1084 1980 1149 39 35 68 75 90
119 l33 67 0 1155 0 1155 -33 67 c-22 44 -51 83 -90 119 -42 38 -297 191 -972
581 -503 292 -934 539 -956 549 -55 25 -145 36 -218 27z m309 -1109 c50 -6
140 -24 200 -39 123 -31 291 -100 288 -118 -2 -6 3 -9 11 -6 20 8 153 -87 233
-166 155 -154 256 -350 288 -557 l7 -43 -391 0 c-304 0 -393 3 -396 13 -52
148 -87 204 -168 263 -90 66 -173 89 -327 89 -95 0 -137 -4 -177 -18 -29 -10
-58 -15 -64 -11 -8 5 -9 3 -4 -6 6 -10 4 -12 -9 -7 -9 4 -15 3 -12 -2 4 -5
-14 -21 -38 -35 -63 -37 -137 -122 -185 -215 -141 -271 -143 -781 -5 -1069 27
-55 56 -95 107 -146 39 -39 71 -74 71 -78 1 -3 5 -10 10 -15 5 -5 6 -3 2 5 -9
16 0 15 27 -2 97 -63 322 -82 448 -38 36 12 75 29 85 37 24 18 38 19 28 3 -4
-8 -3 -10 2 -5 5 5 9 14 9 19 0 6 6 13 14 16 8 3 11 0 7 -7 -12 -19 0 -12 20
11 19 22 19 23 -1 8 -11 -8 7 14 40 50 37 41 72 91 90 132 l30 67 392 1 392 0
-19 -68 c-26 -92 -94 -248 -108 -245 -6 2 -9 -3 -7 -10 16 -39 -185 -270 -308
-355 -206 -142 -418 -209 -738 -232 -392 -28 -756 62 -1009 251 -296 222 -463
562 -489 1001 -50 811 396 1404 1144 1523 101 16 392 18 510 4z m1284 -1086
c-10 -43 -18 -81 -19 -85 0 -5 29 -8 65 -8 l64 0 10 38 c6 20 15 58 22 85 l11
47 44 0 c24 0 44 -3 44 -7 0 -5 -7 -41 -17 -81 -13 -55 -19 -69 -25 -55 -7 16
-8 16 -5 -2 2 -16 11 -21 45 -23 l42 -3 0 -55 0 -54 -53 0 -54 0 -12 -52 c-6
-29 -14 -63 -17 -75 -6 -21 -3 -23 40 -23 l46 0 0 -50 0 -49 -57 -3 -57 -3
-24 -95 -23 -95 -45 3 c-24 2 -44 7 -44 11 0 3 9 40 20 81 11 41 20 81 20 88
0 8 -19 12 -64 12 l-63 0 -25 -92 -25 -93 -46 -3 c-26 -2 -47 1 -47 5 0 4 9
42 20 83 26 101 27 100 -20 100 l-40 0 0 55 0 54 57 3 58 3 12 50 c19 84 19
85 -32 85 l-45 0 0 55 0 55 60 0 59 0 10 38 c6 20 15 58 22 85 l11 47 48 0 47
0 -18 -77z"></path>
      <path d="M4036 2595 c-9 -35 -16 -67 -16 -70 0 -3 29 -5 64 -5 l64 0 16 65 c9
35 16 67 16 70 0 3 -29 5 -64 5 l-64 0 -16 -65z"></path>
      <path d="M4795 2560 c0 -619 1 -872 2 -563 2 310 2 816 0 1125 -1 310 -2 57
-2 -562z"></path>
      <path d="M325 2560 c0 -580 1 -818 2 -527 2 290 2 764 0 1055 -1 290 -2 52 -2
-528z"></path>
    </g>
  </symbol>
  <symbol version="1.0" xmlns="http://www.w3.org/2000/svg" preserveAspectRatio="xMidYMid meet" viewBox="0 0 256.000000 256.000000" id="css">
    <metadata>Created by potrace 1.16, written by Peter Selinger 2001-2019</metadata>
    <g transform="translate(0.000000,256.000000) scale(0.100000,-0.100000)" fill="#000000" stroke="none">
      <path d="M800 2245 l0 -155 130 0 130 0 0 55 0 55 -70 0 -70 0 0 45 0 45 70 0
70 0 0 55 0 55 -130 0 -130 0 0 -155z"></path>
      <path d="M1150 2344 c0 -54 2 -57 48 -99 l47 -44 -47 -1 -48 0 0 -55 0 -55
130 0 130 0 0 52 c0 49 -3 55 -47 100 l-47 48 47 0 47 0 0 55 0 55 -130 0
-130 0 0 -56z"></path>
      <path d="M1500 2343 c0 -54 3 -60 42 -100 l42 -43 -42 0 -42 0 0 -55 0 -55
130 0 130 0 0 52 c0 49 -3 55 -47 100 l-47 48 47 0 47 0 0 55 0 55 -130 0
-130 0 0 -57z"></path>
      <path d="M480 1943 c1 -40 147 -1604 151 -1608 2 -2 149 -43 327 -90 l322 -87
322 87 c178 47 325 88 327 90 4 4 150 1568 151 1608 0 16 -45 17 -800 17 -755
0 -800 -1 -800 -17z m1440 -140 c0 -28 -110 -1294 -115 -1328 l-5 -31 -253
-67 c-138 -37 -255 -68 -259 -67 -4 0 -9 43 -10 96 l-3 96 -199 59 c-110 33
-201 60 -202 62 -2 2 -8 57 -14 122 -6 66 -12 135 -15 153 l-4 32 104 0 104 0
7 -79 6 -79 104 -26 c57 -14 106 -26 109 -26 3 0 5 70 5 155 l0 155 -224 0
-224 0 -6 68 c-4 37 -8 81 -10 98 -4 25 0 34 17 41 12 6 119 50 237 99 l215
89 -245 5 -245 5 -7 60 c-4 33 -10 77 -13 98 l-5 37 255 0 255 0 0 95 0 95
320 0 c298 0 320 -1 320 -17z"></path>
    </g>
  </symbol>
  <symbol version="1.1" id="express" sodipodiDocname="84e30ea08b40da78f255ff2ef4e6cfe8.svg" xmlnsInkscape="http://www.inkscape.org/namespaces/inkscape" xmlnsSodipodi="http://sodipodi.sourceforge.net/DTD/sodipodi-0.dtd" xmlns="http://www.w3.org/2000/svg" xmlnsSvg="http://www.w3.org/2000/svg" viewBox="0 0 512 148.19111">
    <defs id="defs8"></defs>
    <sodipodi:namedview id="namedview6" pagecolor="#ffffff" bordercolor="#666666" borderopacity="1.0" inkscapePageshadow="2" inkscapePageopacity="0.0" inkscapePagecheckerboard="0"></sodipodi:namedview>
    <path fill="#222222" d="m 3.332,115.5818 v -56.981 h 71.144 v -3.333 H 3.332 V 3.2848 h 75.642 v -3.332 H 0 v 118.961 h 79.64 v -3.332 H 3.333 Z m 140.455,-82.307 -29.49,38.821 -28.825,-38.82 H 81.14 l 31.157,41.32 -34.157,44.317 h 3.999 l 32.156,-41.82 32.323,41.82 h 4.165 l -34.322,-44.319 31.323,-41.32 h -3.998 z m 16.994,114.963 v -53.315 h 0.333 c 2,7.775 5.943,14.023 11.83,18.744 5.887,4.72 13.384,7.081 22.492,7.081 5.887,0 11.108,-1.194 15.662,-3.582 4.554,-2.388 8.358,-5.637 11.413,-9.747 3.054,-4.11 5.387,-8.886 6.998,-14.329 1.61,-5.442 2.416,-11.163 2.416,-17.16 0,-6.443 -0.834,-12.386 -2.5,-17.828 -1.666,-5.443 -4.082,-10.164 -7.247,-14.162 -3.166,-3.999 -6.998,-7.11 -11.497,-9.33 -4.498,-2.222 -9.58,-3.333 -15.245,-3.333 -4.332,0 -8.358,0.639 -12.079,1.916 -3.721,1.278 -7.025,3.082 -9.913,5.415 a 36.674,36.674 0 0 0 -7.498,8.247 c -2.11,3.166 -3.721,6.637 -4.832,10.414 h -0.333 v -23.994 h -3.332 v 114.963 z m 34.655,-30.657 c -10.44,0 -18.827,-3.582 -25.158,-10.746 -6.331,-7.164 -9.497,-17.467 -9.497,-30.907 0,-5.554 0.778,-10.83 2.333,-15.828 1.555,-4.998 3.804,-9.386 6.747,-13.162 2.944,-3.777 6.582,-6.776 10.913,-8.997 4.332,-2.222 9.22,-3.333 14.662,-3.333 5.554,0 10.414,1.111 14.579,3.333 4.165,2.221 7.609,5.248 10.33,9.08 2.721,3.832 4.776,8.22 6.165,13.162 1.388,4.943 2.082,10.191 2.082,15.745 0,4.999 -0.638,9.97 -1.916,14.912 -1.277,4.943 -3.249,9.386 -5.915,13.33 -2.665,3.942 -6.08,7.163 -10.246,9.663 -4.166,2.499 -9.192,3.748 -15.079,3.748 z m 54.816,1.333 v -48.484 c 0,-4.665 0.666,-9.22 2,-13.662 1.332,-4.443 3.387,-8.359 6.164,-11.746 2.777,-3.388 6.303,-6.054 10.58,-7.998 4.276,-1.944 9.358,-2.749 15.245,-2.416 v -3.332 c -5.11,-0.11 -9.58,0.444 -13.412,1.666 -3.833,1.222 -7.137,2.888 -9.914,4.999 -2.777,2.11 -4.998,4.581 -6.664,7.414 a 33.15,33.15 0 0 0 -3.666,9.08 h -0.333 v -21.16 h -3.332 v 85.64 h 3.332 z m 38.154,-42.153 h 71.643 c 0.223,-5.887 -0.36,-11.551 -1.749,-16.994 -1.388,-5.443 -3.61,-10.275 -6.664,-14.495 -3.055,-4.221 -6.998,-7.609 -11.83,-10.164 -4.832,-2.555 -10.58,-3.832 -17.244,-3.832 -4.777,0 -9.442,1 -13.996,3 -4.554,1.999 -8.553,4.914 -11.996,8.746 -3.443,3.832 -6.22,8.525 -8.33,14.08 -2.11,5.553 -3.166,11.884 -3.166,18.993 0,6.331 0.722,12.246 2.166,17.744 1.444,5.498 3.665,10.275 6.664,14.329 3,4.054 6.86,7.192 11.58,9.413 4.72,2.222 10.413,3.277 17.078,3.166 9.774,0 17.994,-2.75 24.658,-8.247 6.665,-5.499 10.608,-13.246 11.83,-23.243 h -3.332 c -1.444,9.442 -5.138,16.523 -11.08,21.243 -5.943,4.721 -13.412,7.081 -22.41,7.081 -6.109,0 -11.274,-1.055 -15.495,-3.165 -4.22,-2.11 -7.664,-4.999 -10.33,-8.664 -2.665,-3.666 -4.637,-7.97 -5.914,-12.913 -1.278,-4.942 -1.972,-10.302 -2.083,-16.078 z m 68.311,-3.332 h -68.31 c 0.332,-5.998 1.443,-11.385 3.331,-16.161 1.889,-4.777 4.36,-8.859 7.415,-12.246 3.054,-3.388 6.609,-5.97 10.663,-7.748 4.054,-1.777 8.414,-2.666 13.079,-2.666 5.554,0 10.44,1.028 14.662,3.083 4.22,2.055 7.747,4.86 10.58,8.414 2.832,3.554 4.97,7.692 6.414,12.412 1.444,4.721 2.166,9.692 2.166,14.912 z m 72.477,-14.828 h 3.332 c 0,-9.553 -2.777,-16.495 -8.33,-20.827 -5.555,-4.332 -13.108,-6.498 -22.66,-6.498 -5.332,0 -9.83,0.667 -13.496,2 -3.665,1.332 -6.664,3.054 -8.997,5.164 -2.332,2.11 -3.998,4.443 -4.998,6.998 -1,2.555 -1.5,4.999 -1.5,7.331 0,4.665 0.833,8.386 2.5,11.163 1.666,2.777 4.276,4.943 7.83,6.498 2.444,1.11 5.22,2.11 8.331,3 3.11,0.888 6.72,1.832 10.83,2.831 3.665,0.89 7.275,1.778 10.83,2.666 3.554,0.889 6.692,2.083 9.413,3.582 2.722,1.5 4.943,3.416 6.665,5.749 1.721,2.332 2.582,5.387 2.582,9.163 0,3.666 -0.86,6.776 -2.582,9.33 a 20.815,20.815 0 0 1 -6.581,6.249 c -2.666,1.61 -5.638,2.776 -8.914,3.498 -3.277,0.722 -6.47,1.083 -9.58,1.083 -10.108,0 -17.856,-2.249 -23.243,-6.747 -5.387,-4.499 -8.08,-11.58 -8.08,-21.244 h -3.333 c 0,10.775 2.916,18.661 8.747,23.66 5.832,4.998 14.468,7.497 25.909,7.497 3.665,0 7.358,-0.417 11.08,-1.25 3.72,-0.833 7.053,-2.193 9.996,-4.082 a 22.592,22.592 0 0 0 7.164,-7.33 c 1.833,-3 2.75,-6.665 2.75,-10.997 0,-4.11 -0.806,-7.442 -2.416,-9.997 -1.611,-2.554 -3.721,-4.665 -6.332,-6.331 -2.61,-1.666 -5.553,-2.971 -8.83,-3.915 a 516.08,516.08 0 0 0 -9.914,-2.75 1726.675,1726.675 0 0 0 -12.246,-3.165 c -3.498,-0.889 -6.747,-1.944 -9.746,-3.166 -2.888,-1.222 -5.193,-2.971 -6.915,-5.248 -1.722,-2.277 -2.582,-5.526 -2.582,-9.747 0,-0.777 0.222,-2.166 0.666,-4.165 0.444,-2 1.5,-4.027 3.166,-6.082 1.666,-2.054 4.22,-3.887 7.664,-5.498 3.443,-1.61 8.164,-2.416 14.162,-2.416 4.11,0 7.858,0.445 11.246,1.333 3.388,0.889 6.304,2.305 8.747,4.249 2.444,1.944 4.332,4.415 5.665,7.414 1.333,3 2,6.665 2,10.997 z m 77.141,0 h 3.332 c 0,-9.553 -2.776,-16.495 -8.33,-20.827 -5.554,-4.332 -13.107,-6.498 -22.66,-6.498 -5.331,0 -9.83,0.667 -13.495,2 -3.666,1.332 -6.665,3.054 -8.997,5.164 -2.333,2.11 -3.999,4.443 -4.999,6.998 -1,2.555 -1.499,4.999 -1.499,7.331 0,4.665 0.833,8.386 2.5,11.163 1.665,2.777 4.276,4.943 7.83,6.498 2.444,1.11 5.22,2.11 8.33,3 3.11,0.888 6.72,1.832 10.83,2.831 3.666,0.89 7.276,1.778 10.83,2.666 3.555,0.889 6.692,2.083 9.414,3.582 2.721,1.5 4.943,3.416 6.664,5.749 1.722,2.332 2.583,5.387 2.583,9.163 0,3.666 -0.861,6.776 -2.583,9.33 a 20.815,20.815 0 0 1 -6.58,6.249 c -2.667,1.61 -5.638,2.776 -8.915,3.498 -3.276,0.722 -6.47,1.083 -9.58,1.083 -10.108,0 -17.855,-2.249 -23.242,-6.747 -5.388,-4.499 -8.081,-11.58 -8.081,-21.244 h -3.332 c 0,10.775 2.915,18.661 8.747,23.66 5.831,4.998 14.467,7.497 25.908,7.497 3.666,0 7.359,-0.417 11.08,-1.25 3.72,-0.833 7.053,-2.193 9.997,-4.082 a 22.592,22.592 0 0 0 7.164,-7.33 c 1.833,-3 2.749,-6.665 2.749,-10.997 0,-4.11 -0.805,-7.442 -2.416,-9.997 -1.61,-2.554 -3.72,-4.665 -6.331,-6.331 -2.61,-1.666 -5.554,-2.971 -8.83,-3.915 a 516.071,516.071 0 0 0 -9.914,-2.75 1726.65,1726.65 0 0 0 -12.246,-3.165 c -3.499,-0.889 -6.748,-1.944 -9.747,-3.166 -2.888,-1.222 -5.193,-2.971 -6.914,-5.248 -1.722,-2.277 -2.583,-5.526 -2.583,-9.747 0,-0.777 0.222,-2.166 0.667,-4.165 0.444,-2 1.5,-4.027 3.165,-6.082 1.666,-2.054 4.221,-3.887 7.664,-5.498 3.444,-1.61 8.164,-2.416 14.163,-2.416 4.11,0 7.858,0.445 11.246,1.333 3.388,0.889 6.303,2.305 8.747,4.249 2.444,1.944 4.332,4.415 5.665,7.414 1.333,3 2,6.665 2,10.997 z" id="path2"></path>
  </symbol>
  <symbol enable-background="new 0 0 24 24" version="1.1" id="figma" sodipodiDocname="c205f326b2a49dd3454c8258abd24c5c.svg" xmlnsInkscape="http://www.inkscape.org/namespaces/inkscape" xmlnsSodipodi="http://sodipodi.sourceforge.net/DTD/sodipodi-0.dtd" xmlns="http://www.w3.org/2000/svg" xmlnsSvg="http://www.w3.org/2000/svg" viewBox="0 0 16 24">
    <defs id="defs16"></defs>
    <sodipodi:namedview id="namedview14" pagecolor="#ffffff" bordercolor="#666666" borderopacity="1.0" inkscapePageshadow="2" inkscapePageopacity="0.0" inkscapePagecheckerboard="0"></sodipodi:namedview>
    <path fill="#0acf83" d="m 4,24 c 2.208,0 4,-1.792 4,-4 V 16 H 4 c -2.208,0 -4,1.792 -4,4 0,2.208 1.792,4 4,4 z" id="path2"></path>
    <path fill="#a259ff" d="M 0,12 C 0,9.792 1.792,8 4,8 h 4 v 8 H 4 C 1.792,16 0,14.208 0,12 Z" id="path4"></path>
    <path fill="#f24e1e" d="M 0,4 C 0,1.792 1.792,0 4,0 H 8 V 8 H 4 C 1.792,8 0,6.208 0,4 Z" id="path6"></path>
    <path fill="#ff7262" d="m 8,0 h 4 c 2.208,0 4,1.792 4,4 0,2.208 -1.792,4 -4,4 H 8 Z" id="path8"></path>
    <path fill="#1abcfe" d="m 16,12 c 0,2.208 -1.792,4 -4,4 -2.208,0 -4,-1.792 -4,-4 0,-2.208 1.792,-4 4,-4 2.208,0 4,1.792 4,4 z" id="path10"></path>
  </symbol>
  <symbol version="1.1" id="github-brands" sodipodiDocname="fc2b687091f3dbd548619d73fbff693f.svg" xmlnsInkscape="http://www.inkscape.org/namespaces/inkscape" xmlnsSodipodi="http://sodipodi.sourceforge.net/DTD/sodipodi-0.dtd" xmlns="http://www.w3.org/2000/svg" xmlnsSvg="http://www.w3.org/2000/svg" viewBox="0 0 0 0">
    <defs id="defs9"></defs>
    <sodipodi:namedview id="namedview7" pagecolor="#ffffff" bordercolor="#666666" borderopacity="1.0" inkscapePageshadow="2" inkscapePageopacity="0.0" inkscapePagecheckerboard="0"></sodipodi:namedview>
    <symbol viewBox="0 0 496 512" id="github-brands">
      <path d="M165.9 397.4c0 2-2.3 3.6-5.2 3.6-3.3.3-5.6-1.3-5.6-3.6 0-2 2.3-3.6 5.2-3.6 3-.3 5.6 1.3 5.6 3.6zm-31.1-4.5c-.7 2 1.3 4.3 4.3 4.9 2.6 1 5.6 0 6.2-2s-1.3-4.3-4.3-5.2c-2.6-.7-5.5.3-6.2 2.3zm44.2-1.7c-2.9.7-4.9 2.6-4.6 4.9.3 2 2.9 3.3 5.9 2.6 2.9-.7 4.9-2.6 4.6-4.6-.3-1.9-3-3.2-5.9-2.9zM244.8 8C106.1 8 0 113.3 0 252c0 110.9 69.8 205.8 169.5 239.2 12.8 2.3 17.3-5.6 17.3-12.1 0-6.2-.3-40.4-.3-61.4 0 0-70 15-84.7-29.8 0 0-11.4-29.1-27.8-36.6 0 0-22.9-15.7 1.6-15.4 0 0 24.9 2 38.6 25.8 21.9 38.6 58.6 27.5 72.9 20.9 2.3-16 8.8-27.1 16-33.7-55.9-6.2-112.3-14.3-112.3-110.5 0-27.5 7.6-41.3 23.6-58.9-2.6-6.5-11.1-33.3 2.6-67.9 20.9-6.5 69 27 69 27 20-5.6 41.5-8.5 62.8-8.5s42.8 2.9 62.8 8.5c0 0 48.1-33.6 69-27 13.7 34.7 5.2 61.4 2.6 67.9 16 17.7 25.8 31.5 25.8 58.9 0 96.5-58.9 104.2-114.8 110.5 9.2 7.9 17 22.9 17 46.4 0 33.7-.3 75.4-.3 83.6 0 6.5 4.6 14.4 17.3 12.1C428.2 457.8 496 362.9 496 252 496 113.3 383.5 8 244.8 8zM97.2 352.9c-1.3 1-1 3.3.7 5.2 1.6 1.6 3.9 2.3 5.2 1 1.3-1 1-3.3-.7-5.2-1.6-1.6-3.9-2.3-5.2-1zm-10.8-8.1c-.7 1.3.3 2.9 2.3 3.9 1.6 1 3.6.7 4.3-.7.7-1.3-.3-2.9-2.3-3.9-2-.6-3.6-.3-4.3.7zm32.4 35.6c-1.6 1.3-1 4.3 1.3 6.2 2.3 2.3 5.2 2.6 6.5 1 1.3-1.3.7-4.3-1.3-6.2-2.2-2.3-5.2-2.6-6.5-1zm-11.4-14.7c-1.6 1-1.6 3.6 0 5.9 1.6 2.3 4.3 3.3 5.6 2.3 1.6-1.3 1.6-3.9 0-6.2-1.4-2.3-4-3.3-5.6-2z" id="path2"></path>
    </symbol>
  </symbol>
  <symbol version="1.0" xmlns="http://www.w3.org/2000/svg" preserveAspectRatio="xMidYMid meet" viewBox="0 0 512.000000 512.000000" id="hamburger">
    <metadata>Created by potrace 1.16, written by Peter Selinger 2001-2019</metadata>
    <g transform="translate(0.000000,512.000000) scale(0.100000,-0.100000)" fill="#000000" stroke="none">
      <path d="M187 4932 c-147 -147 -188 -194 -185 -211 2 -18 40 15 213 189 175
175 206 210 185 210 -19 0 -69 -44 -213 -188z"></path>
      <path d="M287 4832 c-227 -227 -288 -294 -285 -311 2 -17 59 35 313 289 255
255 305 310 285 310 -20 0 -89 -64 -313 -288z"></path>
      <path d="M387 4732 c-307 -307 -388 -393 -385 -411 2 -17 79 55 413 389 335
335 405 410 385 410 -20 0 -109 -84 -413 -388z"></path>
      <path d="M487 4632 c-388 -388 -488 -493 -485 -511 2 -17 99 74 513 489 415
415 505 510 485 510 -20 0 -129 -104 -513 -488z"></path>
      <path d="M587 4532 c-468 -468 -588 -593 -585 -611 2 -17 118 94 613 589 495
495 605 610 585 610 -20 0 -149 -124 -613 -588z"></path>
      <path d="M687 4432 c-548 -548 -688 -693 -685 -711 2 -17 138 114 713 689 575
575 705 710 685 710 -20 0 -169 -144 -713 -688z"></path>
      <path d="M787 4332 c-629 -629 -788 -793 -785 -811 2 -17 158 133 813 789 655
655 805 810 785 810 -20 0 -189 -164 -813 -788z"></path>
      <path d="M887 4232 c-709 -709 -888 -893 -885 -911 2 -17 177 153 913 889 735
735 905 910 885 910 -20 0 -209 -184 -913 -888z"></path>
      <path d="M987 4132 c-789 -789 -988 -993 -985 -1011 2 -17 197 173 1013 989
815 815 1005 1010 985 1010 -20 0 -229 -204 -1013 -988z"></path>
      <path d="M1087 4032 c-870 -870 -1088 -1093 -1085 -1111 2 -17 217 193 1113
1089 895 895 1105 1110 1085 1110 -20 0 -249 -224 -1113 -1088z"></path>
      <path d="M1187 3932 c-950 -950 -1188 -1193 -1185 -1211 2 -17 237 212 1213
1189 975 975 1205 1210 1185 1210 -20 0 -269 -244 -1213 -1188z"></path>
      <path d="M1287 3832 c-1030 -1030 -1288 -1293 -1285 -1311 2 -17 256 232 1313
1289 1055 1055 1305 1310 1285 1310 -20 0 -289 -264 -1313 -1288z"></path>
      <path d="M1387 3732 c-1110 -1110 -1388 -1393 -1385 -1411 2 -17 276 252 1413
1389 1135 1135 1405 1410 1385 1410 -20 0 -309 -284 -1413 -1388z"></path>
      <path d="M1487 3632 c-1191 -1191 -1488 -1493 -1485 -1511 2 -17 296 271 1513
1489 1215 1215 1505 1510 1485 1510 -20 0 -329 -304 -1513 -1488z"></path>
      <path d="M1587 3532 c-1271 -1271 -1588 -1593 -1585 -1611 2 -17 315 291 1613
1589 1295 1295 1605 1610 1585 1610 -20 0 -349 -324 -1613 -1588z"></path>
      <path d="M1687 3432 c-1351 -1351 -1688 -1693 -1685 -1711 2 -17 335 311 1713
1689 1375 1375 1705 1710 1685 1710 -20 0 -369 -344 -1713 -1688z"></path>
      <path d="M2655 4200 l-920 -920 -68 0 c-65 0 -71 -2 -103 -34 -37 -37 -44 -74
-22 -121 12 -26 -5 -43 -765 -803 -614 -614 -777 -782 -777 -802 0 -20 152
127 793 765 l792 790 68 -5 67 -5 -860 -860 c-681 -681 -860 -865 -860 -885 0
-20 171 146 888 863 l887 887 75 0 75 0 -963 -963 c-762 -762 -962 -967 -962
-987 0 -20 192 167 988 963 l987 987 75 0 75 0 -200 -200 -200 -200 -56 0
c-99 0 -157 -63 -132 -144 l10 -34 -773 -773 c-613 -613 -774 -779 -774 -799
0 -20 151 126 789 764 719 719 790 787 809 777 11 -6 40 -11 64 -11 l43 0
-853 -853 c-674 -674 -852 -857 -852 -877 0 -20 170 145 878 853 l877 877 75
0 75 0 -953 -953 c-754 -754 -952 -957 -952 -977 0 -20 190 165 978 953 l977
977 75 0 75 0 -200 -200 -200 -200 -53 0 c-87 0 -131 -48 -118 -128 l6 -38
-770 -769 c-609 -609 -770 -775 -770 -795 0 -20 150 125 784 759 714 714 785
782 804 772 11 -6 40 -11 64 -11 l43 0 -848 -848 c-670 -670 -847 -852 -847
-872 0 -20 169 144 873 848 l872 872 75 0 75 0 -920 -920 c-743 -743 -915
-920 -895 -920 20 0 216 191 945 920 l920 920 75 0 75 0 -920 -920 c-743 -743
-915 -920 -895 -920 20 0 216 191 945 920 l920 920 75 0 75 0 -920 -920 c-743
-743 -915 -920 -895 -920 20 0 216 191 945 920 l920 920 75 0 75 0 -920 -920
c-743 -743 -915 -920 -895 -920 20 0 216 191 945 920 l920 920 75 0 75 0 -920
-920 c-743 -743 -915 -920 -895 -920 20 0 216 191 945 920 l920 920 75 0 75 0
-920 -920 c-743 -743 -915 -920 -895 -920 20 0 216 191 945 920 l920 920 75 0
75 0 -920 -920 c-743 -743 -915 -920 -895 -920 20 0 216 191 945 920 l920 920
75 0 75 0 -920 -920 c-743 -743 -915 -920 -895 -920 20 0 216 191 945 920
l920 920 75 0 75 0 -920 -920 c-742 -742 -915 -920 -895 -920 37 0 3440 3403
3440 3440 0 20 -146 -121 -764 -739 -746 -746 -763 -762 -769 -732 -4 17 -15
39 -25 49 -19 19 -7 32 769 808 625 625 789 794 789 814 0 20 -155 -130 -808
-783 l-807 -807 -75 0 -75 0 883 883 c698 698 882 887 882 907 0 20 -176 -151
-908 -883 l-907 -907 -75 0 -75 0 983 983 c778 778 982 987 982 1007 0 20
-147 -122 -764 -739 l-763 -763 -6 37 c-3 21 -13 45 -21 54 -14 15 53 85 769
801 621 621 785 790 785 810 0 20 -153 -128 -802 -775 l-803 -800 -68 5 -67 5
870 870 c689 689 870 875 870 895 0 20 -173 -148 -898 -873 l-897 -897 -75 0
-75 0 973 973 c770 770 972 977 972 997 0 20 -148 -123 -768 -743 -707 -707
-768 -765 -764 -732 3 22 -2 45 -13 61 l-17 27 781 781 c617 617 781 786 781
806 0 20 -153 -128 -797 -770 l-798 -795 -68 5 -67 5 865 865 c685 685 865
870 865 890 0 20 -172 -147 -893 -868 l-892 -892 -75 0 -75 0 920 920 c743
743 915 920 895 920 -20 0 -216 -191 -945 -920 l-920 -920 -75 0 -75 0 920
920 c743 743 915 920 895 920 -20 0 -216 -191 -945 -920 l-920 -920 -75 0 -75
0 920 920 c743 743 915 920 895 920 -20 0 -216 -191 -945 -920 l-920 -920 -75
0 -75 0 920 920 c743 743 915 920 895 920 -20 0 -216 -191 -945 -920 l-920
-920 -75 0 -75 0 920 920 c743 743 915 920 895 920 -20 0 -216 -191 -945 -920
l-920 -920 -75 0 -75 0 920 920 c743 743 915 920 895 920 -20 0 -216 -191
-945 -920 l-920 -920 -75 0 -75 0 920 920 c743 743 915 920 895 920 -20 0
-216 -191 -945 -920 l-920 -920 -75 0 -75 0 920 920 c743 743 915 920 895 920
-20 0 -216 -191 -945 -920z m675 -1325 l-205 -205 -75 0 -75 0 200 200 199
199 76 4 c41 1 77 4 80 5 3 1 -87 -90 -200 -203z m-1205 -5 l-200 -200 -75 0
-75 0 200 200 200 200 75 0 75 0 -200 -200z m200 0 l-200 -200 -75 0 -75 0
200 200 200 200 75 0 75 0 -200 -200z m200 0 l-200 -200 -75 0 -75 0 200 200
200 200 75 0 75 0 -200 -200z m200 0 l-200 -200 -75 0 -75 0 200 200 200 200
75 0 75 0 -200 -200z m200 0 l-200 -200 -75 0 -75 0 200 200 200 200 75 0 75
0 -200 -200z m200 0 l-200 -200 -75 0 -75 0 200 200 200 200 75 0 75 0 -200
-200z m-1020 -620 l-200 -200 -75 0 -75 0 200 200 200 200 75 0 75 0 -200
-200z m200 0 l-200 -200 -75 0 -75 0 200 200 200 200 75 0 75 0 -200 -200z
m200 0 l-200 -200 -75 0 -75 0 200 200 200 200 75 0 75 0 -200 -200z m200 0
l-200 -200 -75 0 -75 0 200 200 200 200 75 0 75 0 -200 -200z m200 0 l-200
-200 -75 0 -75 0 200 200 200 200 75 0 75 0 -200 -200z m200 0 l-200 -200 -75
0 -75 0 200 200 200 200 75 0 75 0 -200 -200z m200 0 l-200 -200 -75 0 -75 0
200 200 200 200 75 0 75 0 -200 -200z"></path>
      <path d="M3485 1630 c-1311 -1311 -1625 -1630 -1605 -1630 37 0 3243 3207
3238 3239 -2 17 -319 -295 -1633 -1609z"></path>
      <path d="M3585 1530 c-1231 -1231 -1525 -1530 -1505 -1530 37 0 3043 3007
3038 3039 -2 17 -300 -275 -1533 -1509z"></path>
      <path d="M3685 1430 c-1151 -1151 -1425 -1430 -1405 -1430 37 0 2843 2807
2838 2839 -2 17 -280 -256 -1433 -1409z"></path>
      <path d="M3785 1330 c-1071 -1071 -1325 -1330 -1305 -1330 37 0 2643 2607
2638 2639 -2 17 -260 -236 -1333 -1309z"></path>
      <path d="M3885 1230 c-991 -991 -1225 -1230 -1205 -1230 37 0 2443 2407 2438
2439 -2 17 -240 -216 -1233 -1209z"></path>
      <path d="M3985 1130 c-911 -911 -1125 -1130 -1105 -1130 37 0 2243 2207 2238
2239 -2 17 -221 -196 -1133 -1109z"></path>
      <path d="M4085 1030 c-831 -831 -1025 -1030 -1005 -1030 37 0 2043 2007 2038
2039 -2 17 -201 -177 -1033 -1009z"></path>
      <path d="M4185 930 c-751 -751 -925 -930 -905 -930 37 0 1843 1807 1838 1839
-2 17 -181 -157 -933 -909z"></path>
      <path d="M4285 830 c-671 -671 -825 -830 -805 -830 37 0 1643 1607 1638 1639
-2 17 -162 -137 -833 -809z"></path>
      <path d="M4385 730 c-591 -591 -725 -730 -705 -730 37 0 1443 1407 1438 1439
-2 17 -142 -118 -733 -709z"></path>
      <path d="M4485 630 c-511 -511 -625 -630 -605 -630 37 0 1243 1207 1238 1239
-2 17 -122 -98 -633 -609z"></path>
      <path d="M4585 530 c-431 -431 -525 -530 -505 -530 37 0 1043 1007 1038 1039
-2 17 -103 -78 -533 -509z"></path>
      <path d="M4685 430 c-351 -351 -425 -430 -405 -430 37 0 843 807 838 839 -2
17 -83 -59 -433 -409z"></path>
      <path d="M4785 330 c-271 -271 -325 -330 -305 -330 37 0 643 607 638 639 -2
17 -63 -39 -333 -309z"></path>
      <path d="M4885 230 c-191 -191 -226 -230 -205 -230 37 0 443 407 438 439 -2
18 -44 -19 -233 -209z"></path>
    </g>
  </symbol>
  <symbol version="1.0" xmlns="http://www.w3.org/2000/svg" preserveAspectRatio="xMidYMid meet" viewBox="0 0 256.000000 256.000000" id="html">
    <metadata>Created by potrace 1.16, written by Peter Selinger 2001-2019</metadata>
    <g transform="translate(0.000000,256.000000) scale(0.100000,-0.100000)" fill="#000000" stroke="none">
      <path d="M540 2385 l0 -175 65 0 65 0 0 55 0 55 45 0 45 0 0 -55 0 -55 65 0
65 0 0 175 0 175 -65 0 -65 0 0 -55 0 -55 -45 0 -45 0 0 55 0 55 -65 0 -65 0
0 -175z"></path>
      <path d="M920 2500 l0 -60 55 0 55 0 0 -115 0 -115 60 0 60 0 0 115 0 115 50
0 50 0 0 60 0 60 -165 0 -165 0 0 -60z"></path>
      <path d="M1290 2385 l0 -175 65 0 64 0 3 73 3 72 30 -47 c17 -27 33 -48 36
-48 4 0 22 24 40 52 l34 53 3 -78 3 -77 59 0 60 0 0 175 0 175 -65 0 -66 0
-31 -50 c-17 -27 -35 -47 -39 -44 -5 3 -20 25 -35 50 l-26 44 -69 0 -69 0 0
-175z"></path>
      <path d="M1740 2385 l0 -175 145 0 146 0 -3 63 -3 62 -77 3 -78 3 0 109 0 110
-65 0 -65 0 0 -175z"></path>
      <path d="M374 2003 c4 -32 29 -314 57 -628 28 -313 62 -705 77 -869 l27 -299
370 -104 370 -104 370 102 c204 56 373 104 376 108 7 6 10 35 84 866 25 281
54 608 65 727 11 119 20 226 20 237 l0 21 -911 0 -911 0 6 -57z m1472 -415
c-4 -57 -9 -111 -12 -120 -5 -17 -35 -18 -437 -18 l-432 0 9 -110 9 -110 413
0 414 0 0 -23 c0 -36 -59 -679 -62 -683 -8 -7 -444 -126 -463 -126 -25 0 -457
121 -467 130 -10 11 -38 346 -29 355 4 4 57 6 117 5 88 -2 109 -6 111 -18 1
-8 5 -49 8 -90 l6 -76 123 -33 122 -33 125 34 124 35 6 44 c4 24 10 88 14 142
l7 97 -391 0 c-215 0 -391 4 -391 8 0 4 -13 157 -30 340 -16 183 -30 335 -30
337 0 4 186 7 859 13 l284 2 -7 -102z"></path>
    </g>
  </symbol>
  <symbol version="1.0" xmlns="http://www.w3.org/2000/svg" preserveAspectRatio="xMidYMid meet" viewBox="0 0 512.000000 512.000000" id="java">
    <metadata>Created by potrace 1.16, written by Peter Selinger 2001-2019</metadata>
    <g transform="translate(0.000000,512.000000) scale(0.100000,-0.100000)" fill="#000000" stroke="none">
      <path d="M2903 5084 c3 -4 0 -13 -8 -21 -8 -8 -15 -22 -14 -31 0 -14 2 -13 8
3 11 27 21 -37 21 -131 0 -120 -43 -230 -135 -345 -68 -84 -222 -221 -189
-168 17 27 -241 -186 -326 -269 -52 -52 -89 -91 -82 -87 18 9 15 -10 -5 -26
-15 -12 -16 -12 -8 1 8 13 7 13 -8 1 -18 -15 -23 -26 -7 -16 14 9 13 7 -20
-59 -24 -47 -30 -72 -30 -122 0 -131 75 -257 279 -469 75 -77 105 -111 67 -75
-169 162 -248 255 -306 360 -16 30 -30 50 -30 44 0 -15 64 -120 112 -181 63
-83 304 -316 327 -318 11 -1 23 5 25 12 3 8 2 12 -3 8 -5 -3 -21 16 -35 41
-30 53 -31 58 -13 48 7 -4 9 -3 4 2 -5 5 -14 9 -19 9 -6 0 -13 6 -16 14 -3 9
0 11 8 6 9 -5 11 -4 6 4 -4 6 -11 9 -16 6 -14 -9 -157 221 -180 291 -30 88
-25 185 13 268 15 31 31 55 36 52 5 -4 13 -1 17 5 4 8 3 9 -4 5 -7 -4 -12 -3
-12 2 0 18 115 134 220 222 60 50 146 130 191 178 46 48 73 74 62 57 -28 -40
-187 -193 -298 -286 -50 -42 -106 -96 -124 -120 l-33 -44 42 48 c23 26 79 77
124 114 97 80 255 232 299 288 18 21 26 36 20 32 -7 -5 -13 -4 -13 2 0 5 5 13
10 16 6 4 25 31 41 61 18 31 35 51 41 47 7 -4 8 -1 4 6 -5 7 1 34 13 60 52
121 49 259 -7 366 -36 68 -37 69 -21 60 8 -5 5 1 -5 13 -11 12 -21 22 -24 22
-3 0 -3 -3 1 -6z"></path>
      <path d="M3289 4374 c8 -4 -31 -23 -93 -44 -132 -47 -269 -112 -354 -167 -68
-45 -77 -49 -67 -33 10 16 -1 11 -16 -7 -12 -15 -12 -16 1 -8 13 8 13 7 1 -8
-16 -20 -35 -23 -26 -4 4 6 -23 -18 -58 -55 -36 -37 -71 -77 -77 -90 -8 -16
-4 -14 12 7 12 17 45 53 72 80 l49 50 -52 -59 c-28 -32 -59 -72 -67 -88 -8
-16 -20 -26 -26 -22 -7 4 -8 3 -4 -5 4 -6 0 -32 -10 -56 -12 -34 -15 -64 -12
-127 6 -89 26 -147 78 -225 33 -48 36 -58 18 -47 -7 4 3 -12 23 -37 20 -24 43
-57 52 -74 9 -16 16 -25 17 -20 0 10 -14 33 -58 97 -20 28 -18 27 12 -7 87
-97 87 -221 1 -320 l-27 -30 22 35 22 35 -24 -27 c-25 -30 -33 -64 -17 -74 5
-3 8 0 7 7 -2 6 3 14 11 17 9 3 11 0 6 -9 -5 -8 -4 -11 1 -6 5 5 9 12 9 17 0
4 28 29 63 55 143 108 201 228 165 343 -9 31 -17 62 -18 69 0 6 -4 15 -9 20
-5 4 -6 3 -2 -4 4 -7 5 -13 3 -13 -9 0 -79 102 -115 169 -80 146 -35 254 176
418 74 58 313 214 345 226 16 6 8 13 -23 21 -14 3 -19 3 -11 0z"></path>
      <path d="M3619 3216 c-2 -3 -52 -6 -111 -8 -58 -2 -102 -6 -96 -9 5 -3 2 -9
-7 -13 -24 -9 -27 -8 -19 7 4 7 3 9 -2 4 -5 -5 -7 -10 -4 -12 3 -1 -3 -12 -13
-23 -19 -21 -16 -42 6 -42 8 0 8 3 -2 9 -20 13 82 35 126 26 57 -10 109 -41
140 -82 25 -32 28 -45 28 -107 0 -87 -18 -126 -94 -208 -59 -64 -138 -123
-241 -182 -57 -32 -59 -26 -4 12 11 7 7 7 -11 -2 -17 -8 -39 -24 -50 -37 -11
-12 -15 -19 -8 -16 6 4 13 3 15 -3 4 -11 186 49 260 86 242 123 348 299 269
451 -26 51 -65 86 -131 118 -37 18 -45 25 -25 21 22 -5 26 -4 15 4 -16 10 -34
13 -41 6z"></path>
      <path d="M1995 3169 c-27 -5 -63 -7 -80 -5 -16 2 -21 1 -10 -1 13 -3 -11 -14
-64 -29 -104 -31 -222 -79 -256 -106 -14 -10 -26 -29 -26 -41 -1 -18 -2 -19
-6 -4 -6 24 27 60 78 82 21 10 37 20 35 22 -7 8 -81 -35 -104 -60 -23 -24 -27
-62 -7 -62 6 0 21 -8 35 -17 30 -20 115 -42 230 -60 137 -21 777 -18 955 5
231 30 331 54 413 99 40 22 78 38 85 35 8 -3 14 3 14 14 1 11 -1 17 -5 15 -12
-7 -278 -44 -432 -60 -431 -45 -994 -36 -1026 15 -3 5 7 4 21 -1 15 -6 34 -10
43 -9 9 0 2 5 -15 10 -18 5 -33 14 -33 20 0 6 -6 7 -12 4 -7 -4 -3 3 10 14 29
25 155 74 254 98 43 10 78 21 78 26 0 9 -111 7 -175 -4z"></path>
      <path d="M1970 2789 c-12 -8 -9 -9 10 -4 14 3 0 -6 -30 -20 -30 -14 -62 -33
-72 -42 -10 -9 -21 -14 -24 -10 -3 3 18 19 48 36 29 17 48 31 42 31 -14 0
-100 -55 -109 -71 -6 -8 -4 -10 5 -4 8 5 11 3 8 -6 -3 -8 -11 -14 -19 -14 -8
0 -15 -11 -16 -25 l-2 -25 8 25 c6 16 9 19 10 8 1 -9 4 -24 8 -34 5 -13 3 -15
-8 -9 -8 5 -3 -4 11 -19 26 -29 78 -61 86 -53 3 2 -9 10 -25 17 -16 6 -38 21
-48 32 -14 16 -9 14 21 -6 47 -31 133 -59 241 -77 121 -21 518 -18 670 4 136
20 375 75 375 86 0 5 -19 17 -42 27 -23 10 -55 29 -70 42 l-28 23 -127 -20
c-267 -42 -477 -51 -716 -30 -175 15 -228 46 -175 101 14 15 17 16 8 3 -15
-20 -15 -20 8 -1 12 11 19 23 15 27 -16 14 -48 18 -63 8z"></path>
      <path d="M2087 2423 c9 -6 -3 -15 -38 -27 -28 -10 -65 -30 -82 -44 l-32 -26
23 26 c13 15 37 32 53 39 16 6 28 14 25 16 -8 8 -61 -25 -91 -58 -16 -17 -25
-29 -19 -26 6 3 10 -7 10 -28 0 -21 -4 -31 -10 -27 -6 3 -5 -2 2 -11 8 -9 19
-15 25 -14 6 1 11 -3 12 -10 0 -7 6 -18 14 -25 11 -11 13 -11 6 1 -5 9 -3 12
6 9 8 -3 13 -10 12 -16 -2 -7 4 -9 14 -5 12 5 14 3 8 -7 -5 -8 -4 -11 3 -6 6
3 38 -2 71 -14 158 -53 443 -66 658 -30 115 19 343 85 343 99 0 4 -44 28 -97
54 l-98 48 -130 -22 c-219 -38 -645 -23 -692 23 -15 15 -8 48 10 48 7 0 7 -4
-1 -12 -7 -7 -12 -16 -12 -22 0 -5 6 -1 14 9 17 24 15 57 -4 62 -11 3 -12 2
-3 -4z"></path>
      <path d="M1630 2161 c17 -2 1 -9 -50 -22 -78 -20 -212 -79 -243 -106 -9 -9
-20 -14 -23 -10 -3 3 15 17 40 32 25 15 46 29 46 32 0 10 -81 -42 -102 -65
-13 -14 -17 -22 -9 -17 9 5 12 3 9 -6 -3 -8 -11 -14 -19 -14 -8 0 -15 -11 -16
-25 l-2 -25 8 25 c6 16 9 19 10 8 1 -9 4 -24 8 -34 5 -13 3 -15 -8 -9 -12 8
-12 6 0 -9 8 -9 24 -22 35 -27 17 -8 16 -6 -4 11 l-25 21 43 -21 c72 -35 335
-75 651 -100 175 -13 654 -13 818 1 400 32 740 114 839 202 32 28 48 26 22 -2
-10 -11 -10 -12 -1 -7 7 4 18 16 24 28 8 15 8 19 0 14 -14 -9 -14 -4 -1 29 5
14 6 24 1 21 -10 -6 -44 28 -36 36 3 3 -2 11 -10 18 -23 19 -40 -2 -37 -45 2
-30 -2 -38 -30 -55 -18 -11 -28 -20 -22 -20 6 0 24 10 39 21 20 17 26 28 23
50 -3 15 -1 26 4 23 16 -10 7 -51 -16 -73 -134 -126 -1200 -195 -1782 -116
-174 24 -304 62 -304 90 0 18 27 38 40 30 6 -4 9 -1 8 6 -4 17 144 67 221 75
34 4 61 11 61 15 0 5 -5 9 -11 9 -5 0 -8 3 -6 8 3 4 -45 7 -107 7 -61 0 -100
-2 -86 -4z"></path>
      <path d="M3780 1938 c-38 -33 -20 -28 20 6 l25 21 -25 -28 c-93 -105 -512
-204 -1010 -238 -294 -20 -924 2 -1031 36 -19 6 -34 -21 -17 -31 7 -4 8 -3 4
4 -9 15 -6 15 36 -3 204 -85 920 -110 1397 -50 157 20 297 50 398 86 46 16 89
27 95 23 7 -5 8 -3 3 6 -6 10 -4 12 7 7 9 -3 24 1 35 9 17 14 16 14 -7 4 l-25
-11 25 20 c28 23 44 27 35 9 -4 -7 16 10 44 39 28 28 51 57 51 65 0 7 -8 0
-19 -17 -10 -16 -31 -41 -47 -55 -26 -22 -26 -21 3 10 36 39 60 97 47 110 -5
5 -25 -5 -44 -22z"></path>
      <path d="M1368 862 l-3 -549 -30 -49 c-18 -29 -50 -61 -77 -79 -26 -16 -47
-34 -47 -39 -1 -5 16 -27 36 -50 29 -32 45 -41 69 -41 18 0 30 4 26 9 -3 5 2
7 10 3 18 -6 47 11 102 62 40 37 96 117 96 135 0 6 -13 -12 -29 -39 -30 -53
-101 -125 -142 -144 -23 -11 -23 -11 1 6 60 41 128 122 151 179 l24 59 3 543
3 542 -95 0 -95 0 -3 -548z"></path>
      <path d="M1935 1138 c-38 -4 -81 -5 -95 -4 -14 2 -18 1 -10 -2 8 -3 -10 -13
-40 -23 -62 -21 -82 -24 -60 -8 13 9 13 10 0 6 -17 -4 -20 -62 -7 -110 6 -22
5 -27 -5 -21 -10 6 -9 3 1 -9 7 -9 19 -17 25 -17 6 0 6 4 -2 9 -23 14 135 51
219 51 122 0 161 -36 157 -148 l-1 -57 -7 65 -7 65 -1 -61 -2 -61 -97 -5
c-120 -7 -198 -34 -262 -92 -42 -39 -48 -35 -12 8 9 11 11 16 4 12 -7 -3 -22
-21 -35 -38 -12 -17 -17 -28 -10 -24 16 9 15 1 -2 -32 -54 -105 -10 -249 91
-301 45 -23 126 -32 183 -20 30 7 65 12 77 13 11 0 19 5 15 10 -3 5 2 7 10 3
9 -3 25 1 37 9 12 8 26 12 31 9 6 -3 10 1 10 10 0 14 -5 14 -35 -5 -48 -30
-44 -19 5 14 l40 26 0 -24 c0 -51 7 -56 82 -56 l69 0 -3 318 c-3 346 -5 359
-66 427 l-27 30 32 -29 c17 -15 37 -41 44 -57 6 -17 14 -28 16 -25 16 15 -62
108 -95 112 -9 1 -35 9 -57 17 -52 19 -123 24 -210 15z m185 -530 l0 -93 -47
-30 c-36 -22 -62 -30 -110 -33 -59 -4 -64 -2 -93 26 -25 25 -30 39 -30 77 0
65 21 100 72 119 59 21 74 24 146 25 l62 1 0 -92z"></path>
      <path d="M3405 1139 c-38 -4 -83 -6 -100 -3 -20 3 -24 1 -12 -4 14 -6 5 -12
-38 -25 -31 -9 -60 -15 -64 -13 -11 7 -12 -44 -1 -85 6 -22 13 -39 15 -39 3 0
39 9 81 21 58 16 98 20 161 17 81 -3 86 -4 114 -36 26 -29 29 -38 27 -100 l-1
-67 -7 65 -7 65 -1 -61 -2 -61 -97 -5 c-117 -6 -197 -34 -255 -86 -61 -55 -82
-104 -80 -184 3 -99 6 -117 16 -110 5 3 7 -1 4 -9 -3 -9 3 -26 14 -40 l20 -24
-17 30 -18 30 34 -31 c44 -41 68 -53 132 -64 37 -7 69 -7 107 1 30 7 65 12 77
13 11 0 19 5 15 10 -3 5 2 7 10 3 9 -3 25 1 37 9 12 8 26 12 31 9 6 -3 10 1
10 10 0 14 -5 14 -35 -5 -48 -30 -44 -19 5 14 l40 26 0 -24 c0 -51 7 -56 82
-56 l69 0 -3 323 c-3 292 -5 325 -22 357 -48 90 -98 118 -246 134 -14 1 -56
-1 -95 -5z m185 -531 l0 -93 -47 -30 c-66 -41 -157 -48 -197 -13 -21 18 -29
36 -33 71 -12 107 51 153 215 156 l62 1 0 -92z"></path>
      <path d="M2376 1106 c-3 -13 -1 -35 4 -48 8 -19 9 -17 4 12 -4 19 -4 33 -1 30
4 -4 201 -640 229 -738 l9 -32 104 0 104 0 16 31 c60 116 156 407 199 604 15
66 29 130 31 143 5 22 4 22 -88 22 l-94 0 -13 -87 c-16 -110 -61 -298 -103
-428 l-31 -99 -9 39 c-5 22 -45 160 -90 308 l-81 267 -92 0 c-89 0 -92 -1 -98
-24z"></path>
    </g>
  </symbol>

<symbol version="1.0" xmlns="http://www.w3.org/2000/svg" preserveAspectRatio="xMidYMid meet" viewBox="0 0 256.000000 256.000000" id="javascript">
    <metadata>Created by potrace 1.16, written by Peter Selinger 2001-2019</metadata>
    <g transform="translate(0.000000,256.000000) scale(0.100000,-0.100000)" stroke="none">
      <path d="M1859 1390 c-111 -19 -191 -77 -239 -172 -25 -52 -30 -73 -30 -134 0
-178 75 -264 322 -371 132 -56 188 -102 188 -152 0 -79 -61 -125 -165 -124
-79 0 -129 23 -187 85 l-46 50 -91 -52 c-50 -29 -91 -56 -91 -60 0 -13 75
-104 111 -135 80 -67 202 -100 347 -93 83 4 109 10 163 35 88 41 123 74 160
148 30 61 31 70 27 152 -9 181 -82 258 -351 374 -114 49 -157 89 -157 145 0
46 14 70 50 89 62 32 135 13 187 -49 l28 -34 85 55 c47 30 87 57 89 59 8 7
-43 76 -81 109 -73 62 -209 94 -319 75z"></path>
      <path d="M1156 1198 c-4 -101 -6 -297 -4 -435 2 -242 1 -254 -18 -280 -12 -16
-37 -33 -57 -40 -70 -23 -126 2 -183 82 l-20 29 -88 -54 c-48 -29 -89 -57 -92
-62 -9 -14 34 -75 88 -123 72 -64 155 -89 286 -83 116 5 176 31 240 103 77 87
76 83 80 593 l3 452 -114 0 -114 0 -7 -182z"></path>
    </g>
</symbol>

  <symbol version="1.1" id="mongodb" sodipodiDocname="9404cc9dca899d88472593e6c4fb7106.svg" xmlnsInkscape="http://www.inkscape.org/namespaces/inkscape" xmlnsSodipodi="http://sodipodi.sourceforge.net/DTD/sodipodi-0.dtd" xmlns="http://www.w3.org/2000/svg" xmlnsSvg="http://www.w3.org/2000/svg" viewBox="0 0 119.7478 121.71715">
    <defs id="defs50"></defs>
    <sodipodi:namedview id="namedview48" pagecolor="#ffffff" bordercolor="#666666" borderopacity="1.0" inkscapePageshadow="2" inkscapePageopacity="0.0" inkscapePagecheckerboard="0"></sodipodi:namedview>
    <path fill="#94795d" fill-rule="evenodd" d="m 83.132521,96.998 c 0.169,-0.325 0.331,-0.612 0.469,-0.909 0.087,-0.19 0.221,-0.228 0.41,-0.223 1.133,0.032 2.266,0.067 3.4,0.078 0.963,0.01 1.928,-0.008 2.892,-0.019 1.086,-0.013 2.172,-0.07 3.257,-0.039 1.445,0.042 2.853,0.325 4.16,0.968 1.561,0.769 2.741999,1.94 3.546999,3.483 0.514,0.985 0.812,2.03 0.931,3.14 0.172,1.608 0.059,3.179 -0.451,4.717 -0.632,1.906 -1.831999,3.365 -3.498999,4.458 -1.283,0.841 -2.69,1.338 -4.198,1.622 -1.596,0.301 -3.197,0.204 -4.798,0.209 -1.756,0.007 -3.511,-0.031 -5.267,-0.051 -0.307,-0.003 -0.351,-0.061 -0.27,-0.354 l 0.075,-0.27 c 0.171,-0.538 0.263,-0.562 0.809,-0.652 0.378,-0.061 0.77,-0.203 1.087,-0.413 0.184,-0.122 0.26,-0.44 0.332,-0.685 0.062,-0.214 0.065,-0.449 0.067,-0.675 0.025,-3.425 0.051,-6.849 0.065,-10.272 0.003,-0.865 -0.017,-1.732 -0.065,-2.596 -0.034,-0.605 -0.357,-1.019 -1.077,-1.162 -0.56,-0.111 -1.124,-0.197 -1.687,-0.296 z m 16.076,8.293 c -0.076,-0.682 -0.113,-1.37 -0.235,-2.042 -0.292,-1.613 -0.998,-3.018 -2.238,-4.119 -2.005,-1.779 -4.419,-2.053 -6.949,-1.841 -0.576,0.048 -0.7,0.245 -0.709,0.837 -0.014,0.84 -0.028,1.68 -0.029,2.52 -0.004,2.664 -0.004,5.328 0,7.992 0.001,0.758 0.009,1.516 0.031,2.272 0.024,0.774 0.305,1.429 1.063,1.729 1.195,0.473 2.452,0.529 3.706,0.336 2.003,-0.307 3.404,-1.474 4.344,-3.223 0.744,-1.388 0.954,-2.903 1.016,-4.461 z m 4.868999,9.071 c -0.024,-0.415 0.146,-0.758 0.356,-1.073 0.057,-0.085 0.253,-0.081 0.388,-0.108 l 1.146,-0.227 c 0.405,-0.086 0.618,-0.358 0.675,-0.755 0.038,-0.262 0.074,-0.527 0.077,-0.792 0.025,-2.097 0.049,-4.194 0.059,-6.291 0.01,-2.1 0.002,-4.2 0.002,-6.3 l -0.009,-0.401 c -0.041,-0.675 -0.367,-1.025 -1.037,-1.124 l -1.453,-0.221 c -0.179,-0.024 -0.244,-0.11 -0.179,-0.269 0.112,-0.271 0.219,-0.552 0.377,-0.796 0.059,-0.09 0.258,-0.125 0.392,-0.122 0.694,0.01 1.388,0.062 2.082,0.061 l 6.041,-0.036 c 1.164,-0.001 2.288,0.202 3.332,0.759 1.149,0.612 1.792,1.559 1.976,2.849 0.192,1.355 -0.219,2.497 -1.209,3.404 -0.407,0.374 -0.934,0.618 -1.406,0.922 l -0.154,0.096 c 0.438,0.161 0.855,0.3 1.261,0.466 1.188,0.487 2.133,1.248 2.633,2.463 0.395,0.959 0.395,1.959 0.161,2.953 -0.364,1.556 -1.389,2.591 -2.722,3.374 -1.251,0.735 -2.605,1.163 -4.047,1.235 -1.33,0.067 -2.666,0.042 -3.999,0.057 l -0.772,0.004 c -1.284,-0.029 -2.569,-0.062 -3.854,-0.096 z m 5.537,-6.089 h 0.013 c 0,0.658 -0.009,1.316 0.003,1.974 0.008,0.426 -0.007,0.864 0.085,1.274 0.138,0.613 0.418,1.166 1.106,1.342 0.929,0.239 1.878,0.287 2.818,0.124 1.177,-0.205 2.116,-0.795 2.631,-1.916 0.382,-0.833 0.439,-1.716 0.308,-2.618 -0.174,-1.188 -0.805,-2.05 -1.854,-2.615 -0.688,-0.371 -1.422,-0.598 -2.204,-0.628 -0.876,-0.033 -1.753,-0.035 -2.629,-0.062 -0.246,-0.007 -0.28,0.118 -0.279,0.32 0.005,0.934 0.002,1.869 0.002,2.805 z m 1.865,-4.475 c 0.479,-0.024 1.021,-0.031 1.56,-0.085 1.032,-0.103 1.759,-0.622 2.138,-1.609 0.193,-0.501 0.185,-1.017 0.19,-1.538 0.015,-1.357 -0.777,-2.469 -2.066,-2.929 -0.995,-0.355 -2.021,-0.361 -3.053,-0.333 -0.418,0.011 -0.605,0.194 -0.611,0.615 l -0.062,5.489 c -0.003,0.218 0.091,0.312 0.303,0.319 z" clip-rule="evenodd" id="path2"></path>
    <path fill="#50382b" fill-rule="evenodd" d="m 6.4165209,113.307 -0.073,0.944 c -0.68,0 -1.307,-0.005 -1.934,0.002 -1.181,0.012 -2.362,0.031 -3.54400004,0.048 l -0.114,0.007 c -0.169,-0.02 -0.476,-0.02 -0.484,-0.07 -0.05,-0.281 -0.034,-0.576 -0.021,-0.867 0.001,-0.033 0.116,-0.075 0.183,-0.091 l 0.91900004,-0.205 c 0.573,-0.149 0.775,-0.396 0.802,-0.988 0.031,-0.667 0.062,-1.335 0.065,-2.002 0.009,-1.642 -10e-4,-3.282 0.006,-4.924 0.001,-0.384 -0.132,-0.67 -0.49,-0.826 -0.426,-0.188 -0.85400004,-0.372 -1.28500004,-0.546 -0.204,-0.082 -0.469,-0.127 -0.445,-0.401 0.024,-0.279 0.281,-0.352 0.523,-0.407 1.00200004,-0.229 2.00500004,-0.452 3.00400004,-0.696 0.322,-0.079 0.63,-0.212 1.015,-0.346 0.02,0.208 0.057,0.406 0.053,0.604 l -0.059,0.941 c -10e-4,0.106 0.054,0.248 0.133,0.307 0.048,0.037 0.209,-0.03 0.289,-0.092 0.854,-0.65 1.758,-1.211 2.789,-1.538 1.597,-0.507 2.9680001,-0.037 3.9280001,1.34 0.338,0.485 0.339,0.485 0.808,0.146 0.805,-0.585 1.647,-1.101 2.589,-1.441 2.068,-0.747 4.055,0.201 4.774,2.284 0.262,0.756 0.362,1.537 0.36,2.335 l -0.019,5.298 c -0.001,0.437 0.144,0.686 0.56,0.822 0.467,0.153 0.951,0.258 1.477,0.396 l -0.122,0.911 c -0.598,0 -1.148,-0.004 -1.698,0.001 -1.344,0.012 -2.688,0.019 -4.031,0.05 -0.234,0.006 -0.295,-0.052 -0.307,-0.271 -0.039,-0.701 -0.045,-0.7 0.615,-0.858 l 0.222,-0.057 c 0.645,-0.176 0.86,-0.374 0.865,-1.028 0.015,-1.878 0.054,-3.761 -0.041,-5.635 -0.099,-1.944 -1.642,-2.979 -3.526,-2.481 -0.615,0.162 -1.172,0.446 -1.69,0.814 -0.175,0.125 -0.208,0.269 -0.194,0.488 0.053,0.828 0.086,1.657 0.093,2.486 0.012,1.451 -0.006,2.902 0,4.354 0.002,0.588 0.203,0.813 0.784,0.949 l 0.863,0.199 0.16,0.036 c 0.012,0.276 0.023,0.552 0.01,0.828 -0.008,0.173 -0.142,0.188 -0.292,0.185 -0.839,-0.021 -1.679,-0.049 -2.518,-0.047 -1.021,0.002 -2.0410001,0.031 -3.0610001,0.049 h -0.24 c 0,-0.293 -0.014,-0.573 0.01,-0.852 0.005,-0.067 0.123,-0.161 0.204,-0.182 l 1.006,-0.213 c 0.427,-0.105 0.631,-0.324 0.655,-0.758 0.1140001,-2.01 0.1960001,-4.021 0.007,-6.03 -0.037,-0.39 -0.164,-0.786 -0.326,-1.145 -0.515,-1.138 -1.674,-1.613 -3.011,-1.271 -0.635,0.162 -1.208,0.453 -1.75,0.82 -0.256,0.174 -0.378,0.404 -0.378,0.695 0,2.005 0.007,4.01 0.013,6.014 l 0.011,0.773 c 0.012,0.539 0.241,0.823 0.776,0.939 0.344,0.078 0.692,0.131 1.082,0.203 z" clip-rule="evenodd" id="path4"></path>
    <path fill="#4f382b" fill-rule="evenodd" d="m 66.874521,102.144 c 0.155,0.754 0.152,1.432 -0.402,1.946 -0.55,0.511 -1.246,0.339 -1.925,0.225 0.063,0.358 0.133,0.662 0.167,0.97 0.247,2.289 -0.738,3.988 -2.861,4.959 -0.802,0.366 -1.653,0.502 -2.522,0.572 -0.432,0.034 -0.81,0.364 -0.851,0.719 -0.042,0.36 0.184,0.73 0.636,0.838 0.533,0.127 1.089,0.163 1.636,0.226 1.174,0.134 2.361,0.195 3.521,0.405 1.754,0.316 2.733,1.847 2.424,3.609 -0.275,1.568 -1.183,2.709 -2.449,3.584 -2.133,1.478 -4.473,1.91 -6.965,1.156 -1.425,-0.432 -2.43,-1.369 -2.777,-2.885 -0.174,-0.759 0.011,-1.446 0.582,-1.961 0.679,-0.61 1.418,-1.154 2.129,-1.73 l 0.23,-0.231 -0.264,-0.185 c -0.725,-0.344 -1.305,-0.815 -1.53,-1.633 -0.077,-0.277 0.003,-0.459 0.238,-0.601 0.4,-0.241 0.798,-0.486 1.193,-0.735 0.186,-0.116 0.37,-0.236 0.543,-0.37 0.236,-0.18 0.215,-0.314 -0.067,-0.418 -0.656,-0.242 -1.239,-0.593 -1.691,-1.133 -0.755,-0.901 -0.969,-1.974 -0.907,-3.107 0.097,-1.77 1.058,-2.936 2.62,-3.686 1.857,-0.891 3.72,-0.947 5.613,-0.135 0.7,0.3 1.438,0.364 2.189,0.312 0.561,-0.04 1.051,-0.252 1.49,-0.711 z m -6.843,12.681 c -1.394,-0.012 -1.831,0.16 -2.649,0.993 -0.916,0.934 -0.911,2.229 0.003,3.167 0.694,0.711 1.56,1.044 2.523,1.144 1.125,0.116 2.233,0.069 3.255,-0.494 1.09,-0.603 1.632,-1.723 1.387,-2.851 -0.203,-0.931 -0.889,-1.357 -1.724,-1.602 -0.95,-0.278 -1.932,-0.331 -2.795,-0.357 z m -2.738,-8.908 c 0.051,0.387 0.072,0.779 0.158,1.158 0.223,0.982 0.65,1.845 1.627,2.282 1.147,0.515 2.612,0.294 3.114,-1.316 0.344,-1.103 0.302,-2.198 -0.113,-3.274 -0.185,-0.48 -0.483,-0.886 -0.91,-1.184 -0.996,-0.695 -2.793,-0.787 -3.525,0.749 -0.238,0.499 -0.331,1.03 -0.351,1.585 z" clip-rule="evenodd" id="path6"></path>
    <path fill="#4f372b" fill-rule="evenodd" d="m 43.223521,101.897 c 0.037,0.171 0.111,0.365 0.113,0.56 0.003,0.371 -0.037,0.742 -0.058,1.113 v 0.322 l 0.314,-0.24 c 0.86,-0.708 1.784,-1.311 2.86,-1.636 1.942,-0.585 3.882,0.478 4.515,2.456 0.24,0.752 0.335,1.525 0.344,2.311 0.02,1.746 0.032,3.492 0.05,5.238 0.006,0.627 0.078,0.739 0.671,0.92 0.336,0.103 0.683,0.175 1.03,0.229 0.191,0.03 0.273,0.105 0.263,0.292 l 0.002,0.172 c -0.007,0.723 -0.057,0.756 -0.758,0.754 -1.678,-0.003 -3.355,0.007 -5.033,0.021 -0.5,0.004 -0.501,0.019 -0.551,-0.475 l -0.01,-0.284 c 0.031,-0.426 0.041,-0.422 0.46,-0.484 0.282,-0.042 0.562,-0.107 0.837,-0.179 0.283,-0.073 0.419,-0.282 0.457,-0.562 0.019,-0.142 0.044,-0.284 0.043,-0.426 -0.024,-1.908 0.007,-3.818 -0.097,-5.723 -0.084,-1.541 -1.26,-2.459 -2.807,-2.354 -0.759,0.053 -1.445,0.306 -2.071,0.743 -0.413,0.289 -0.496,0.706 -0.494,1.155 0.008,1.784 0.025,3.568 0.044,5.353 0.004,0.391 0.015,0.782 0.052,1.17 0.039,0.424 0.188,0.595 0.604,0.687 0.398,0.088 0.804,0.139 1.229,0.21 l 0.036,0.328 c 0.014,0.765 -0.066,0.822 -0.809,0.819 -1.735,-0.007 -3.47,0.004 -5.204,0.023 -0.273,0.004 -0.389,-0.082 -0.382,-0.348 l -0.004,-0.114 c -0.045,-0.689 -0.025,-0.715 0.627,-0.827 l 0.308,-0.062 c 0.706,-0.159 0.887,-0.347 0.897,-1.064 0.033,-2.271 0.045,-4.541 0.068,-6.812 0.003,-0.326 -0.12,-0.579 -0.424,-0.714 -0.426,-0.188 -0.856,-0.367 -1.287,-0.544 -0.238,-0.098 -0.51,-0.16 -0.519,-0.489 -0.006,-0.232 0.242,-0.437 0.581,-0.506 0.681,-0.138 1.368,-0.253 2.041,-0.422 0.67,-0.167 1.328,-0.391 2.062,-0.611 z" clip-rule="evenodd" id="path8"></path>
    <path fill="#4f382b" fill-rule="evenodd" d="m 80.738521,107.829 c -0.032,2.121 -0.583,3.836 -2.083,5.123 -1.9,1.633 -4.864,2.188 -7.287,0.967 -1.034,-0.521 -1.794,-1.32 -2.289,-2.357 -0.759,-1.595 -0.949,-3.272 -0.553,-4.99 0.392,-1.699 1.421,-2.93 2.961,-3.727 1.584,-0.819 3.252,-1.139 5.011,-0.709 2.225,0.543 3.824,2.357 4.142,4.667 0.057,0.405 0.079,0.815 0.098,1.026 z m -2.577,1.149 -0.086,-0.01 c 0,-0.2 0.011,-0.4 -0.002,-0.6 -0.073,-1.246 -0.353,-2.433 -1.075,-3.476 -0.685,-0.988 -1.618,-1.571 -2.832,-1.656 -1.359,-0.096 -2.501,0.664 -2.902,2.052 -0.602,2.084 -0.398,4.115 0.66,6.024 0.461,0.832 1.144,1.446 2.059,1.769 1.793,0.631 3.383,-0.186 3.85,-2.022 0.172,-0.678 0.222,-1.387 0.328,-2.081 z" clip-rule="evenodd" id="path10"></path>
    <path fill="#4f372b" fill-rule="evenodd" d="m 36.692521,107.993 c -0.037,1.522 -0.396,2.929 -1.336,4.152 -1.007,1.31 -2.391,2.01 -3.965,2.305 -1.861,0.348 -3.609,0.032 -5.104,-1.217 -0.71,-0.594 -1.195,-1.355 -1.515,-2.221 -0.525,-1.42 -0.656,-2.875 -0.333,-4.358 0.345,-1.587 1.241,-2.8 2.63,-3.614 1.606,-0.939 3.339,-1.358 5.19,-0.936 2.38,0.544 3.754,2.095 4.262,4.443 0.102,0.474 0.116,0.964 0.171,1.446 z m -2.606,1.004 -0.069,-0.01 v -0.286 c -0.039,-1.396 -0.312,-2.726 -1.145,-3.886 -0.617,-0.861 -1.443,-1.401 -2.502,-1.552 -1.726,-0.246 -2.854,0.778 -3.228,2.169 -0.488,1.817 -0.335,3.612 0.42,5.335 0.471,1.074 1.215,1.911 2.358,2.317 1.782,0.633 3.396,-0.205 3.847,-2.034 0.166,-0.669 0.216,-1.367 0.319,-2.053 z" clip-rule="evenodd" id="path12"></path>
    <path fill="#439934" fill-rule="evenodd" d="m 78.235521,30.403 c 1.227,3.547 2.109,7.168 2.4,10.92 0.36,4.656 0.196,9.28 -0.786,13.859 l -0.126,0.366 c -0.308,10e-4 -0.622,-0.038 -0.923,0.009 -2.543,0.4 -5.083,0.814 -7.624,1.226 -2.627,0.426 -5.256,0.835 -7.878,1.289 -0.929,0.16 -2.079,-0.031 -2.454,1.253 l -0.18,0.061 0.127,-7.678 -0.129,-18.526 1.224,-0.21 c 2.001,-0.327 4.002,-0.66 6.006,-0.979 2.39,-0.379 4.782,-0.749 7.174,-1.119 1.056,-0.162 2.113,-0.313 3.169,-0.471 z" clip-rule="evenodd" id="path14"></path>
    <path fill="#45a538" fill-rule="evenodd" d="m 58.138521,81.77 c -1.291,-1.11 -2.627,-2.171 -3.864,-3.339 -6.658,-6.28 -11.529,-13.673 -13.928,-22.586 -0.661,-2.452 -1.101,-4.945 -1.243,-7.479 -0.1,-1.774 -0.243,-3.563 -0.117,-5.328 0.333,-4.693 1.012,-9.341 2.388,-13.862 l 0.076,-0.105 c 0.134,0.178 0.326,0.336 0.394,0.537 1.344,3.956 2.677,7.916 4.004,11.879 4.169,12.451 8.333,24.905 12.509,37.354 0.082,0.243 0.293,0.442 0.445,0.661 z" clip-rule="evenodd" id="path16"></path>
    <path fill="#46a037" fill-rule="evenodd" d="m 78.235521,30.403 c -1.057,0.157 -2.114,0.309 -3.169,0.471 -2.392,0.37 -4.784,0.74 -7.174,1.119 -2.003,0.318 -4.004,0.651 -6.006,0.979 l -1.224,0.21 -0.01,-0.798 c -0.041,-0.656 -0.109,-1.312 -0.118,-1.968 l -0.137,-12.554 c -0.032,-2.619 -0.08,-5.238 -0.133,-7.856 -0.033,-1.627 -0.068,-3.255 -0.141,-4.88 -0.04,-0.873 -0.181,-1.742 -0.237,-2.615 -0.033,-0.502 0.011,-1.008 0.022,-1.512 0.624,1.209 1.235,2.427 1.876,3.627 1.013,1.897 2.628,3.295 4.083,4.82 5.746,6.031 9.825,13.039 12.368,20.957 z" clip-rule="evenodd" id="path18"></path>
    <path fill="#409433" fill-rule="evenodd" d="m 60.665521,59.386 0.18,-0.061 c 0.375,-1.284 1.525,-1.093 2.454,-1.253 2.622,-0.454 5.251,-0.863 7.878,-1.289 2.541,-0.411 5.081,-0.825 7.624,-1.226 0.301,-0.047 0.615,-0.008 0.923,-0.009 -0.475,1.696 -0.849,3.429 -1.452,5.078 -0.685,1.87 -1.513,3.696 -2.392,5.486 -1.314,2.675 -2.951,5.171 -4.853,7.458 -1.466,1.762 -3.1,3.393 -4.737,5.002 -0.906,0.889 -1.972,1.614 -2.966,2.414 l -0.258,-0.176 -0.927,-0.792 -0.959,-2.104 c -0.661,-2.462 -1.007,-4.968 -1.065,-7.516 l 0.018,-0.428 0.131,-1.854 c 0.043,-0.633 0.101,-1.265 0.128,-1.898 0.096,-2.276 0.182,-4.554 0.273,-6.832 z" clip-rule="evenodd" id="path20"></path>
    <path fill="#4faa41" fill-rule="evenodd" d="m 60.665521,59.386 c -0.09,2.278 -0.176,4.557 -0.273,6.835 -0.027,0.634 -0.084,1.266 -0.128,1.898 l -0.584,0.221 c -1.298,-3.821 -2.597,-7.602 -3.867,-11.392 -2.101,-6.271 -4.176,-12.551 -6.274,-18.824 -1.693,-5.062 -3.401,-10.121 -5.118,-15.176 -0.081,-0.236 -0.311,-0.422 -0.471,-0.631 l 3.74,-6.877 c 0.129,0.223 0.298,0.432 0.379,0.672 1.73,5.12 3.457,10.241 5.169,15.367 2.228,6.67 4.441,13.343 6.667,20.014 0.089,0.266 0.235,0.512 0.375,0.811 l 0.512,-0.596 c -0.043,2.56 -0.085,5.118 -0.127,7.678 z" clip-rule="evenodd" id="path22"></path>
    <path fill="#4aa73c" fill-rule="evenodd" d="m 43.949521,22.317 c 0.161,0.209 0.391,0.395 0.471,0.631 1.717,5.055 3.425,10.113 5.118,15.176 2.098,6.273 4.173,12.553 6.274,18.824 1.27,3.79 2.569,7.57 3.867,11.392 l 0.584,-0.221 -0.131,1.854 -0.119,0.427 c -0.203,2.029 -0.374,4.062 -0.622,6.087 -0.124,1.015 -0.389,2.011 -0.59,3.015 -0.151,-0.219 -0.363,-0.418 -0.445,-0.661 -4.177,-12.449 -8.34,-24.903 -12.509,-37.354 -1.327,-3.963 -2.661,-7.923 -4.004,-11.879 -0.068,-0.201 -0.26,-0.359 -0.394,-0.537 z" clip-rule="evenodd" id="path24"></path>
    <path fill="#57ae47" fill-rule="evenodd" d="m 60.791521,51.708 -0.512,0.596 c -0.14,-0.299 -0.286,-0.545 -0.375,-0.811 -2.226,-6.671 -4.439,-13.344 -6.667,-20.014 -1.712,-5.126 -3.439,-10.247 -5.169,-15.367 -0.081,-0.24 -0.25,-0.449 -0.379,-0.672 l 4.625,-6.084 c 0.146,0.194 0.354,0.367 0.429,0.586 1.284,3.76 2.556,7.523 3.822,11.289 1.182,3.518 2.346,7.04 3.542,10.552 0.08,0.235 0.359,0.401 0.545,0.601 l 0.01,0.798 z" clip-rule="evenodd" id="path26"></path>
    <path fill="#60b24f" fill-rule="evenodd" d="m 60.652521,32.384 c -0.187,-0.199 -0.465,-0.365 -0.545,-0.601 -1.195,-3.512 -2.36,-7.034 -3.542,-10.552 -1.266,-3.766 -2.538,-7.529 -3.822,-11.289 -0.075,-0.219 -0.283,-0.392 -0.429,-0.586 1.504,-1.473 2.961,-2.999 4.526,-4.404 1.391,-1.248 2.509,-2.586 2.561,-4.559 l 0.11,-0.393 0.396,0.998 c -0.01,0.504 -0.055,1.01 -0.022,1.512 0.057,0.873 0.198,1.742 0.237,2.615 0.073,1.625 0.108,3.253 0.141,4.88 0.053,2.618 0.101,5.237 0.133,7.856 l 0.137,12.554 c 0.01,0.657 0.079,1.313 0.119,1.969 z" clip-rule="evenodd" id="path28"></path>
    <path fill="#a9aa88" fill-rule="evenodd" d="m 58.802521,79.501 c 0.201,-1.004 0.466,-2 0.59,-3.015 0.248,-2.024 0.419,-4.058 0.622,-6.087 l 0.051,-0.008 0.05,0.009 c 0.058,2.548 0.404,5.054 1.065,7.516 -0.135,0.178 -0.324,0.335 -0.396,0.535 -0.555,1.566 -1.079,3.145 -1.637,4.71 -0.076,0.214 -0.29,0.381 -0.439,0.568 l -0.571,-1.96 z" clip-rule="evenodd" id="path30"></path>
    <path fill="#b6b598" fill-rule="evenodd" d="m 58.708521,83.73 c 0.149,-0.188 0.363,-0.354 0.439,-0.568 0.558,-1.565 1.082,-3.144 1.637,-4.71 0.071,-0.2 0.261,-0.357 0.396,-0.535 l 0.959,2.104 c -0.189,0.268 -0.451,0.511 -0.556,0.81 l -1.836,5.392 c -0.076,0.217 -0.333,0.369 -0.507,0.552 z" clip-rule="evenodd" id="path32"></path>
    <path fill="#c2c1a7" fill-rule="evenodd" d="m 59.240521,86.774 c 0.173,-0.183 0.431,-0.335 0.507,-0.552 l 1.836,-5.392 c 0.104,-0.299 0.367,-0.542 0.556,-0.81 l 0.928,0.791 c -0.448,0.443 -0.697,0.955 -0.547,1.602 l -0.282,0.923 c -0.128,0.158 -0.314,0.296 -0.377,0.477 -0.641,1.836 -1.252,3.682 -1.898,5.517 -0.082,0.232 -0.309,0.415 -0.468,0.621 z" clip-rule="evenodd" id="path34"></path>
    <path fill="#cecdb7" fill-rule="evenodd" d="m 59.494521,89.95 c 0.16,-0.206 0.387,-0.389 0.468,-0.621 0.646,-1.835 1.258,-3.681 1.898,-5.517 0.063,-0.181 0.249,-0.318 0.377,-0.477 l -0.389,4.236 c -0.104,0.12 -0.254,0.225 -0.304,0.364 l -1.294,3.708 c -0.091,0.253 -0.265,0.479 -0.401,0.716 -0.121,-0.158 -0.337,-0.311 -0.347,-0.475 -0.038,-0.642 -0.011,-1.289 -0.008,-1.934 z" clip-rule="evenodd" id="path36"></path>
    <path fill="#dbdac7" fill-rule="evenodd" d="m 59.850521,92.36 c 0.136,-0.237 0.31,-0.463 0.401,-0.716 l 1.294,-3.708 c 0.05,-0.14 0.201,-0.244 0.304,-0.364 l 0.01,2.78 -0.931,2.387 z" clip-rule="evenodd" id="path38"></path>
    <path fill="#ebe9dc" fill-rule="evenodd" d="m 60.928521,92.739 0.931,-2.387 0.192,2.824 z" clip-rule="evenodd" id="path40"></path>
    <path fill="#cecdb7" fill-rule="evenodd" d="m 62.519521,82.413 c -0.149,-0.646 0.099,-1.158 0.547,-1.602 l 0.258,0.176 z" clip-rule="evenodd" id="path42"></path>
    <path fill="#4faa41" fill-rule="evenodd" d="m 60.115521,70.401 -0.05,-0.009 -0.051,0.008 0.119,-0.427 z" clip-rule="evenodd" id="path44"></path>
  </symbol>
  <symbol version="1.0" xmlns="http://www.w3.org/2000/svg" preserveAspectRatio="xMidYMid meet" viewBox="0 0 256.000000 256.000000" id="mysql">
    <metadata>Created by potrace 1.16, written by Peter Selinger 2001-2019</metadata>
    <g transform="translate(0.000000,256.000000) scale(0.100000,-0.100000)" fill="#000000" stroke="none">
      <path d="M1619 1945 c-1 -3 -2 -9 -3 -14 -2 -13 -16 -26 -29 -26 -7 0 -13 -14
-15 -30 -2 -23 6 -43 33 -78 19 -25 40 -57 45 -69 5 -14 9 -17 9 -7 1 8 -17
40 -39 69 -28 37 -40 63 -39 84 1 31 1 31 8 -5 4 -19 24 -57 44 -84 20 -26 37
-55 37 -63 0 -8 16 -48 35 -88 34 -69 35 -76 24 -119 -26 -103 10 -237 67
-251 28 -7 54 10 54 37 0 33 15 27 48 -20 l33 -46 -36 39 c-19 22 -35 34 -35
28 0 -18 132 -131 147 -125 12 5 11 8 -2 23 -8 9 -13 20 -10 23 3 4 2 5 -2 2
-8 -6 -33 14 -33 27 0 6 8 4 18 -3 15 -13 16 -12 3 3 -7 10 -17 15 -22 13 -9
-6 -74 107 -84 147 -7 27 -40 44 -52 26 -3 -7 -1 -8 5 -4 15 9 16 -6 1 -21 -6
-6 -16 -32 -23 -59 -12 -48 -13 -48 -26 -25 -20 38 -24 139 -6 194 8 27 12 56
10 65 -3 10 2 6 10 -8 8 -14 15 -20 16 -13 0 7 -12 25 -26 40 -15 15 -21 20
-14 11 7 -10 8 -18 3 -18 -11 0 -28 33 -54 108 -10 30 -35 76 -55 103 -19 27
-33 55 -31 61 3 8 6 6 6 -4 1 -11 6 -15 16 -12 8 3 32 -4 52 -16 26 -16 52
-22 81 -21 82 4 205 -72 280 -173 52 -71 95 -163 87 -185 -3 -9 -3 -12 1 -8 4
4 23 -21 41 -55 37 -69 38 -72 21 -62 -7 4 -8 3 -4 -4 4 -6 14 -8 23 -5 11 4
14 3 9 -5 -5 -8 -2 -10 9 -6 20 8 67 -11 130 -53 36 -24 44 -33 29 -33 -39 0
-122 -30 -128 -47 -5 -12 6 -29 35 -57 23 -23 38 -35 34 -27 -9 16 -8 15 63
-22 28 -15 52 -30 52 -32 0 -3 -22 6 -50 20 -68 34 -64 24 5 -13 30 -17 52
-25 49 -20 -4 6 -1 8 7 6 8 -3 13 -10 12 -16 -1 -5 5 -16 15 -23 9 -7 14 -9
10 -5 -4 5 0 15 10 22 16 12 15 14 -7 38 -13 14 -27 23 -31 21 -4 -3 -16 5
-26 17 -11 11 -36 32 -58 45 -47 30 -38 44 31 46 49 2 51 3 47 30 -2 19 0 26
9 21 7 -4 1 5 -12 19 -31 34 -98 80 -119 82 -9 1 -35 10 -57 21 -43 20 -48 29
-126 197 -30 65 -58 107 -107 160 -37 39 -54 61 -38 49 42 -32 91 -92 132
-159 19 -31 34 -52 34 -46 0 15 -73 123 -112 164 -41 43 -94 89 -84 72 11 -20
3 -16 -54 22 -53 36 -106 55 -152 55 -15 0 -30 5 -33 10 -10 16 -63 41 -108
50 -37 7 -38 8 -11 9 17 1 51 -10 77 -22 25 -13 44 -20 40 -14 -15 25 -139 61
-144 42z"></path>
      <path d="M121 1140 c-88 -9 -92 -19 -89 -224 l3 -171 47 -3 47 -3 3 148 3 147
59 -132 c32 -73 68 -139 80 -147 28 -20 79 -19 105 3 11 9 48 78 81 152 l60
135 0 -152 0 -153 45 0 c28 0 47 5 50 13 2 6 6 90 7 185 2 95 2 168 0 163 -2
-5 -14 2 -27 15 -18 18 -35 24 -70 24 -25 0 -48 0 -52 0 -5 0 -8 -3 -8 -7 0
-5 -8 -19 -16 -33 -9 -14 -40 -80 -70 -147 -29 -67 -56 -119 -60 -115 -3 4
-30 63 -59 132 -29 69 -58 132 -65 140 -8 8 -14 19 -13 23 0 13 -3 13 -61 7z"></path>
      <path d="M1177 1139 c-9 -6 -15 -14 -12 -18 5 -9 -33 -48 -44 -43 -3 1 -6 -24
-7 -55 l-1 -58 7 60 7 60 1 -52 c1 -28 5 -59 9 -69 5 -13 3 -15 -8 -9 -12 8
-12 6 0 -9 17 -20 64 -46 83 -46 7 0 -6 9 -29 20 -24 10 -43 21 -43 24 0 3 19
-4 43 -14 29 -14 65 -20 119 -20 42 0 83 -3 92 -6 24 -9 21 -71 -3 -84 -11 -5
-74 -10 -140 -10 l-121 0 0 -35 0 -35 128 0 c84 1 140 6 167 15 49 18 48 18
39 3 -4 -7 8 1 26 18 24 24 33 43 37 78 5 44 -9 82 -27 71 -4 -3 -13 2 -20 10
-7 8 -9 15 -4 15 5 0 0 7 -10 15 -11 8 -25 15 -30 15 -6 -1 0 -8 14 -16 15 -9
17 -12 5 -8 -11 4 -63 10 -115 13 -52 3 -101 10 -107 14 -19 12 -16 74 3 81 9
3 74 6 145 6 l129 0 0 36 0 36 -152 -4 c-84 -2 -162 -7 -173 -11 -11 -4 -6 -1
10 7 17 8 23 15 15 15 -8 0 -23 -4 -33 -10z"></path>
      <path d="M1589 1133 c-1 -1 -2 -6 -3 -11 0 -4 -12 -21 -25 -37 -13 -17 -21
-22 -18 -12 4 10 3 16 -2 12 -5 -3 -12 5 -14 17 -2 13 -2 10 0 -7 3 -16 8 -86
12 -155 4 -69 10 -134 15 -145 4 -12 1 -10 -8 5 -8 14 -15 20 -16 14 0 -7 9
-22 21 -35 11 -13 18 -18 14 -11 -9 17 1 15 32 -5 21 -14 50 -18 131 -19 87
-1 106 -4 120 -20 15 -16 14 -16 -8 1 -21 17 -20 15 4 -13 30 -32 50 -45 26
-17 -8 9 -9 15 -2 15 6 0 14 -4 17 -10 8 -13 105 -13 105 1 0 5 6 7 13 3 6 -4
-4 9 -22 29 -19 21 -40 37 -45 37 -6 0 3 -11 19 -25 17 -13 25 -24 19 -25 -6
0 -21 11 -34 25 -20 21 -21 25 -7 31 28 10 40 74 36 192 -3 61 -2 108 1 105 3
-2 8 -59 11 -126 l5 -122 2 115 c2 107 -5 145 -25 145 -5 0 -21 10 -37 23 -16
12 -24 22 -19 22 5 0 15 -6 23 -12 12 -11 12 -10 2 3 -10 13 -38 16 -177 16
-91 0 -166 -2 -166 -4z m270 -72 c10 -7 13 -36 12 -122 -1 -62 -4 -115 -7
-118 -2 -2 -17 7 -32 22 -20 19 -40 27 -77 30 l-50 3 51 2 c42 2 54 -2 74 -23
13 -14 25 -23 28 -20 2 2 -9 15 -24 29 -34 30 -120 37 -130 11 -4 -8 -11 -12
-18 -8 -6 4 -5 -1 3 -10 16 -20 26 -23 14 -4 -4 6 6 1 23 -13 l31 -25 -30 -3
c-16 -2 -40 -1 -53 2 -24 6 -24 9 -24 125 0 86 3 121 13 124 21 9 181 7 196
-2z"></path>
      <path d="M2004 1126 c-3 -8 -4 -82 -2 -164 2 -114 7 -154 18 -169 8 -10 5 -8
-7 5 -13 13 -23 19 -23 14 0 -4 14 -21 32 -38 17 -16 27 -23 23 -15 -6 11 -4
13 11 6 41 -17 104 -24 212 -25 l112 0 0 35 0 35 -117 0 c-179 0 -163 -16
-163 171 l0 159 -45 0 c-30 0 -47 -5 -51 -14z"></path>
      <path d="M668 911 c-2 -60 1 -109 6 -108 5 1 11 -4 14 -12 3 -9 0 -11 -9 -6
-8 5 -7 0 3 -10 19 -20 27 -21 186 -23 111 -2 113 -2 110 -24 -3 -23 -6 -23
-155 -26 l-153 -3 0 -34 0 -35 150 0 c111 0 160 4 187 15 43 18 46 18 37 3 -4
-7 2 -4 14 6 24 21 29 32 10 20 -8 -5 -9 -2 -5 10 4 10 7 21 7 24 0 4 5 0 11
-8 9 -12 10 -12 5 3 -3 10 -6 86 -6 168 l0 149 -50 0 -50 0 0 -105 0 -106
-102 3 -103 3 -3 103 -3 102 -49 0 -49 0 -3 -109z"></path>
    </g>
  </symbol>
  <symbol version="1.1" id="nodejs" sodipodiDocname="5c3a7761a510b52dd38af4e93a687362.svg" xmlnsInkscape="http://www.inkscape.org/namespaces/inkscape" xmlnsSodipodi="http://sodipodi.sourceforge.net/DTD/sodipodi-0.dtd" xmlns="http://www.w3.org/2000/svg" xmlnsSvg="http://www.w3.org/2000/svg" viewBox="0 0 48 19.046518">
    <defs id="defs16"></defs>
    <sodipodi:namedview id="namedview14" pagecolor="#ffffff" bordercolor="#666666" borderopacity="1.0" inkscapePageshadow="2" inkscapePageopacity="0.0" inkscapePagecheckerboard="0"></sodipodi:namedview>
    <path fill="#388e3c" d="m 17.204,7.1217674 -4.907,2.715 C 12.113,9.9377674 12,10.125767 12,10.328767 v 5.433 c 0,0.203 0.113,0.39 0.297,0.492 l 4.908,2.717 c 0.183,0.101 0.41,0.101 0.593,0 l 4.907,-2.717 c 0.182,-0.102 0.295,-0.289 0.295,-0.492 v -5.433 c 0,-0.203 -0.113,-0.3899996 -0.297,-0.4919996 l -4.906,-2.715 c -0.092,-0.051 -0.195,-0.076 -0.297,-0.076 -0.103,0 -0.205,0.025 -0.297,0.076 m 25.248,4.8909996 -0.818,0.452 c -0.031,0.017 -0.049,0.048 -0.049,0.082 v 0.906 c 0,0.034 0.019,0.065 0.049,0.082 l 0.818,0.453 c 0.031,0.017 0.068,0.017 0.099,0 l 0.818,-0.453 c 0.03,-0.017 0.049,-0.048 0.049,-0.082 v -0.906 c 0,-0.034 -0.019,-0.065 -0.05,-0.082 l -0.818,-0.452 c -0.015,-0.009 -0.032,-0.013 -0.049,-0.013 -0.017,0 -0.034,0.004 -0.049,0.013" id="path2"></path>
    <path fill="#37474f" d="M 35.751,1.3637674 33.362,0.03076744 c -0.075,-0.042 -0.167,-0.041 -0.241,0.003 -0.074,0.044 -0.12,0.123 -0.12,0.209 L 33,8.2947674 l -2.203,-1.219 c -0.092,-0.051 -0.195,-0.076 -0.297,-0.076 -0.102,0 -0.205,0.025 -0.297,0.076 h 0.001 l -4.907,2.715 C 25.113,9.8917674 25,10.079767 25,10.281767 v 5.433 c 0,0.203 0.113,0.39 0.297,0.492 l 4.908,2.717 c 0.183,0.101 0.41,0.101 0.593,0 l 4.907,-2.717 c 0.182,-0.101 0.295,-0.289 0.295,-0.492 V 1.7877674 c 0,-0.176 -0.096,-0.338 -0.249,-0.424 z m -2.885,13.0939996 -2.23,1.235 c -0.083,0.046 -0.186,0.046 -0.269,0 l -2.231,-1.235 c -0.085,-0.046 -0.136,-0.132 -0.136,-0.224 v -2.47 c 0,-0.092 0.051,-0.177 0.135,-0.224 l 2.231,-1.234 h -0.001 c 0.042,-0.023 0.088,-0.034 0.135,-0.034 0.047,0 0.093,0.012 0.135,0.034 l 2.23,1.234 c 0.084,0.047 0.135,0.133 0.135,0.225 v 2.47 c 0,0.091 -0.051,0.177 -0.134,0.223 z" id="path4"></path>
    <path fill="#2e7d32" d="M 17.204,7.1217674 12,15.761767 c 0,0.203 0.113,0.39 0.297,0.492 l 4.908,2.717 c 0.183,0.101 0.41,0.101 0.593,0 l 5.202,-8.642 c 0,-0.203 -0.113,-0.3899996 -0.297,-0.4919996 l -4.906,-2.715 c -0.092,-0.051 -0.195,-0.076 -0.297,-0.076 -0.103,0 -0.205,0.025 -0.297,0.076" id="path6"></path>
    <path fill="#4caf50" d="m 17.204,7.1217674 -4.907,2.715 C 12.113,9.9377674 12,10.125767 12,10.328767 l 5.204,8.642 c 0.183,0.101 0.41,0.101 0.593,0 l 4.907,-2.717 c 0.183,-0.102 0.296,-0.289 0.296,-0.492 L 17.797,7.1217674 c -0.092,-0.051 -0.195,-0.076 -0.297,-0.076 -0.103,0 -0.205,0.025 -0.297,0.076" id="path8"></path>
    <path fill="#37474f" d="m 47.703,9.7907674 -4.906,-2.715 c -0.092,-0.051 -0.195,-0.076 -0.297,-0.076 -0.102,0 -0.205,0.025 -0.297,0.076 h 10e-4 l -4.907,2.715 C 37.114,9.8917674 37,10.083767 37,10.293767 v 5.411 c 0,0.209 0.114,0.402 0.297,0.503 l 4.908,2.717 c 0.184,0.102 0.409,0.102 0.593,0 l 2.263,-1.253 c 0.207,-0.115 0.206,-0.412 -0.002,-0.526 l -4.924,-2.687 c -0.083,-0.047 -0.135,-0.134 -0.135,-0.228 v -2.466 c 0,-0.092 0.05,-0.177 0.13,-0.221 l 2.235,-1.236 h -0.001 c 0.042,-0.023 0.088,-0.034 0.135,-0.034 0.047,0 0.093,0.012 0.135,0.034 l 2.235,1.237 c 0.08,0.044 0.13,0.129 0.13,0.221 v 2.012 c 0,0.086 0.046,0.166 0.121,0.209 0.075,0.042 0.167,0.042 0.242,-0.001 l 2.398,-1.393 c 0.148,-0.086 0.24,-0.245 0.24,-0.417 v -1.88 c 0,-0.211 -0.114,-0.4039996 -0.297,-0.5049996 z m -37,0 -4.906,-2.715 c -0.092,-0.051 -0.195,-0.076 -0.297,-0.076 -0.102,0 -0.205,0.025 -0.297,0.076 h 10e-4 l -4.907,2.715 C 0.114,9.8917674 0,10.083767 0,10.293767 v 7.465 c 0,0.086 0.046,0.166 0.121,0.209 0.075,0.042 0.167,0.042 0.242,-10e-4 l 2.398,-1.393 c 0.148,-0.086 0.239,-0.245 0.239,-0.417 v -4.393 c 0,-0.092 0.05,-0.177 0.13,-0.221 l 2.235,-1.236 v 0 c 0.042,-0.023 0.088,-0.034 0.135,-0.034 0.047,0 0.093,0.012 0.135,0.034 l 2.235,1.237 c 0.08,0.044 0.13,0.129 0.13,0.221 v 4.393 c 0,0.172 0.091,0.331 0.24,0.417 l 2.398,1.393 c 0.075,0.043 0.167,0.043 0.242,0.001 0.074,-0.044 0.12,-0.124 0.12,-0.21 v -7.464 c 0,-0.21 -0.114,-0.4029996 -0.297,-0.5039996 z" id="path10"></path>
  </symbol>
  <symbol version="1.0" xmlns="http://www.w3.org/2000/svg" preserveAspectRatio="xMidYMid meet" viewBox="0 0 256.000000 256.000000" id="php">
    <metadata>Created by potrace 1.16, written by Peter Selinger 2001-2019</metadata>
    <g transform="translate(0.000000,256.000000) scale(0.100000,-0.100000)" fill="#000000" stroke="none">
      <path d="M1145 1688 c-3 -13 -28 -140 -55 -283 -28 -143 -52 -270 -55 -282 -5
-22 -3 -23 59 -23 75 0 65 -18 101 175 36 193 25 175 105 175 51 0 73 -5 91
-19 l22 -18 -30 -152 c-23 -116 -27 -154 -18 -157 7 -3 36 -4 66 -2 l53 3 28
135 c29 145 34 219 17 252 -17 31 -72 48 -180 55 l-99 6 6 36 c3 20 10 53 14
73 4 20 5 39 2 43 -3 3 -31 5 -63 5 -53 0 -59 -2 -64 -22z"></path>
      <path d="M605 1540 c-7 -11 -115 -557 -115 -583 0 -16 8 -18 63 -15 l62 3 16
75 15 75 104 7 c128 8 177 26 230 84 55 60 73 105 74 186 1 53 -3 72 -20 94
-32 43 -65 63 -123 74 -69 13 -298 13 -306 0z m294 -114 c47 -43 10 -174 -59
-208 -41 -21 -170 -26 -170 -6 0 6 10 63 22 126 l22 114 82 -4 c63 -2 87 -7
103 -22z"></path>
      <path d="M1626 1539 c-3 -8 -28 -133 -56 -279 -27 -146 -53 -277 -56 -292 l-6
-28 65 0 66 0 11 58 c22 110 9 99 126 105 86 4 114 10 159 31 91 45 145 134
145 240 0 71 -26 115 -85 146 -44 22 -62 25 -206 28 -128 4 -160 2 -163 -9z
m278 -100 c32 -15 46 -55 36 -105 -19 -101 -51 -126 -169 -132 -78 -4 -83 -3
-78 14 3 11 13 60 22 109 24 135 16 125 95 125 38 0 80 -5 94 -11z"></path>
    </g>
  </symbol>
  <symbol version="1.0" xmlns="http://www.w3.org/2000/svg" preserveAspectRatio="xMidYMid meet" viewBox="0 0 256.000000 256.000000" id="python">
    <metadata>Created by potrace 1.16, written by Peter Selinger 2001-2019</metadata>
    <g transform="translate(0.000000,256.000000) scale(0.100000,-0.100000)" fill="#000000" stroke="none">
      <path d="M1097 2549 c-172 -17 -292 -57 -366 -125 -69 -61 -71 -71 -71 -274
l0 -180 310 0 310 0 0 -35 0 -34 -483 -3 -482 -3 -65 -32 c-36 -17 -79 -47
-97 -65 -51 -53 -99 -142 -124 -231 -21 -74 -24 -103 -24 -282 0 -157 4 -216
18 -276 40 -170 130 -296 242 -338 46 -17 79 -21 185 -21 l130 0 0 153 c0 235
21 324 96 407 48 52 114 86 195 100 35 5 217 10 405 10 281 0 350 3 394 16 97
29 162 83 202 169 22 49 23 59 26 405 4 401 3 407 -72 488 -114 124 -397 183
-729 151z m-124 -210 c37 -19 57 -52 57 -95 0 -103 -129 -141 -187 -55 -28 42
-29 66 -3 109 29 48 86 65 133 41z"></path>
    </g>
  </symbol>
  <symbol version="1.0" xmlns="http://www.w3.org/2000/svg" preserveAspectRatio="xMidYMid meet" viewBox="0 0 512.000000 512.000000" id="React">
    <metadata>Created by potrace 1.16, written by Peter Selinger 2001-2019</metadata>
    <g transform="translate(0.000000,512.000000) scale(0.100000,-0.100000)" stroke="none"></g>
  </symbol>
  <symbol version="1.0" xmlns="http://www.w3.org/2000/svg" preserveAspectRatio="xMidYMid meet" viewBox="0 0 256.000000 256.000000" id="sass">
    <metadata>Created by potrace 1.16, written by Peter Selinger 2001-2019</metadata>
    <g transform="translate(0.000000,256.000000) scale(0.100000,-0.100000)"  stroke="none">
      <path d="M950 2221 c-47 -10 -121 -32 -165 -49 -462 -173 -784 -465 -785 -713
0 -134 88 -245 334 -421 77 -55 145 -104 149 -108 5 -4 -20 -22 -55 -40 -164
-85 -302 -208 -332 -296 -26 -77 -21 -152 13 -205 38 -60 69 -72 178 -67 108
4 172 31 254 106 99 91 147 218 135 358 -3 39 -10 83 -15 96 -8 22 -5 27 22
43 18 10 47 27 65 37 l32 20 -12 -29 c-6 -16 -12 -78 -12 -143 0 -103 2 -121
26 -171 30 -66 59 -89 109 -89 49 0 82 33 124 123 29 61 34 67 35 42 0 -53 20
-105 46 -122 23 -15 28 -15 60 0 22 11 49 39 75 79 40 63 159 301 195 390 10
27 22 48 25 48 4 0 10 -15 13 -32 3 -18 17 -57 31 -86 14 -30 25 -59 25 -66 0
-7 -40 -61 -90 -122 -96 -117 -110 -152 -68 -175 52 -28 205 17 262 77 55 57
67 115 44 213 -11 47 -10 52 15 88 14 21 46 73 70 117 l45 78 7 -33 c4 -19 18
-59 31 -90 l23 -56 -45 -49 c-91 -98 -124 -215 -73 -257 29 -24 62 -18 148 25
106 54 148 127 130 224 -11 57 -9 59 84 75 52 8 88 8 145 0 155 -23 247 -99
247 -203 0 -47 -3 -53 -42 -88 -46 -41 -54 -60 -24 -60 27 0 82 40 108 79 18
26 23 48 23 93 0 106 -63 192 -180 247 -50 24 -66 26 -175 26 -97 -1 -131 -5
-177 -22 l-56 -21 -26 58 c-31 68 -34 143 -10 213 23 69 17 77 -63 77 -37 0
-73 -4 -79 -8 -6 -4 -16 -29 -24 -57 -16 -63 -110 -250 -158 -315 -7 -9 -22
27 -33 80 -9 45 -8 67 7 133 21 95 17 100 -69 93 -68 -5 -83 -15 -91 -60 -6
-33 -168 -403 -219 -501 -24 -46 -26 -48 -27 -21 0 16 16 91 36 168 39 153 38
168 -20 168 -30 0 -31 1 -33 51 -4 134 -139 134 -272 -1 -56 -56 -83 -74 -222
-149 l-76 -40 -29 31 c-16 17 -74 65 -129 108 -174 135 -234 216 -235 312 0
132 97 264 290 393 381 255 801 330 950 170 21 -23 25 -36 25 -89 0 -51 -6
-74 -29 -117 -77 -142 -221 -250 -416 -311 -108 -33 -265 -33 -330 1 -25 13
-55 33 -68 44 -19 17 -25 19 -32 8 -24 -39 54 -127 138 -156 153 -52 429 -9
596 93 93 55 195 164 238 253 113 231 49 410 -174 489 -91 32 -317 38 -438 11z
m140 -1069 c0 -19 -50 -174 -85 -262 -47 -118 -73 -170 -85 -170 -32 0 -40
121 -14 211 34 117 115 229 164 229 11 0 20 -4 20 -8z m-522 -391 c-8 -114
-85 -224 -188 -270 -83 -38 -130 -24 -130 40 0 88 67 172 214 270 105 71 111
68 104 -40z"></path>
    </g>
  </symbol>
  <symbol version="1.1" id="website" x="0px" y="0px" xml:space="preserve" sodipodiDocname="2228aa4f273b61a1d62edc8574511e42.svg" xmlnsInkscape="http://www.inkscape.org/namespaces/inkscape" xmlnsSodipodi="http://sodipodi.sourceforge.net/DTD/sodipodi-0.dtd" xmlns="http://www.w3.org/2000/svg" xmlnsSvg="http://www.w3.org/2000/svg" viewBox="0 0 510 510">
    <defs id="defs61"></defs>
    <sodipodi:namedview id="namedview59" pagecolor="#ffffff" bordercolor="#666666" borderopacity="1.0" inkscapePageshadow="2" inkscapePageopacity="0.0" inkscapePagecheckerboard="0"></sodipodi:namedview>
    <g id="g56" transform="translate(-1,-1)">
      <g id="g8">
        <g id="g6">
          <path d="m 255.999,40.928 c -118.778,0 -215.071,96.294 -215.071,215.074 0,118.776 96.292,215.068 215.071,215.068 118.779,0 215.071,-96.292 215.071,-215.068 0,-118.78 -96.293,-215.074 -215.071,-215.074 z" id="path4"></path>
        </g>
      </g>
      <g id="g14">
        <g id="g12">
          <path d="M 255.999,1 C 115.391,1 1,115.392 1,256.002 1,396.609 115.391,511 255.999,511 396.607,511 511,396.609 511,256.002 511,115.392 396.607,1 255.999,1 Z m 0,501.832 c -136.103,0 -246.83,-110.728 -246.83,-246.83 0,-136.104 110.727,-246.833 246.83,-246.833 136.102,0 246.832,110.729 246.832,246.833 0,136.102 -110.73,246.83 -246.832,246.83 z" id="path10"></path>
        </g>
      </g>
      <path d="m 172.596,380.142 2.343,0.583 -2.343,0.584 c -13.683,3.428 -24.366,14.116 -27.803,27.803 l -0.585,2.336 -0.582,-2.336 c -3.433,-13.687 -14.121,-24.375 -27.81,-27.803 l -2.33,-0.584 2.33,-0.583 c 13.689,-3.43 24.377,-14.123 27.81,-27.806 l 0.582,-2.337 0.585,2.337 c 3.436,13.683 14.119,24.376 27.803,27.806 z" id="path16"></path>
      <path d="m 347.895,91.741 2.042,0.508 -2.042,0.51 c -11.93,2.989 -21.244,12.308 -24.24,24.241 l -0.51,2.037 L 322.637,117 C 319.644,105.067 310.326,95.748 298.391,92.759 l -2.031,-0.51 2.031,-0.508 c 11.935,-2.991 21.253,-12.314 24.246,-24.243 l 0.508,-2.037 0.51,2.037 c 2.996,11.93 12.31,21.252 24.24,24.243 z" id="path18"></path>
      <path d="m 208.797,408.444 1.203,0.299 -1.203,0.3 c -7.027,1.761 -12.514,7.25 -14.279,14.279 l -0.3,1.2 -0.299,-1.2 c -1.763,-7.029 -7.252,-12.518 -14.283,-14.279 l -1.197,-0.3 1.197,-0.299 c 7.03,-1.762 12.519,-7.253 14.283,-14.28 l 0.299,-1.2 0.3,1.2 c 1.765,7.027 7.252,12.518 14.279,14.28 z" id="path20"></path>
      <path d="m 436.956,218.078 1.203,0.299 -1.203,0.3 c -7.027,1.761 -12.514,7.25 -14.279,14.279 l -0.3,1.2 -0.299,-1.2 c -1.763,-7.029 -7.252,-12.518 -14.283,-14.279 l -1.197,-0.3 1.197,-0.299 c 7.03,-1.762 12.519,-7.253 14.283,-14.28 l 0.299,-1.2 0.3,1.2 c 1.765,7.026 7.251,12.518 14.279,14.28 z" id="path22"></path>
      <path d="m 305.765,365.453 h -4.978 c -6.079,0 -11.36,-4.178 -12.759,-10.096 l -3.304,-13.988 h -57.449 l -3.305,13.988 c -1.397,5.918 -6.68,10.096 -12.757,10.096 h -4.978 c -5.722,0 -10.361,4.638 -10.361,10.36 v 5.989 h 120.251 v -5.989 c 10e-4,-5.723 -4.638,-10.36 -10.36,-10.36 z" id="path24"></path>
      <path d="M 379.03,341.369 H 132.97 c -10.762,0 -19.484,-8.722 -19.484,-19.487 V 149.679 c 0,-10.756 8.722,-19.481 19.484,-19.481 h 246.06 c 10.762,0 19.484,8.725 19.484,19.481 v 172.202 c 0,10.765 -8.722,19.488 -19.484,19.488 z" id="path26"></path>
      <path d="M 113.486,302.103 V 149.679 c 0,-10.756 8.722,-19.481 19.484,-19.481 h 246.06 c 10.762,0 19.484,8.725 19.484,19.481 v 152.424 z" id="path28"></path>
      <rect x="128.52" y="146.517" width="254.96001" height="143.71899" id="rect30"></rect>
      <path d="m 264.438,318.06 c 0,4.661 -3.778,8.439 -8.438,8.439 -4.66,0 -8.438,-3.777 -8.438,-8.439 0,-4.66 3.778,-8.438 8.438,-8.438 4.66,0 8.438,3.778 8.438,8.438 z" id="path32"></path>
      <path d="M 364.682,290.236 V 177.357 c 0,-8.542 -6.925,-15.469 -15.469,-15.469 H 162.791 c -8.545,0 -15.473,6.927 -15.473,15.469 v 112.879 z" id="path34"></path>
      <path d="m 313.649,175.193 c 0,2.548 -2.065,4.613 -4.613,4.613 -2.548,0 -4.613,-2.065 -4.613,-4.613 0,-2.547 2.065,-4.613 4.613,-4.613 2.548,-0.001 4.613,2.065 4.613,4.613 z" id="path36"></path>
      <path d="m 332.376,175.193 c 0,2.548 -2.065,4.613 -4.613,4.613 -2.551,0 -4.614,-2.065 -4.614,-4.613 0,-2.547 2.063,-4.613 4.614,-4.613 2.547,-0.001 4.613,2.065 4.613,4.613 z" id="path38"></path>
      <path d="m 351.102,175.193 c 0,2.548 -2.064,4.613 -4.614,4.613 -2.548,0 -4.613,-2.065 -4.613,-4.613 0,-2.547 2.065,-4.613 4.613,-4.613 2.549,-0.001 4.614,2.065 4.614,4.613 z" id="path40"></path>
      <rect x="147.31799" y="189.351" width="217.364" height="100.886" id="rect42"></rect>
      <g id="g50">
        <path d="m 195.139,209.28 4.955,16.979 4.509,-15.782 c 0.482,-1.651 0.84,-2.779 1.072,-3.382 0.231,-0.603 0.668,-1.178 1.308,-1.726 0.641,-0.547 1.518,-0.821 2.631,-0.821 1.132,0 2.018,0.274 2.658,0.821 0.64,0.547 1.09,1.141 1.35,1.781 0.26,0.64 0.622,1.749 1.086,3.326 l 4.509,15.782 5.011,-16.979 c 0.334,-1.225 0.603,-2.111 0.807,-2.658 0.204,-0.547 0.548,-1.03 1.03,-1.447 0.482,-0.418 1.178,-0.626 2.088,-0.626 0.909,0 1.697,0.316 2.365,0.946 0.669,0.631 1.003,1.374 1.003,2.227 0,0.779 -0.288,1.958 -0.863,3.535 l -6.207,18.204 c -0.539,1.541 -0.956,2.654 -1.253,3.34 -0.297,0.686 -0.766,1.299 -1.405,1.837 -0.641,0.538 -1.518,0.807 -2.631,0.807 -1.15,0 -2.055,-0.288 -2.714,-0.863 -0.658,-0.575 -1.146,-1.28 -1.461,-2.115 -0.315,-0.835 -0.659,-1.921 -1.03,-3.257 l -4.342,-14.808 -4.203,14.808 c -0.557,2.06 -1.16,3.614 -1.81,4.662 -0.649,1.048 -1.791,1.573 -3.424,1.573 -0.835,0 -1.545,-0.163 -2.129,-0.487 -0.585,-0.325 -1.071,-0.789 -1.461,-1.392 -0.391,-0.603 -0.733,-1.317 -1.03,-2.143 -0.297,-0.826 -0.529,-1.479 -0.696,-1.962 l -6.151,-18.204 c -0.612,-1.707 -0.918,-2.885 -0.918,-3.535 0,-0.816 0.324,-1.549 0.974,-2.199 0.649,-0.649 1.447,-0.974 2.394,-0.974 1.262,0 2.116,0.357 2.562,1.072 0.446,0.715 0.915,1.934 1.416,3.66 z" id="path44"></path>
        <path d="m 241.483,209.28 4.955,16.979 4.509,-15.782 c 0.482,-1.651 0.84,-2.779 1.072,-3.382 0.231,-0.603 0.668,-1.178 1.308,-1.726 0.641,-0.547 1.518,-0.821 2.631,-0.821 1.132,0 2.018,0.274 2.658,0.821 0.64,0.547 1.09,1.141 1.35,1.781 0.26,0.64 0.622,1.749 1.086,3.326 l 4.509,15.782 5.011,-16.979 c 0.334,-1.225 0.603,-2.111 0.807,-2.658 0.204,-0.547 0.548,-1.03 1.03,-1.447 0.482,-0.418 1.178,-0.626 2.088,-0.626 0.909,0 1.697,0.316 2.365,0.946 0.669,0.631 1.003,1.374 1.003,2.227 0,0.779 -0.288,1.958 -0.863,3.535 l -6.207,18.204 c -0.539,1.541 -0.956,2.654 -1.253,3.34 -0.297,0.686 -0.766,1.299 -1.405,1.837 -0.641,0.538 -1.518,0.807 -2.631,0.807 -1.15,0 -2.055,-0.288 -2.714,-0.863 -0.658,-0.575 -1.146,-1.28 -1.461,-2.115 -0.315,-0.835 -0.659,-1.921 -1.03,-3.257 l -4.342,-14.808 -4.203,14.808 c -0.557,2.06 -1.16,3.614 -1.81,4.662 -0.649,1.048 -1.791,1.573 -3.424,1.573 -0.835,0 -1.545,-0.163 -2.129,-0.487 -0.585,-0.325 -1.071,-0.789 -1.461,-1.392 -0.391,-0.603 -0.733,-1.317 -1.03,-2.143 -0.297,-0.826 -0.529,-1.479 -0.696,-1.962 l -6.151,-18.204 c -0.612,-1.707 -0.918,-2.885 -0.918,-3.535 0,-0.816 0.324,-1.549 0.974,-2.199 0.649,-0.649 1.447,-0.974 2.394,-0.974 1.262,0 2.116,0.357 2.562,1.072 0.446,0.715 0.915,1.934 1.416,3.66 z" id="path46"></path>
        <path d="m 287.828,209.28 4.955,16.979 4.509,-15.782 c 0.482,-1.651 0.84,-2.779 1.072,-3.382 0.231,-0.603 0.668,-1.178 1.308,-1.726 0.641,-0.547 1.518,-0.821 2.631,-0.821 1.132,0 2.018,0.274 2.658,0.821 0.64,0.547 1.09,1.141 1.35,1.781 0.26,0.64 0.622,1.749 1.086,3.326 l 4.509,15.782 5.011,-16.979 c 0.334,-1.225 0.603,-2.111 0.807,-2.658 0.204,-0.547 0.548,-1.03 1.03,-1.447 0.482,-0.418 1.178,-0.626 2.088,-0.626 0.909,0 1.697,0.316 2.365,0.946 0.669,0.631 1.003,1.374 1.003,2.227 0,0.779 -0.288,1.958 -0.863,3.535 l -6.207,18.204 c -0.539,1.541 -0.956,2.654 -1.253,3.34 -0.297,0.686 -0.766,1.299 -1.405,1.837 -0.641,0.538 -1.518,0.807 -2.631,0.807 -1.15,0 -2.055,-0.288 -2.714,-0.863 -0.658,-0.575 -1.146,-1.28 -1.461,-2.115 -0.315,-0.835 -0.659,-1.921 -1.03,-3.257 l -4.342,-14.808 -4.203,14.808 c -0.557,2.06 -1.16,3.614 -1.81,4.662 -0.649,1.048 -1.791,1.573 -3.424,1.573 -0.835,0 -1.545,-0.163 -2.129,-0.487 -0.585,-0.325 -1.071,-0.789 -1.461,-1.392 -0.391,-0.603 -0.733,-1.317 -1.03,-2.143 -0.297,-0.826 -0.529,-1.479 -0.696,-1.962 L 281.4,211.256 c -0.612,-1.707 -0.918,-2.885 -0.918,-3.535 0,-0.816 0.324,-1.549 0.974,-2.199 0.649,-0.649 1.447,-0.974 2.394,-0.974 1.262,0 2.116,0.357 2.562,1.072 0.446,0.715 0.915,1.934 1.416,3.66 z" id="path48"></path>
      </g>
      <rect x="165.60201" y="244.74001" width="180.79601" height="11.542" id="rect52"></rect>
      <rect x="165.60201" y="266.70801" width="180.79601" height="11.542" id="rect54"></rect>
    </g>
  </symbol>
</svg>