<?xml version="1.0" standalone="no"?>
<!DOCTYPE svg PUBLIC "-//W3C//DTD SVG 20010904//EN"
 "http://www.w3.org/TR/2001/REC-SVG-20010904/DTD/svg10.dtd">
<svg version="1.0" xmlns="http://www.w3.org/2000/svg"
 width="512.000000pt" height="512.000000pt" viewBox="0 0 512.000000 512.000000"
 preserveAspectRatio="xMidYMid meet">
<metadata>
Created by potrace 1.16, written by Peter Selinger 2001-2019
</metadata>
<g transform="translate(0.000000,512.000000) scale(0.100000,-0.100000)"
fill="#000000" stroke="none">
<path d="M2903 5084 c3 -4 0 -13 -8 -21 -8 -8 -15 -22 -14 -31 0 -14 2 -13 8
3 11 27 21 -37 21 -131 0 -120 -43 -230 -135 -345 -68 -84 -222 -221 -189
-168 17 27 -241 -186 -326 -269 -52 -52 -89 -91 -82 -87 18 9 15 -10 -5 -26
-15 -12 -16 -12 -8 1 8 13 7 13 -8 1 -18 -15 -23 -26 -7 -16 14 9 13 7 -20
-59 -24 -47 -30 -72 -30 -122 0 -131 75 -257 279 -469 75 -77 105 -111 67 -75
-169 162 -248 255 -306 360 -16 30 -30 50 -30 44 0 -15 64 -120 112 -181 63
-83 304 -316 327 -318 11 -1 23 5 25 12 3 8 2 12 -3 8 -5 -3 -21 16 -35 41
-30 53 -31 58 -13 48 7 -4 9 -3 4 2 -5 5 -14 9 -19 9 -6 0 -13 6 -16 14 -3 9
0 11 8 6 9 -5 11 -4 6 4 -4 6 -11 9 -16 6 -14 -9 -157 221 -180 291 -30 88
-25 185 13 268 15 31 31 55 36 52 5 -4 13 -1 17 5 4 8 3 9 -4 5 -7 -4 -12 -3
-12 2 0 18 115 134 220 222 60 50 146 130 191 178 46 48 73 74 62 57 -28 -40
-187 -193 -298 -286 -50 -42 -106 -96 -124 -120 l-33 -44 42 48 c23 26 79 77
124 114 97 80 255 232 299 288 18 21 26 36 20 32 -7 -5 -13 -4 -13 2 0 5 5 13
10 16 6 4 25 31 41 61 18 31 35 51 41 47 7 -4 8 -1 4 6 -5 7 1 34 13 60 52
121 49 259 -7 366 -36 68 -37 69 -21 60 8 -5 5 1 -5 13 -11 12 -21 22 -24 22
-3 0 -3 -3 1 -6z"/>
<path d="M3289 4374 c8 -4 -31 -23 -93 -44 -132 -47 -269 -112 -354 -167 -68
-45 -77 -49 -67 -33 10 16 -1 11 -16 -7 -12 -15 -12 -16 1 -8 13 8 13 7 1 -8
-16 -20 -35 -23 -26 -4 4 6 -23 -18 -58 -55 -36 -37 -71 -77 -77 -90 -8 -16
-4 -14 12 7 12 17 45 53 72 80 l49 50 -52 -59 c-28 -32 -59 -72 -67 -88 -8
-16 -20 -26 -26 -22 -7 4 -8 3 -4 -5 4 -6 0 -32 -10 -56 -12 -34 -15 -64 -12
-127 6 -89 26 -147 78 -225 33 -48 36 -58 18 -47 -7 4 3 -12 23 -37 20 -24 43
-57 52 -74 9 -16 16 -25 17 -20 0 10 -14 33 -58 97 -20 28 -18 27 12 -7 87
-97 87 -221 1 -320 l-27 -30 22 35 22 35 -24 -27 c-25 -30 -33 -64 -17 -74 5
-3 8 0 7 7 -2 6 3 14 11 17 9 3 11 0 6 -9 -5 -8 -4 -11 1 -6 5 5 9 12 9 17 0
4 28 29 63 55 143 108 201 228 165 343 -9 31 -17 62 -18 69 0 6 -4 15 -9 20
-5 4 -6 3 -2 -4 4 -7 5 -13 3 -13 -9 0 -79 102 -115 169 -80 146 -35 254 176
418 74 58 313 214 345 226 16 6 8 13 -23 21 -14 3 -19 3 -11 0z"/>
<path d="M3619 3216 c-2 -3 -52 -6 -111 -8 -58 -2 -102 -6 -96 -9 5 -3 2 -9
-7 -13 -24 -9 -27 -8 -19 7 4 7 3 9 -2 4 -5 -5 -7 -10 -4 -12 3 -1 -3 -12 -13
-23 -19 -21 -16 -42 6 -42 8 0 8 3 -2 9 -20 13 82 35 126 26 57 -10 109 -41
140 -82 25 -32 28 -45 28 -107 0 -87 -18 -126 -94 -208 -59 -64 -138 -123
-241 -182 -57 -32 -59 -26 -4 12 11 7 7 7 -11 -2 -17 -8 -39 -24 -50 -37 -11
-12 -15 -19 -8 -16 6 4 13 3 15 -3 4 -11 186 49 260 86 242 123 348 299 269
451 -26 51 -65 86 -131 118 -37 18 -45 25 -25 21 22 -5 26 -4 15 4 -16 10 -34
13 -41 6z"/>
<path d="M1995 3169 c-27 -5 -63 -7 -80 -5 -16 2 -21 1 -10 -1 13 -3 -11 -14
-64 -29 -104 -31 -222 -79 -256 -106 -14 -10 -26 -29 -26 -41 -1 -18 -2 -19
-6 -4 -6 24 27 60 78 82 21 10 37 20 35 22 -7 8 -81 -35 -104 -60 -23 -24 -27
-62 -7 -62 6 0 21 -8 35 -17 30 -20 115 -42 230 -60 137 -21 777 -18 955 5
231 30 331 54 413 99 40 22 78 38 85 35 8 -3 14 3 14 14 1 11 -1 17 -5 15 -12
-7 -278 -44 -432 -60 -431 -45 -994 -36 -1026 15 -3 5 7 4 21 -1 15 -6 34 -10
43 -9 9 0 2 5 -15 10 -18 5 -33 14 -33 20 0 6 -6 7 -12 4 -7 -4 -3 3 10 14 29
25 155 74 254 98 43 10 78 21 78 26 0 9 -111 7 -175 -4z"/>
<path d="M1970 2789 c-12 -8 -9 -9 10 -4 14 3 0 -6 -30 -20 -30 -14 -62 -33
-72 -42 -10 -9 -21 -14 -24 -10 -3 3 18 19 48 36 29 17 48 31 42 31 -14 0
-100 -55 -109 -71 -6 -8 -4 -10 5 -4 8 5 11 3 8 -6 -3 -8 -11 -14 -19 -14 -8
0 -15 -11 -16 -25 l-2 -25 8 25 c6 16 9 19 10 8 1 -9 4 -24 8 -34 5 -13 3 -15
-8 -9 -8 5 -3 -4 11 -19 26 -29 78 -61 86 -53 3 2 -9 10 -25 17 -16 6 -38 21
-48 32 -14 16 -9 14 21 -6 47 -31 133 -59 241 -77 121 -21 518 -18 670 4 136
20 375 75 375 86 0 5 -19 17 -42 27 -23 10 -55 29 -70 42 l-28 23 -127 -20
c-267 -42 -477 -51 -716 -30 -175 15 -228 46 -175 101 14 15 17 16 8 3 -15
-20 -15 -20 8 -1 12 11 19 23 15 27 -16 14 -48 18 -63 8z"/>
<path d="M2087 2423 c9 -6 -3 -15 -38 -27 -28 -10 -65 -30 -82 -44 l-32 -26
23 26 c13 15 37 32 53 39 16 6 28 14 25 16 -8 8 -61 -25 -91 -58 -16 -17 -25
-29 -19 -26 6 3 10 -7 10 -28 0 -21 -4 -31 -10 -27 -6 3 -5 -2 2 -11 8 -9 19
-15 25 -14 6 1 11 -3 12 -10 0 -7 6 -18 14 -25 11 -11 13 -11 6 1 -5 9 -3 12
6 9 8 -3 13 -10 12 -16 -2 -7 4 -9 14 -5 12 5 14 3 8 -7 -5 -8 -4 -11 3 -6 6
3 38 -2 71 -14 158 -53 443 -66 658 -30 115 19 343 85 343 99 0 4 -44 28 -97
54 l-98 48 -130 -22 c-219 -38 -645 -23 -692 23 -15 15 -8 48 10 48 7 0 7 -4
-1 -12 -7 -7 -12 -16 -12 -22 0 -5 6 -1 14 9 17 24 15 57 -4 62 -11 3 -12 2
-3 -4z"/>
<path d="M1630 2161 c17 -2 1 -9 -50 -22 -78 -20 -212 -79 -243 -106 -9 -9
-20 -14 -23 -10 -3 3 15 17 40 32 25 15 46 29 46 32 0 10 -81 -42 -102 -65
-13 -14 -17 -22 -9 -17 9 5 12 3 9 -6 -3 -8 -11 -14 -19 -14 -8 0 -15 -11 -16
-25 l-2 -25 8 25 c6 16 9 19 10 8 1 -9 4 -24 8 -34 5 -13 3 -15 -8 -9 -12 8
-12 6 0 -9 8 -9 24 -22 35 -27 17 -8 16 -6 -4 11 l-25 21 43 -21 c72 -35 335
-75 651 -100 175 -13 654 -13 818 1 400 32 740 114 839 202 32 28 48 26 22 -2
-10 -11 -10 -12 -1 -7 7 4 18 16 24 28 8 15 8 19 0 14 -14 -9 -14 -4 -1 29 5
14 6 24 1 21 -10 -6 -44 28 -36 36 3 3 -2 11 -10 18 -23 19 -40 -2 -37 -45 2
-30 -2 -38 -30 -55 -18 -11 -28 -20 -22 -20 6 0 24 10 39 21 20 17 26 28 23
50 -3 15 -1 26 4 23 16 -10 7 -51 -16 -73 -134 -126 -1200 -195 -1782 -116
-174 24 -304 62 -304 90 0 18 27 38 40 30 6 -4 9 -1 8 6 -4 17 144 67 221 75
34 4 61 11 61 15 0 5 -5 9 -11 9 -5 0 -8 3 -6 8 3 4 -45 7 -107 7 -61 0 -100
-2 -86 -4z"/>
<path d="M3780 1938 c-38 -33 -20 -28 20 6 l25 21 -25 -28 c-93 -105 -512
-204 -1010 -238 -294 -20 -924 2 -1031 36 -19 6 -34 -21 -17 -31 7 -4 8 -3 4
4 -9 15 -6 15 36 -3 204 -85 920 -110 1397 -50 157 20 297 50 398 86 46 16 89
27 95 23 7 -5 8 -3 3 6 -6 10 -4 12 7 7 9 -3 24 1 35 9 17 14 16 14 -7 4 l-25
-11 25 20 c28 23 44 27 35 9 -4 -7 16 10 44 39 28 28 51 57 51 65 0 7 -8 0
-19 -17 -10 -16 -31 -41 -47 -55 -26 -22 -26 -21 3 10 36 39 60 97 47 110 -5
5 -25 -5 -44 -22z"/>
<path d="M1368 862 l-3 -549 -30 -49 c-18 -29 -50 -61 -77 -79 -26 -16 -47
-34 -47 -39 -1 -5 16 -27 36 -50 29 -32 45 -41 69 -41 18 0 30 4 26 9 -3 5 2
7 10 3 18 -6 47 11 102 62 40 37 96 117 96 135 0 6 -13 -12 -29 -39 -30 -53
-101 -125 -142 -144 -23 -11 -23 -11 1 6 60 41 128 122 151 179 l24 59 3 543
3 542 -95 0 -95 0 -3 -548z"/>
<path d="M1935 1138 c-38 -4 -81 -5 -95 -4 -14 2 -18 1 -10 -2 8 -3 -10 -13
-40 -23 -62 -21 -82 -24 -60 -8 13 9 13 10 0 6 -17 -4 -20 -62 -7 -110 6 -22
5 -27 -5 -21 -10 6 -9 3 1 -9 7 -9 19 -17 25 -17 6 0 6 4 -2 9 -23 14 135 51
219 51 122 0 161 -36 157 -148 l-1 -57 -7 65 -7 65 -1 -61 -2 -61 -97 -5
c-120 -7 -198 -34 -262 -92 -42 -39 -48 -35 -12 8 9 11 11 16 4 12 -7 -3 -22
-21 -35 -38 -12 -17 -17 -28 -10 -24 16 9 15 1 -2 -32 -54 -105 -10 -249 91
-301 45 -23 126 -32 183 -20 30 7 65 12 77 13 11 0 19 5 15 10 -3 5 2 7 10 3
9 -3 25 1 37 9 12 8 26 12 31 9 6 -3 10 1 10 10 0 14 -5 14 -35 -5 -48 -30
-44 -19 5 14 l40 26 0 -24 c0 -51 7 -56 82 -56 l69 0 -3 318 c-3 346 -5 359
-66 427 l-27 30 32 -29 c17 -15 37 -41 44 -57 6 -17 14 -28 16 -25 16 15 -62
108 -95 112 -9 1 -35 9 -57 17 -52 19 -123 24 -210 15z m185 -530 l0 -93 -47
-30 c-36 -22 -62 -30 -110 -33 -59 -4 -64 -2 -93 26 -25 25 -30 39 -30 77 0
65 21 100 72 119 59 21 74 24 146 25 l62 1 0 -92z"/>
<path d="M3405 1139 c-38 -4 -83 -6 -100 -3 -20 3 -24 1 -12 -4 14 -6 5 -12
-38 -25 -31 -9 -60 -15 -64 -13 -11 7 -12 -44 -1 -85 6 -22 13 -39 15 -39 3 0
39 9 81 21 58 16 98 20 161 17 81 -3 86 -4 114 -36 26 -29 29 -38 27 -100 l-1
-67 -7 65 -7 65 -1 -61 -2 -61 -97 -5 c-117 -6 -197 -34 -255 -86 -61 -55 -82
-104 -80 -184 3 -99 6 -117 16 -110 5 3 7 -1 4 -9 -3 -9 3 -26 14 -40 l20 -24
-17 30 -18 30 34 -31 c44 -41 68 -53 132 -64 37 -7 69 -7 107 1 30 7 65 12 77
13 11 0 19 5 15 10 -3 5 2 7 10 3 9 -3 25 1 37 9 12 8 26 12 31 9 6 -3 10 1
10 10 0 14 -5 14 -35 -5 -48 -30 -44 -19 5 14 l40 26 0 -24 c0 -51 7 -56 82
-56 l69 0 -3 323 c-3 292 -5 325 -22 357 -48 90 -98 118 -246 134 -14 1 -56
-1 -95 -5z m185 -531 l0 -93 -47 -30 c-66 -41 -157 -48 -197 -13 -21 18 -29
36 -33 71 -12 107 51 153 215 156 l62 1 0 -92z"/>
<path d="M2376 1106 c-3 -13 -1 -35 4 -48 8 -19 9 -17 4 12 -4 19 -4 33 -1 30
4 -4 201 -640 229 -738 l9 -32 104 0 104 0 16 31 c60 116 156 407 199 604 15
66 29 130 31 143 5 22 4 22 -88 22 l-94 0 -13 -87 c-16 -110 -61 -298 -103
-428 l-31 -99 -9 39 c-5 22 -45 160 -90 308 l-81 267 -92 0 c-89 0 -92 -1 -98
-24z"/>
</g>
</svg>
