<?xml version="1.0" standalone="no"?>
<!DOCTYPE svg PUBLIC "-//W3C//DTD SVG 20010904//EN"
 "http://www.w3.org/TR/2001/REC-SVG-20010904/DTD/svg10.dtd">
<svg version="1.0" xmlns="http://www.w3.org/2000/svg"
 width="256.000000pt" height="256.000000pt" viewBox="0 0 256.000000 256.000000"
 preserveAspectRatio="xMidYMid meet">
<metadata>
Created by potrace 1.16, written by Peter Selinger 2001-2019
</metadata>
<g transform="translate(0.000000,256.000000) scale(0.100000,-0.100000)"
fill="#000000" stroke="none">
<path d="M1859 1390 c-111 -19 -191 -77 -239 -172 -25 -52 -30 -73 -30 -134 0
-178 75 -264 322 -371 132 -56 188 -102 188 -152 0 -79 -61 -125 -165 -124
-79 0 -129 23 -187 85 l-46 50 -91 -52 c-50 -29 -91 -56 -91 -60 0 -13 75
-104 111 -135 80 -67 202 -100 347 -93 83 4 109 10 163 35 88 41 123 74 160
148 30 61 31 70 27 152 -9 181 -82 258 -351 374 -114 49 -157 89 -157 145 0
46 14 70 50 89 62 32 135 13 187 -49 l28 -34 85 55 c47 30 87 57 89 59 8 7
-43 76 -81 109 -73 62 -209 94 -319 75z"/>
<path d="M1156 1198 c-4 -101 -6 -297 -4 -435 2 -242 1 -254 -18 -280 -12 -16
-37 -33 -57 -40 -70 -23 -126 2 -183 82 l-20 29 -88 -54 c-48 -29 -89 -57 -92
-62 -9 -14 34 -75 88 -123 72 -64 155 -89 286 -83 116 5 176 31 240 103 77 87
76 83 80 593 l3 452 -114 0 -114 0 -7 -182z"/>
</g>
</svg>
