<?xml version="1.0" standalone="no"?>
<!DOCTYPE svg PUBLIC "-//W3C//DTD SVG 20010904//EN"
 "http://www.w3.org/TR/2001/REC-SVG-20010904/DTD/svg10.dtd">
<svg version="1.0" xmlns="http://www.w3.org/2000/svg"
 width="256.000000pt" height="256.000000pt" viewBox="0 0 256.000000 256.000000"
 preserveAspectRatio="xMidYMid meet">
<metadata>
Created by potrace 1.16, written by Peter Selinger 2001-2019
</metadata>
<g transform="translate(0.000000,256.000000) scale(0.100000,-0.100000)"
fill="#000000" stroke="none">
<path d="M1619 1945 c-1 -3 -2 -9 -3 -14 -2 -13 -16 -26 -29 -26 -7 0 -13 -14
-15 -30 -2 -23 6 -43 33 -78 19 -25 40 -57 45 -69 5 -14 9 -17 9 -7 1 8 -17
40 -39 69 -28 37 -40 63 -39 84 1 31 1 31 8 -5 4 -19 24 -57 44 -84 20 -26 37
-55 37 -63 0 -8 16 -48 35 -88 34 -69 35 -76 24 -119 -26 -103 10 -237 67
-251 28 -7 54 10 54 37 0 33 15 27 48 -20 l33 -46 -36 39 c-19 22 -35 34 -35
28 0 -18 132 -131 147 -125 12 5 11 8 -2 23 -8 9 -13 20 -10 23 3 4 2 5 -2 2
-8 -6 -33 14 -33 27 0 6 8 4 18 -3 15 -13 16 -12 3 3 -7 10 -17 15 -22 13 -9
-6 -74 107 -84 147 -7 27 -40 44 -52 26 -3 -7 -1 -8 5 -4 15 9 16 -6 1 -21 -6
-6 -16 -32 -23 -59 -12 -48 -13 -48 -26 -25 -20 38 -24 139 -6 194 8 27 12 56
10 65 -3 10 2 6 10 -8 8 -14 15 -20 16 -13 0 7 -12 25 -26 40 -15 15 -21 20
-14 11 7 -10 8 -18 3 -18 -11 0 -28 33 -54 108 -10 30 -35 76 -55 103 -19 27
-33 55 -31 61 3 8 6 6 6 -4 1 -11 6 -15 16 -12 8 3 32 -4 52 -16 26 -16 52
-22 81 -21 82 4 205 -72 280 -173 52 -71 95 -163 87 -185 -3 -9 -3 -12 1 -8 4
4 23 -21 41 -55 37 -69 38 -72 21 -62 -7 4 -8 3 -4 -4 4 -6 14 -8 23 -5 11 4
14 3 9 -5 -5 -8 -2 -10 9 -6 20 8 67 -11 130 -53 36 -24 44 -33 29 -33 -39 0
-122 -30 -128 -47 -5 -12 6 -29 35 -57 23 -23 38 -35 34 -27 -9 16 -8 15 63
-22 28 -15 52 -30 52 -32 0 -3 -22 6 -50 20 -68 34 -64 24 5 -13 30 -17 52
-25 49 -20 -4 6 -1 8 7 6 8 -3 13 -10 12 -16 -1 -5 5 -16 15 -23 9 -7 14 -9
10 -5 -4 5 0 15 10 22 16 12 15 14 -7 38 -13 14 -27 23 -31 21 -4 -3 -16 5
-26 17 -11 11 -36 32 -58 45 -47 30 -38 44 31 46 49 2 51 3 47 30 -2 19 0 26
9 21 7 -4 1 5 -12 19 -31 34 -98 80 -119 82 -9 1 -35 10 -57 21 -43 20 -48 29
-126 197 -30 65 -58 107 -107 160 -37 39 -54 61 -38 49 42 -32 91 -92 132
-159 19 -31 34 -52 34 -46 0 15 -73 123 -112 164 -41 43 -94 89 -84 72 11 -20
3 -16 -54 22 -53 36 -106 55 -152 55 -15 0 -30 5 -33 10 -10 16 -63 41 -108
50 -37 7 -38 8 -11 9 17 1 51 -10 77 -22 25 -13 44 -20 40 -14 -15 25 -139 61
-144 42z"/>
<path d="M121 1140 c-88 -9 -92 -19 -89 -224 l3 -171 47 -3 47 -3 3 148 3 147
59 -132 c32 -73 68 -139 80 -147 28 -20 79 -19 105 3 11 9 48 78 81 152 l60
135 0 -152 0 -153 45 0 c28 0 47 5 50 13 2 6 6 90 7 185 2 95 2 168 0 163 -2
-5 -14 2 -27 15 -18 18 -35 24 -70 24 -25 0 -48 0 -52 0 -5 0 -8 -3 -8 -7 0
-5 -8 -19 -16 -33 -9 -14 -40 -80 -70 -147 -29 -67 -56 -119 -60 -115 -3 4
-30 63 -59 132 -29 69 -58 132 -65 140 -8 8 -14 19 -13 23 0 13 -3 13 -61 7z"/>
<path d="M1177 1139 c-9 -6 -15 -14 -12 -18 5 -9 -33 -48 -44 -43 -3 1 -6 -24
-7 -55 l-1 -58 7 60 7 60 1 -52 c1 -28 5 -59 9 -69 5 -13 3 -15 -8 -9 -12 8
-12 6 0 -9 17 -20 64 -46 83 -46 7 0 -6 9 -29 20 -24 10 -43 21 -43 24 0 3 19
-4 43 -14 29 -14 65 -20 119 -20 42 0 83 -3 92 -6 24 -9 21 -71 -3 -84 -11 -5
-74 -10 -140 -10 l-121 0 0 -35 0 -35 128 0 c84 1 140 6 167 15 49 18 48 18
39 3 -4 -7 8 1 26 18 24 24 33 43 37 78 5 44 -9 82 -27 71 -4 -3 -13 2 -20 10
-7 8 -9 15 -4 15 5 0 0 7 -10 15 -11 8 -25 15 -30 15 -6 -1 0 -8 14 -16 15 -9
17 -12 5 -8 -11 4 -63 10 -115 13 -52 3 -101 10 -107 14 -19 12 -16 74 3 81 9
3 74 6 145 6 l129 0 0 36 0 36 -152 -4 c-84 -2 -162 -7 -173 -11 -11 -4 -6 -1
10 7 17 8 23 15 15 15 -8 0 -23 -4 -33 -10z"/>
<path d="M1589 1133 c-1 -1 -2 -6 -3 -11 0 -4 -12 -21 -25 -37 -13 -17 -21
-22 -18 -12 4 10 3 16 -2 12 -5 -3 -12 5 -14 17 -2 13 -2 10 0 -7 3 -16 8 -86
12 -155 4 -69 10 -134 15 -145 4 -12 1 -10 -8 5 -8 14 -15 20 -16 14 0 -7 9
-22 21 -35 11 -13 18 -18 14 -11 -9 17 1 15 32 -5 21 -14 50 -18 131 -19 87
-1 106 -4 120 -20 15 -16 14 -16 -8 1 -21 17 -20 15 4 -13 30 -32 50 -45 26
-17 -8 9 -9 15 -2 15 6 0 14 -4 17 -10 8 -13 105 -13 105 1 0 5 6 7 13 3 6 -4
-4 9 -22 29 -19 21 -40 37 -45 37 -6 0 3 -11 19 -25 17 -13 25 -24 19 -25 -6
0 -21 11 -34 25 -20 21 -21 25 -7 31 28 10 40 74 36 192 -3 61 -2 108 1 105 3
-2 8 -59 11 -126 l5 -122 2 115 c2 107 -5 145 -25 145 -5 0 -21 10 -37 23 -16
12 -24 22 -19 22 5 0 15 -6 23 -12 12 -11 12 -10 2 3 -10 13 -38 16 -177 16
-91 0 -166 -2 -166 -4z m270 -72 c10 -7 13 -36 12 -122 -1 -62 -4 -115 -7
-118 -2 -2 -17 7 -32 22 -20 19 -40 27 -77 30 l-50 3 51 2 c42 2 54 -2 74 -23
13 -14 25 -23 28 -20 2 2 -9 15 -24 29 -34 30 -120 37 -130 11 -4 -8 -11 -12
-18 -8 -6 4 -5 -1 3 -10 16 -20 26 -23 14 -4 -4 6 6 1 23 -13 l31 -25 -30 -3
c-16 -2 -40 -1 -53 2 -24 6 -24 9 -24 125 0 86 3 121 13 124 21 9 181 7 196
-2z"/>
<path d="M2004 1126 c-3 -8 -4 -82 -2 -164 2 -114 7 -154 18 -169 8 -10 5 -8
-7 5 -13 13 -23 19 -23 14 0 -4 14 -21 32 -38 17 -16 27 -23 23 -15 -6 11 -4
13 11 6 41 -17 104 -24 212 -25 l112 0 0 35 0 35 -117 0 c-179 0 -163 -16
-163 171 l0 159 -45 0 c-30 0 -47 -5 -51 -14z"/>
<path d="M668 911 c-2 -60 1 -109 6 -108 5 1 11 -4 14 -12 3 -9 0 -11 -9 -6
-8 5 -7 0 3 -10 19 -20 27 -21 186 -23 111 -2 113 -2 110 -24 -3 -23 -6 -23
-155 -26 l-153 -3 0 -34 0 -35 150 0 c111 0 160 4 187 15 43 18 46 18 37 3 -4
-7 2 -4 14 6 24 21 29 32 10 20 -8 -5 -9 -2 -5 10 4 10 7 21 7 24 0 4 5 0 11
-8 9 -12 10 -12 5 3 -3 10 -6 86 -6 168 l0 149 -50 0 -50 0 0 -105 0 -106
-102 3 -103 3 -3 103 -3 102 -49 0 -49 0 -3 -109z"/>
</g>
</svg>
