<?xml version="1.0" encoding="UTF-8" standalone="no"?>
<svg
   viewBox="0 0 48 19.046518"
   width="48"
   height="19.046518"
   version="1.1"
   id="svg12"
   sodipodi:docname="5c3a7761a510b52dd38af4e93a687362.svg"
   xmlns:inkscape="http://www.inkscape.org/namespaces/inkscape"
   xmlns:sodipodi="http://sodipodi.sourceforge.net/DTD/sodipodi-0.dtd"
   xmlns="http://www.w3.org/2000/svg"
   xmlns:svg="http://www.w3.org/2000/svg">
  <defs
     id="defs16" />
  <sodipodi:namedview
     id="namedview14"
     pagecolor="#ffffff"
     bordercolor="#666666"
     borderopacity="1.0"
     inkscape:pageshadow="2"
     inkscape:pageopacity="0.0"
     inkscape:pagecheckerboard="0" />
  <path
     fill="#388e3c"
     d="m 17.204,7.1217674 -4.907,2.715 C 12.113,9.9377674 12,10.125767 12,10.328767 v 5.433 c 0,0.203 0.113,0.39 0.297,0.492 l 4.908,2.717 c 0.183,0.101 0.41,0.101 0.593,0 l 4.907,-2.717 c 0.182,-0.102 0.295,-0.289 0.295,-0.492 v -5.433 c 0,-0.203 -0.113,-0.3899996 -0.297,-0.4919996 l -4.906,-2.715 c -0.092,-0.051 -0.195,-0.076 -0.297,-0.076 -0.103,0 -0.205,0.025 -0.297,0.076 m 25.248,4.8909996 -0.818,0.452 c -0.031,0.017 -0.049,0.048 -0.049,0.082 v 0.906 c 0,0.034 0.019,0.065 0.049,0.082 l 0.818,0.453 c 0.031,0.017 0.068,0.017 0.099,0 l 0.818,-0.453 c 0.03,-0.017 0.049,-0.048 0.049,-0.082 v -0.906 c 0,-0.034 -0.019,-0.065 -0.05,-0.082 l -0.818,-0.452 c -0.015,-0.009 -0.032,-0.013 -0.049,-0.013 -0.017,0 -0.034,0.004 -0.049,0.013"
     id="path2" />
  <path
     fill="#37474f"
     d="M 35.751,1.3637674 33.362,0.03076744 c -0.075,-0.042 -0.167,-0.041 -0.241,0.003 -0.074,0.044 -0.12,0.123 -0.12,0.209 L 33,8.2947674 l -2.203,-1.219 c -0.092,-0.051 -0.195,-0.076 -0.297,-0.076 -0.102,0 -0.205,0.025 -0.297,0.076 h 0.001 l -4.907,2.715 C 25.113,9.8917674 25,10.079767 25,10.281767 v 5.433 c 0,0.203 0.113,0.39 0.297,0.492 l 4.908,2.717 c 0.183,0.101 0.41,0.101 0.593,0 l 4.907,-2.717 c 0.182,-0.101 0.295,-0.289 0.295,-0.492 V 1.7877674 c 0,-0.176 -0.096,-0.338 -0.249,-0.424 z m -2.885,13.0939996 -2.23,1.235 c -0.083,0.046 -0.186,0.046 -0.269,0 l -2.231,-1.235 c -0.085,-0.046 -0.136,-0.132 -0.136,-0.224 v -2.47 c 0,-0.092 0.051,-0.177 0.135,-0.224 l 2.231,-1.234 h -0.001 c 0.042,-0.023 0.088,-0.034 0.135,-0.034 0.047,0 0.093,0.012 0.135,0.034 l 2.23,1.234 c 0.084,0.047 0.135,0.133 0.135,0.225 v 2.47 c 0,0.091 -0.051,0.177 -0.134,0.223 z"
     id="path4" />
  <path
     fill="#2e7d32"
     d="M 17.204,7.1217674 12,15.761767 c 0,0.203 0.113,0.39 0.297,0.492 l 4.908,2.717 c 0.183,0.101 0.41,0.101 0.593,0 l 5.202,-8.642 c 0,-0.203 -0.113,-0.3899996 -0.297,-0.4919996 l -4.906,-2.715 c -0.092,-0.051 -0.195,-0.076 -0.297,-0.076 -0.103,0 -0.205,0.025 -0.297,0.076"
     id="path6" />
  <path
     fill="#4caf50"
     d="m 17.204,7.1217674 -4.907,2.715 C 12.113,9.9377674 12,10.125767 12,10.328767 l 5.204,8.642 c 0.183,0.101 0.41,0.101 0.593,0 l 4.907,-2.717 c 0.183,-0.102 0.296,-0.289 0.296,-0.492 L 17.797,7.1217674 c -0.092,-0.051 -0.195,-0.076 -0.297,-0.076 -0.103,0 -0.205,0.025 -0.297,0.076"
     id="path8" />
  <path
     fill="#37474f"
     d="m 47.703,9.7907674 -4.906,-2.715 c -0.092,-0.051 -0.195,-0.076 -0.297,-0.076 -0.102,0 -0.205,0.025 -0.297,0.076 h 10e-4 l -4.907,2.715 C 37.114,9.8917674 37,10.083767 37,10.293767 v 5.411 c 0,0.209 0.114,0.402 0.297,0.503 l 4.908,2.717 c 0.184,0.102 0.409,0.102 0.593,0 l 2.263,-1.253 c 0.207,-0.115 0.206,-0.412 -0.002,-0.526 l -4.924,-2.687 c -0.083,-0.047 -0.135,-0.134 -0.135,-0.228 v -2.466 c 0,-0.092 0.05,-0.177 0.13,-0.221 l 2.235,-1.236 h -0.001 c 0.042,-0.023 0.088,-0.034 0.135,-0.034 0.047,0 0.093,0.012 0.135,0.034 l 2.235,1.237 c 0.08,0.044 0.13,0.129 0.13,0.221 v 2.012 c 0,0.086 0.046,0.166 0.121,0.209 0.075,0.042 0.167,0.042 0.242,-0.001 l 2.398,-1.393 c 0.148,-0.086 0.24,-0.245 0.24,-0.417 v -1.88 c 0,-0.211 -0.114,-0.4039996 -0.297,-0.5049996 z m -37,0 -4.906,-2.715 c -0.092,-0.051 -0.195,-0.076 -0.297,-0.076 -0.102,0 -0.205,0.025 -0.297,0.076 h 10e-4 l -4.907,2.715 C 0.114,9.8917674 0,10.083767 0,10.293767 v 7.465 c 0,0.086 0.046,0.166 0.121,0.209 0.075,0.042 0.167,0.042 0.242,-10e-4 l 2.398,-1.393 c 0.148,-0.086 0.239,-0.245 0.239,-0.417 v -4.393 c 0,-0.092 0.05,-0.177 0.13,-0.221 l 2.235,-1.236 v 0 c 0.042,-0.023 0.088,-0.034 0.135,-0.034 0.047,0 0.093,0.012 0.135,0.034 l 2.235,1.237 c 0.08,0.044 0.13,0.129 0.13,0.221 v 4.393 c 0,0.172 0.091,0.331 0.24,0.417 l 2.398,1.393 c 0.075,0.043 0.167,0.043 0.242,0.001 0.074,-0.044 0.12,-0.124 0.12,-0.21 v -7.464 c 0,-0.21 -0.114,-0.4029996 -0.297,-0.5039996 z"
     id="path10" />
</svg>
