<?xml version="1.0" standalone="no"?>
<!DOCTYPE svg PUBLIC "-//W3C//DTD SVG 20010904//EN"
 "http://www.w3.org/TR/2001/REC-SVG-20010904/DTD/svg10.dtd">
<svg version="1.0" xmlns="http://www.w3.org/2000/svg"
 width="256.000000pt" height="256.000000pt" viewBox="0 0 256.000000 256.000000"
 preserveAspectRatio="xMidYMid meet">
<metadata>
Created by potrace 1.16, written by Peter Selinger 2001-2019
</metadata>
<g transform="translate(0.000000,256.000000) scale(0.100000,-0.100000)"
fill="#000000" stroke="none">
<path d="M1145 1688 c-3 -13 -28 -140 -55 -283 -28 -143 -52 -270 -55 -282 -5
-22 -3 -23 59 -23 75 0 65 -18 101 175 36 193 25 175 105 175 51 0 73 -5 91
-19 l22 -18 -30 -152 c-23 -116 -27 -154 -18 -157 7 -3 36 -4 66 -2 l53 3 28
135 c29 145 34 219 17 252 -17 31 -72 48 -180 55 l-99 6 6 36 c3 20 10 53 14
73 4 20 5 39 2 43 -3 3 -31 5 -63 5 -53 0 -59 -2 -64 -22z"/>
<path d="M605 1540 c-7 -11 -115 -557 -115 -583 0 -16 8 -18 63 -15 l62 3 16
75 15 75 104 7 c128 8 177 26 230 84 55 60 73 105 74 186 1 53 -3 72 -20 94
-32 43 -65 63 -123 74 -69 13 -298 13 -306 0z m294 -114 c47 -43 10 -174 -59
-208 -41 -21 -170 -26 -170 -6 0 6 10 63 22 126 l22 114 82 -4 c63 -2 87 -7
103 -22z"/>
<path d="M1626 1539 c-3 -8 -28 -133 -56 -279 -27 -146 -53 -277 -56 -292 l-6
-28 65 0 66 0 11 58 c22 110 9 99 126 105 86 4 114 10 159 31 91 45 145 134
145 240 0 71 -26 115 -85 146 -44 22 -62 25 -206 28 -128 4 -160 2 -163 -9z
m278 -100 c32 -15 46 -55 36 -105 -19 -101 -51 -126 -169 -132 -78 -4 -83 -3
-78 14 3 11 13 60 22 109 24 135 16 125 95 125 38 0 80 -5 94 -11z"/>
</g>
</svg>
