<?xml version="1.0" standalone="no"?>
<!DOCTYPE svg PUBLIC "-//W3C//DTD SVG 20010904//EN"
 "http://www.w3.org/TR/2001/REC-SVG-20010904/DTD/svg10.dtd">
<svg version="1.0" xmlns="http://www.w3.org/2000/svg"
 width="256.000000pt" height="256.000000pt" viewBox="0 0 256.000000 256.000000"
 preserveAspectRatio="xMidYMid meet">
<metadata>
Created by potrace 1.16, written by Peter Selinger 2001-2019
</metadata>
<g transform="translate(0.000000,256.000000) scale(0.100000,-0.100000)"
fill="#000000" stroke="none">
<path d="M1097 2549 c-172 -17 -292 -57 -366 -125 -69 -61 -71 -71 -71 -274
l0 -180 310 0 310 0 0 -35 0 -34 -483 -3 -482 -3 -65 -32 c-36 -17 -79 -47
-97 -65 -51 -53 -99 -142 -124 -231 -21 -74 -24 -103 -24 -282 0 -157 4 -216
18 -276 40 -170 130 -296 242 -338 46 -17 79 -21 185 -21 l130 0 0 153 c0 235
21 324 96 407 48 52 114 86 195 100 35 5 217 10 405 10 281 0 350 3 394 16 97
29 162 83 202 169 22 49 23 59 26 405 4 401 3 407 -72 488 -114 124 -397 183
-729 151z m-124 -210 c37 -19 57 -52 57 -95 0 -103 -129 -141 -187 -55 -28 42
-29 66 -3 109 29 48 86 65 133 41z"/>
</g>
</svg>
