<?xml version="1.0" standalone="no"?>
<!DOCTYPE svg PUBLIC "-//W3C//DTD SVG 20010904//EN"
 "http://www.w3.org/TR/2001/REC-SVG-20010904/DTD/svg10.dtd">
<svg version="1.0" xmlns="http://www.w3.org/2000/svg"
 width="256.000000pt" height="256.000000pt" viewBox="0 0 256.000000 256.000000"
 preserveAspectRatio="xMidYMid meet">
<metadata>
Created by potrace 1.16, written by Peter Selinger 2001-2019
</metadata>
<g transform="translate(0.000000,256.000000) scale(0.100000,-0.100000)"
fill="#000000" stroke="none">
<path d="M950 2221 c-47 -10 -121 -32 -165 -49 -462 -173 -784 -465 -785 -713
0 -134 88 -245 334 -421 77 -55 145 -104 149 -108 5 -4 -20 -22 -55 -40 -164
-85 -302 -208 -332 -296 -26 -77 -21 -152 13 -205 38 -60 69 -72 178 -67 108
4 172 31 254 106 99 91 147 218 135 358 -3 39 -10 83 -15 96 -8 22 -5 27 22
43 18 10 47 27 65 37 l32 20 -12 -29 c-6 -16 -12 -78 -12 -143 0 -103 2 -121
26 -171 30 -66 59 -89 109 -89 49 0 82 33 124 123 29 61 34 67 35 42 0 -53 20
-105 46 -122 23 -15 28 -15 60 0 22 11 49 39 75 79 40 63 159 301 195 390 10
27 22 48 25 48 4 0 10 -15 13 -32 3 -18 17 -57 31 -86 14 -30 25 -59 25 -66 0
-7 -40 -61 -90 -122 -96 -117 -110 -152 -68 -175 52 -28 205 17 262 77 55 57
67 115 44 213 -11 47 -10 52 15 88 14 21 46 73 70 117 l45 78 7 -33 c4 -19 18
-59 31 -90 l23 -56 -45 -49 c-91 -98 -124 -215 -73 -257 29 -24 62 -18 148 25
106 54 148 127 130 224 -11 57 -9 59 84 75 52 8 88 8 145 0 155 -23 247 -99
247 -203 0 -47 -3 -53 -42 -88 -46 -41 -54 -60 -24 -60 27 0 82 40 108 79 18
26 23 48 23 93 0 106 -63 192 -180 247 -50 24 -66 26 -175 26 -97 -1 -131 -5
-177 -22 l-56 -21 -26 58 c-31 68 -34 143 -10 213 23 69 17 77 -63 77 -37 0
-73 -4 -79 -8 -6 -4 -16 -29 -24 -57 -16 -63 -110 -250 -158 -315 -7 -9 -22
27 -33 80 -9 45 -8 67 7 133 21 95 17 100 -69 93 -68 -5 -83 -15 -91 -60 -6
-33 -168 -403 -219 -501 -24 -46 -26 -48 -27 -21 0 16 16 91 36 168 39 153 38
168 -20 168 -30 0 -31 1 -33 51 -4 134 -139 134 -272 -1 -56 -56 -83 -74 -222
-149 l-76 -40 -29 31 c-16 17 -74 65 -129 108 -174 135 -234 216 -235 312 0
132 97 264 290 393 381 255 801 330 950 170 21 -23 25 -36 25 -89 0 -51 -6
-74 -29 -117 -77 -142 -221 -250 -416 -311 -108 -33 -265 -33 -330 1 -25 13
-55 33 -68 44 -19 17 -25 19 -32 8 -24 -39 54 -127 138 -156 153 -52 429 -9
596 93 93 55 195 164 238 253 113 231 49 410 -174 489 -91 32 -317 38 -438 11z
m140 -1069 c0 -19 -50 -174 -85 -262 -47 -118 -73 -170 -85 -170 -32 0 -40
121 -14 211 34 117 115 229 164 229 11 0 20 -4 20 -8z m-522 -391 c-8 -114
-85 -224 -188 -270 -83 -38 -130 -24 -130 40 0 88 67 172 214 270 105 71 111
68 104 -40z"/>
</g>
</svg>
