<?xml version="1.0" encoding="UTF-8" standalone="no"?>
<!-- Generator: Adobe Illustrator 22.0.1, SVG Export Plug-In . SVG Version: 6.00 Build 0)  -->

<svg
   version="1.1"
   id="Layer_1"
   x="0px"
   y="0px"
   viewBox="0 0 510 510"
   xml:space="preserve"
   sodipodi:docname="2228aa4f273b61a1d62edc8574511e42.svg"
   width="510"
   height="510"
   xmlns:inkscape="http://www.inkscape.org/namespaces/inkscape"
   xmlns:sodipodi="http://sodipodi.sourceforge.net/DTD/sodipodi-0.dtd"
   xmlns="http://www.w3.org/2000/svg"
   xmlns:svg="http://www.w3.org/2000/svg"><defs
   id="defs61" /><sodipodi:namedview
   id="namedview59"
   pagecolor="#ffffff"
   bordercolor="#666666"
   borderopacity="1.0"
   inkscape:pageshadow="2"
   inkscape:pageopacity="0.0"
   inkscape:pagecheckerboard="0" />
<style
   type="text/css"
   id="style2">
	.st0{fill:#35216D;}
	.st1{fill:#EDF3FC;}
	.st2{fill:#330D84;}
	.st3{fill:#FFBE1B;}
	.st4{fill:#0061F3;}
	.st5{fill:#8C7BFD;}
	.st6{fill:#FFFFFF;}
	.st7{fill:#5932AE;}
	.st8{fill:#1C46C4;}
	.st9{fill:#6857E5;}
	.st10{fill:#5D8EF9;}
	.st11{fill:#8AC9F9;}
	.st12{fill:#FFE37B;}
	.st13{fill:#FFD000;}
	.st14{fill:#2EF39E;}
	.st15{fill:#330D84;stroke:#330D84;stroke-width:0.6306;stroke-linecap:round;stroke-linejoin:round;stroke-miterlimit:10;}
	.st16{fill:#FFFFFF;stroke:#FFFFFF;stroke-width:0.737;stroke-linecap:round;stroke-linejoin:round;stroke-miterlimit:10;}
	.st17{fill:none;}
	.st18{fill:#FDB813;}
</style>
<g
   id="g56"
   transform="translate(-1,-1)">
	<g
   id="g8">
		<g
   id="g6">
			<path
   class="st1"
   d="m 255.999,40.928 c -118.778,0 -215.071,96.294 -215.071,215.074 0,118.776 96.292,215.068 215.071,215.068 118.779,0 215.071,-96.292 215.071,-215.068 0,-118.78 -96.293,-215.074 -215.071,-215.074 z"
   id="path4" />
		</g>
	</g>
	<g
   id="g14">
		<g
   id="g12">
			<path
   class="st1"
   d="M 255.999,1 C 115.391,1 1,115.392 1,256.002 1,396.609 115.391,511 255.999,511 396.607,511 511,396.609 511,256.002 511,115.392 396.607,1 255.999,1 Z m 0,501.832 c -136.103,0 -246.83,-110.728 -246.83,-246.83 0,-136.104 110.727,-246.833 246.83,-246.833 136.102,0 246.832,110.729 246.832,246.833 0,136.102 -110.73,246.83 -246.832,246.83 z"
   id="path10" />
		</g>
	</g>
	<path
   class="st10"
   d="m 172.596,380.142 2.343,0.583 -2.343,0.584 c -13.683,3.428 -24.366,14.116 -27.803,27.803 l -0.585,2.336 -0.582,-2.336 c -3.433,-13.687 -14.121,-24.375 -27.81,-27.803 l -2.33,-0.584 2.33,-0.583 c 13.689,-3.43 24.377,-14.123 27.81,-27.806 l 0.582,-2.337 0.585,2.337 c 3.436,13.683 14.119,24.376 27.803,27.806 z"
   id="path16" />
	<path
   class="st3"
   d="m 347.895,91.741 2.042,0.508 -2.042,0.51 c -11.93,2.989 -21.244,12.308 -24.24,24.241 l -0.51,2.037 L 322.637,117 C 319.644,105.067 310.326,95.748 298.391,92.759 l -2.031,-0.51 2.031,-0.508 c 11.935,-2.991 21.253,-12.314 24.246,-24.243 l 0.508,-2.037 0.51,2.037 c 2.996,11.93 12.31,21.252 24.24,24.243 z"
   id="path18" />
	<path
   class="st10"
   d="m 208.797,408.444 1.203,0.299 -1.203,0.3 c -7.027,1.761 -12.514,7.25 -14.279,14.279 l -0.3,1.2 -0.299,-1.2 c -1.763,-7.029 -7.252,-12.518 -14.283,-14.279 l -1.197,-0.3 1.197,-0.299 c 7.03,-1.762 12.519,-7.253 14.283,-14.28 l 0.299,-1.2 0.3,1.2 c 1.765,7.027 7.252,12.518 14.279,14.28 z"
   id="path20" />
	<path
   class="st2"
   d="m 436.956,218.078 1.203,0.299 -1.203,0.3 c -7.027,1.761 -12.514,7.25 -14.279,14.279 l -0.3,1.2 -0.299,-1.2 c -1.763,-7.029 -7.252,-12.518 -14.283,-14.279 l -1.197,-0.3 1.197,-0.299 c 7.03,-1.762 12.519,-7.253 14.283,-14.28 l 0.299,-1.2 0.3,1.2 c 1.765,7.026 7.251,12.518 14.279,14.28 z"
   id="path22" />
	<path
   class="st10"
   d="m 305.765,365.453 h -4.978 c -6.079,0 -11.36,-4.178 -12.759,-10.096 l -3.304,-13.988 h -57.449 l -3.305,13.988 c -1.397,5.918 -6.68,10.096 -12.757,10.096 h -4.978 c -5.722,0 -10.361,4.638 -10.361,10.36 v 5.989 h 120.251 v -5.989 c 10e-4,-5.723 -4.638,-10.36 -10.36,-10.36 z"
   id="path24" />
	<path
   class="st11"
   d="M 379.03,341.369 H 132.97 c -10.762,0 -19.484,-8.722 -19.484,-19.487 V 149.679 c 0,-10.756 8.722,-19.481 19.484,-19.481 h 246.06 c 10.762,0 19.484,8.725 19.484,19.481 v 172.202 c 0,10.765 -8.722,19.488 -19.484,19.488 z"
   id="path26" />
	<path
   class="st2"
   d="M 113.486,302.103 V 149.679 c 0,-10.756 8.722,-19.481 19.484,-19.481 h 246.06 c 10.762,0 19.484,8.725 19.484,19.481 v 152.424 z"
   id="path28" />
	<rect
   x="128.52"
   y="146.517"
   class="st9"
   width="254.96001"
   height="143.71899"
   id="rect30" />
	<path
   class="st2"
   d="m 264.438,318.06 c 0,4.661 -3.778,8.439 -8.438,8.439 -4.66,0 -8.438,-3.777 -8.438,-8.439 0,-4.66 3.778,-8.438 8.438,-8.438 4.66,0 8.438,3.778 8.438,8.438 z"
   id="path32" />
	<path
   class="st3"
   d="M 364.682,290.236 V 177.357 c 0,-8.542 -6.925,-15.469 -15.469,-15.469 H 162.791 c -8.545,0 -15.473,6.927 -15.473,15.469 v 112.879 z"
   id="path34" />
	<path
   class="st6"
   d="m 313.649,175.193 c 0,2.548 -2.065,4.613 -4.613,4.613 -2.548,0 -4.613,-2.065 -4.613,-4.613 0,-2.547 2.065,-4.613 4.613,-4.613 2.548,-0.001 4.613,2.065 4.613,4.613 z"
   id="path36" />
	<path
   class="st6"
   d="m 332.376,175.193 c 0,2.548 -2.065,4.613 -4.613,4.613 -2.551,0 -4.614,-2.065 -4.614,-4.613 0,-2.547 2.063,-4.613 4.614,-4.613 2.547,-0.001 4.613,2.065 4.613,4.613 z"
   id="path38" />
	<path
   class="st6"
   d="m 351.102,175.193 c 0,2.548 -2.064,4.613 -4.614,4.613 -2.548,0 -4.613,-2.065 -4.613,-4.613 0,-2.547 2.065,-4.613 4.613,-4.613 2.549,-0.001 4.614,2.065 4.614,4.613 z"
   id="path40" />
	<rect
   x="147.31799"
   y="189.351"
   class="st6"
   width="217.364"
   height="100.886"
   id="rect42" />
	<g
   id="g50">
		<path
   class="st2"
   d="m 195.139,209.28 4.955,16.979 4.509,-15.782 c 0.482,-1.651 0.84,-2.779 1.072,-3.382 0.231,-0.603 0.668,-1.178 1.308,-1.726 0.641,-0.547 1.518,-0.821 2.631,-0.821 1.132,0 2.018,0.274 2.658,0.821 0.64,0.547 1.09,1.141 1.35,1.781 0.26,0.64 0.622,1.749 1.086,3.326 l 4.509,15.782 5.011,-16.979 c 0.334,-1.225 0.603,-2.111 0.807,-2.658 0.204,-0.547 0.548,-1.03 1.03,-1.447 0.482,-0.418 1.178,-0.626 2.088,-0.626 0.909,0 1.697,0.316 2.365,0.946 0.669,0.631 1.003,1.374 1.003,2.227 0,0.779 -0.288,1.958 -0.863,3.535 l -6.207,18.204 c -0.539,1.541 -0.956,2.654 -1.253,3.34 -0.297,0.686 -0.766,1.299 -1.405,1.837 -0.641,0.538 -1.518,0.807 -2.631,0.807 -1.15,0 -2.055,-0.288 -2.714,-0.863 -0.658,-0.575 -1.146,-1.28 -1.461,-2.115 -0.315,-0.835 -0.659,-1.921 -1.03,-3.257 l -4.342,-14.808 -4.203,14.808 c -0.557,2.06 -1.16,3.614 -1.81,4.662 -0.649,1.048 -1.791,1.573 -3.424,1.573 -0.835,0 -1.545,-0.163 -2.129,-0.487 -0.585,-0.325 -1.071,-0.789 -1.461,-1.392 -0.391,-0.603 -0.733,-1.317 -1.03,-2.143 -0.297,-0.826 -0.529,-1.479 -0.696,-1.962 l -6.151,-18.204 c -0.612,-1.707 -0.918,-2.885 -0.918,-3.535 0,-0.816 0.324,-1.549 0.974,-2.199 0.649,-0.649 1.447,-0.974 2.394,-0.974 1.262,0 2.116,0.357 2.562,1.072 0.446,0.715 0.915,1.934 1.416,3.66 z"
   id="path44" />
		<path
   class="st2"
   d="m 241.483,209.28 4.955,16.979 4.509,-15.782 c 0.482,-1.651 0.84,-2.779 1.072,-3.382 0.231,-0.603 0.668,-1.178 1.308,-1.726 0.641,-0.547 1.518,-0.821 2.631,-0.821 1.132,0 2.018,0.274 2.658,0.821 0.64,0.547 1.09,1.141 1.35,1.781 0.26,0.64 0.622,1.749 1.086,3.326 l 4.509,15.782 5.011,-16.979 c 0.334,-1.225 0.603,-2.111 0.807,-2.658 0.204,-0.547 0.548,-1.03 1.03,-1.447 0.482,-0.418 1.178,-0.626 2.088,-0.626 0.909,0 1.697,0.316 2.365,0.946 0.669,0.631 1.003,1.374 1.003,2.227 0,0.779 -0.288,1.958 -0.863,3.535 l -6.207,18.204 c -0.539,1.541 -0.956,2.654 -1.253,3.34 -0.297,0.686 -0.766,1.299 -1.405,1.837 -0.641,0.538 -1.518,0.807 -2.631,0.807 -1.15,0 -2.055,-0.288 -2.714,-0.863 -0.658,-0.575 -1.146,-1.28 -1.461,-2.115 -0.315,-0.835 -0.659,-1.921 -1.03,-3.257 l -4.342,-14.808 -4.203,14.808 c -0.557,2.06 -1.16,3.614 -1.81,4.662 -0.649,1.048 -1.791,1.573 -3.424,1.573 -0.835,0 -1.545,-0.163 -2.129,-0.487 -0.585,-0.325 -1.071,-0.789 -1.461,-1.392 -0.391,-0.603 -0.733,-1.317 -1.03,-2.143 -0.297,-0.826 -0.529,-1.479 -0.696,-1.962 l -6.151,-18.204 c -0.612,-1.707 -0.918,-2.885 -0.918,-3.535 0,-0.816 0.324,-1.549 0.974,-2.199 0.649,-0.649 1.447,-0.974 2.394,-0.974 1.262,0 2.116,0.357 2.562,1.072 0.446,0.715 0.915,1.934 1.416,3.66 z"
   id="path46" />
		<path
   class="st2"
   d="m 287.828,209.28 4.955,16.979 4.509,-15.782 c 0.482,-1.651 0.84,-2.779 1.072,-3.382 0.231,-0.603 0.668,-1.178 1.308,-1.726 0.641,-0.547 1.518,-0.821 2.631,-0.821 1.132,0 2.018,0.274 2.658,0.821 0.64,0.547 1.09,1.141 1.35,1.781 0.26,0.64 0.622,1.749 1.086,3.326 l 4.509,15.782 5.011,-16.979 c 0.334,-1.225 0.603,-2.111 0.807,-2.658 0.204,-0.547 0.548,-1.03 1.03,-1.447 0.482,-0.418 1.178,-0.626 2.088,-0.626 0.909,0 1.697,0.316 2.365,0.946 0.669,0.631 1.003,1.374 1.003,2.227 0,0.779 -0.288,1.958 -0.863,3.535 l -6.207,18.204 c -0.539,1.541 -0.956,2.654 -1.253,3.34 -0.297,0.686 -0.766,1.299 -1.405,1.837 -0.641,0.538 -1.518,0.807 -2.631,0.807 -1.15,0 -2.055,-0.288 -2.714,-0.863 -0.658,-0.575 -1.146,-1.28 -1.461,-2.115 -0.315,-0.835 -0.659,-1.921 -1.03,-3.257 l -4.342,-14.808 -4.203,14.808 c -0.557,2.06 -1.16,3.614 -1.81,4.662 -0.649,1.048 -1.791,1.573 -3.424,1.573 -0.835,0 -1.545,-0.163 -2.129,-0.487 -0.585,-0.325 -1.071,-0.789 -1.461,-1.392 -0.391,-0.603 -0.733,-1.317 -1.03,-2.143 -0.297,-0.826 -0.529,-1.479 -0.696,-1.962 L 281.4,211.256 c -0.612,-1.707 -0.918,-2.885 -0.918,-3.535 0,-0.816 0.324,-1.549 0.974,-2.199 0.649,-0.649 1.447,-0.974 2.394,-0.974 1.262,0 2.116,0.357 2.562,1.072 0.446,0.715 0.915,1.934 1.416,3.66 z"
   id="path48" />
	</g>
	<rect
   x="165.60201"
   y="244.74001"
   class="st11"
   width="180.79601"
   height="11.542"
   id="rect52" />
	<rect
   x="165.60201"
   y="266.70801"
   class="st11"
   width="180.79601"
   height="11.542"
   id="rect54" />
</g>
</svg>
